# Blender 4.4.3
# www.blender.org
mtllib Bush2.mtl
o Bush_2
v 2.848276 -0.070749 -0.905581
v 2.225291 0.333968 -2.051144
v 2.423509 -0.332876 -1.987982
v 1.622474 -1.008239 -2.117978
v 2.528383 -1.124446 -1.752343
v 2.149999 -1.487223 -1.175437
v 0.976323 -1.454654 -0.711664
v 2.479833 -0.427062 -0.135163
v 2.919630 -0.930631 -0.900008
v 2.067088 -1.320324 -0.328670
v 0.879368 -1.326446 -1.521827
v 0.067645 -0.933114 0.540481
v 0.845705 0.842813 0.487996
v 0.135661 0.388893 0.895583
v 0.389361 -0.422283 0.888574
v -0.086919 -1.095714 -1.136709
v -0.526820 -1.142782 0.053868
v -1.262592 -1.023727 -0.904715
v -1.159806 -0.616049 0.456408
v -1.051937 0.496579 0.597499
v -1.738833 0.832868 -0.414057
v -1.188363 1.185473 -1.296799
v 0.056573 0.907072 -1.851481
v 0.760365 1.095507 -2.019201
v -0.233889 -0.212877 -2.570046
v -0.032459 -0.759306 -2.813348
v -1.287735 -0.729403 -2.725774
v -1.210868 0.513652 -1.961021
v -1.895290 -0.388605 -2.166271
v -1.961383 0.765511 -1.111931
v -1.865826 -1.094544 -1.948905
v -1.220261 -1.525984 -1.976412
v -2.022684 -0.511020 -1.317302
v -1.869841 0.044752 -0.064962
v -0.407408 -1.422958 -2.034359
v 0.790047 -1.125597 -2.778180
v 0.662105 -1.475105 -2.383202
v 1.672137 0.113570 -2.849038
v 1.479497 1.348898 -0.727956
v 1.508177 0.485099 0.293153
v 1.612710 -0.471184 0.234607
v 1.643773 0.837011 -2.563225
v 2.041159 0.940672 -0.889275
v -0.445624 1.052654 0.435720
v -0.539232 1.329517 -0.299846
v 0.772905 0.689687 -2.702593
vn 0.8871 0.2255 -0.4027
vn 0.7644 0.6132 -0.1991
vn 0.7852 0.1772 -0.5933
vn 0.0861 -0.8679 -0.4893
vn 0.0511 -0.9789 0.1979
vn 0.9091 -0.0035 -0.4165
vn -0.0110 -0.9334 0.3587
vn -0.0038 -0.9167 0.3996
vn 0.3313 -0.6649 0.6695
vn 0.3800 0.2136 0.9000
vn 0.0666 0.6070 0.7919
vn -0.6154 -0.0402 0.7872
vn -0.4788 0.6826 0.5521
vn -0.3854 0.8464 0.3676
vn -0.3850 0.9223 0.0338
vn -0.3079 0.3697 -0.8766
vn -0.5686 0.5436 -0.6174
vn -0.5366 0.5522 -0.6381
vn -0.4852 0.6229 -0.6136
vn -0.9880 0.0697 -0.1382
vn -0.7259 -0.2299 -0.6482
vn -0.7621 -0.5522 0.3381
vn 0.0069 -0.9857 0.1684
vn 0.0131 -0.0664 -0.9977
vn -0.1012 0.5557 -0.8252
vn 0.5440 0.8196 -0.1799
vn 0.7404 0.6368 -0.2152
vn 0.5971 0.6206 0.5083
vn -0.2366 -0.7533 0.6136
vn -0.1813 -0.4733 0.8621
vn -0.2561 -0.0970 0.9618
vn -0.2509 -0.0882 0.9640
vn -0.2561 -0.0971 0.9617
vn 0.4258 -0.9035 0.0485
vn 0.5910 -0.4586 -0.6636
vn 0.9221 0.0741 -0.3798
vn 0.8853 0.0764 0.4587
vn 0.6562 0.5147 0.5518
vn 0.3928 -0.0134 0.9195
vn 0.3394 -0.2268 -0.9129
vn 0.6061 -0.7892 -0.0988
vn -0.0634 0.8576 -0.5104
vn 0.7563 0.2658 -0.5978
vn 0.5210 -0.8263 0.2139
vn -0.3323 0.8083 -0.4861
vn -0.0217 0.9833 -0.1809
vn 0.5208 -0.4821 -0.7045
vn 0.4870 -0.7264 -0.4850
vn -0.3571 0.2669 -0.8951
vn -0.2596 -0.6699 -0.6956
vn -0.0759 -0.9278 0.3653
vn 0.2606 -0.9483 -0.1813
vn -0.2831 -0.9485 -0.1421
vn 0.6977 0.5043 0.5088
vn 0.1270 0.8905 0.4368
vn -0.6531 -0.6302 0.4200
vn -0.6999 0.3833 0.6027
vn -0.1333 0.5253 -0.8404
vn 0.0346 -0.6832 -0.7294
vn -0.0641 -0.7442 -0.6649
vn 0.0285 -0.9047 0.4251
vn -0.4229 0.4937 -0.7599
vn -0.4493 -0.6320 -0.6314
vn -0.9240 0.2725 0.2684
vn -0.5106 -0.7862 0.3483
vn 0.6300 -0.4310 0.6460
vn 0.3925 0.1149 0.9126
vn -0.0741 -0.9950 -0.0667
vn -0.5008 -0.8180 0.2828
vn -0.4414 0.8829 0.1599
vn -0.1559 0.6971 -0.6998
vn -0.9829 -0.0905 -0.1605
vn -0.9937 0.0304 0.1078
vn 0.1408 -0.9453 0.2943
vn 0.5169 0.6607 0.5444
vn 0.4714 -0.0025 0.8819
vn -0.0351 0.9921 -0.1205
vn -0.6340 -0.7263 0.2654
vn -0.2499 -0.0865 0.9644
vn 0.3813 -0.3606 0.8512
vn 0.1226 0.9588 -0.2564
vn 0.2943 -0.4139 0.8614
vn -0.0831 0.1218 -0.9891
vn -0.2715 -0.6754 -0.6856
vn -0.1710 -0.9137 -0.3686
vn -0.2601 -0.9580 -0.1205
vn -0.1789 0.4496 0.8751
vn 0.0857 0.3690 -0.9255
vn 0.0640 0.9366 0.3444
vn -0.0549 0.3892 -0.9195
s 1
usemtl Material.004
f 2//1 1//1 3//1
f 2//2 43//2 1//2
f 3//3 38//3 2//3
f 5//4 6//4 4//4
f 6//5 10//5 7//5
f 3//6 9//6 5//6
f 7//7 10//7 17//7
f 17//8 10//8 12//8
f 41//9 15//9 12//9
f 40//10 13//10 14//10
f 14//11 13//11 44//11
f 20//12 34//12 19//12
f 44//13 21//13 20//13
f 21//14 44//14 45//14
f 45//15 30//15 21//15
f 24//16 23//16 22//16
f 46//17 25//17 23//17
f 30//18 28//18 29//18
f 28//19 30//19 22//19
f 30//20 29//20 33//20
f 29//21 27//21 31//21
f 33//22 19//22 34//22
f 11//23 35//23 37//23
f 38//24 36//24 26//24
f 23//25 25//25 28//25
f 42//26 39//26 43//26
f 2//27 42//27 43//27
f 39//28 40//28 43//28
f 12//29 19//29 17//29
f 15//30 19//30 12//30
f 15//31 20//32 19//33
f 37//34 4//34 11//34
f 4//35 36//35 38//35
f 9//36 3//36 1//36
f 9//37 1//37 8//37
f 8//38 1//38 43//38
f 8//39 40//39 41//39
f 5//40 4//40 3//40
f 5//41 9//41 6//41
f 24//42 42//42 46//42
f 2//43 38//43 42//43
f 6//44 9//44 10//44
f 24//45 46//45 23//45
f 24//46 22//46 39//46
f 3//47 4//47 38//47
f 36//48 4//48 37//48
f 26//49 25//49 46//49
f 26//50 37//50 35//50
f 11//51 16//51 35//51
f 11//52 4//52 7//52
f 11//53 17//53 16//53
f 40//54 8//54 43//54
f 39//55 44//55 13//55
f 18//56 33//56 31//56
f 20//57 21//57 34//57
f 28//58 25//58 27//58
f 35//59 32//59 27//59
f 26//60 35//60 27//60
f 16//61 18//61 32//61
f 27//62 29//62 28//62
f 31//63 27//63 32//63
f 30//64 34//64 21//64
f 18//65 31//65 32//65
f 8//66 10//66 9//66
f 40//67 14//67 15//67
f 18//68 16//68 17//68
f 18//69 17//69 19//69
f 45//70 22//70 30//70
f 22//71 23//71 28//71
f 31//72 33//72 29//72
f 34//73 30//73 33//73
f 32//74 35//74 16//74
f 40//75 39//75 13//75
f 40//76 15//76 41//76
f 39//77 22//77 45//77
f 19//78 33//78 18//78
f 15//31 14//79 20//32
f 8//80 41//80 10//80
f 39//81 42//81 24//81
f 10//82 41//82 12//82
f 46//83 38//83 26//83
f 36//84 37//84 26//84
f 6//85 7//85 4//85
f 11//86 7//86 17//86
f 14//87 44//87 20//87
f 46//88 42//88 38//88
f 39//89 45//89 44//89
f 25//90 26//90 27//90
