# Blender 4.4.3
# www.blender.org
mtllib Bush1.mtl
o Bush_1
v 3.860453 0.397294 -1.432890
v 3.933055 0.940848 -0.863782
v 3.318099 1.452309 -0.378933
v 3.226718 1.215321 0.542800
v 3.962180 0.717146 0.303212
v 3.734096 -0.466155 0.646844
v 2.257631 -0.622897 1.096031
v 2.689880 0.405529 1.236986
v 1.546755 2.409440 0.125544
v 2.369579 2.061988 0.722588
v 2.489195 1.493577 1.207499
v 2.098605 0.940091 1.887951
v 1.511526 1.477308 1.922665
v 0.759217 1.642836 1.632393
v 0.993772 2.193719 0.749192
v 1.622310 2.289482 0.938131
v 1.489880 1.494727 -0.943436
v 0.540640 1.630811 -0.594277
v 1.320354 1.389612 -1.299944
v 0.429566 1.833346 -1.957841
v 0.400584 0.598014 -3.077100
v 1.206277 0.487218 -2.719812
v 0.793854 -0.335672 -2.507798
v 1.451812 -0.526549 -1.313215
v 1.328875 -1.011910 -0.527319
v 0.133361 -0.952432 -1.284800
v 0.020068 -0.323409 -2.548333
v -0.395590 0.445161 -2.754212
v -0.126374 1.309744 -2.694246
v -0.342883 1.588306 -1.974682
v -0.048438 1.567173 0.308573
v 0.142894 1.164186 2.508989
v 0.733705 1.029934 2.963379
v 0.664087 0.381755 3.359374
v 0.013942 0.234507 3.205570
v 0.389063 -0.893551 3.103966
v 0.613638 -1.596444 2.185762
v 1.315989 -1.261959 2.728080
v 1.371699 -0.147758 3.351123
v 1.642361 0.791389 2.817051
v 2.180589 0.005234 2.483464
v 1.833606 -0.770200 2.737986
v 2.266446 -0.384934 1.937860
v 1.631133 -1.364552 1.950892
v 1.738885 -0.984987 0.595613
v 3.043997 -1.324288 0.210778
v 2.483377 -1.431059 -0.434207
v 2.400429 -1.147185 -1.316979
v 2.650768 -0.499286 -1.880950
v 3.108922 1.243122 -1.397887
v 2.427704 1.577764 -0.865283
v 1.894570 0.753485 -1.707208
v 3.040626 0.459198 -1.918782
v 1.074927 1.333921 -2.563635
v 1.795413 0.005969 -1.784239
v 3.658590 -0.395243 -1.606714
v 3.203295 -1.288521 -1.099570
v 4.132022 -0.713078 -0.577015
v 4.237830 -0.042542 -0.797686
v 4.223945 0.426042 -0.168377
v 0.088453 -1.495125 -0.315499
v -0.753999 -1.302305 0.114923
v -0.319470 -0.828438 2.643907
v -0.543706 -0.014615 2.556645
v -0.344375 0.615007 2.619911
v -0.952251 1.203744 0.118388
v -1.496956 0.486350 0.054796
v -1.009018 0.799697 -1.003215
v -0.493603 1.376032 -0.625395
v -0.742938 0.946886 -2.169005
v -0.780804 -0.042295 -1.864457
v -0.802399 -0.405474 -1.388671
v -0.977762 -0.993015 -0.661753
v -1.244460 -0.855042 0.244915
v -1.453120 -0.154834 0.385428
v -1.443274 -0.349427 -0.320281
vn 0.5873 0.5466 -0.5969
vn 0.2894 -0.6083 0.7391
vn 0.3061 -0.2544 0.9174
vn 0.3182 0.9417 0.1094
vn 0.7931 0.1622 0.5872
vn -0.2669 0.8479 0.4580
vn -0.0728 0.7734 0.6298
vn -0.1958 0.9673 0.1610
vn -0.1272 0.7570 -0.6410
vn 0.3289 -0.3868 -0.8615
vn 0.2870 -0.9087 -0.3033
vn -0.2816 -0.3874 -0.8778
vn -0.3998 0.1867 -0.8974
vn -0.2666 0.8691 -0.4167
vn -0.2409 0.9625 0.1245
vn -0.4075 0.8913 0.1987
vn -0.4023 0.8937 0.1987
vn -0.4091 0.8906 0.1987
vn -0.4079 0.5830 0.7026
vn -0.1708 -0.2431 0.9548
vn 0.2667 -0.9355 0.2316
vn 0.2613 0.4826 0.8359
vn 0.2937 0.7788 0.5543
vn 0.6278 0.6593 0.4138
vn 0.7015 0.1887 0.6872
vn 0.8312 -0.5372 0.1431
vn 0.9119 -0.3974 0.1028
vn -0.0114 0.5541 -0.8324
vn -0.1375 0.7499 -0.6471
vn -0.0053 0.7162 -0.6979
vn 0.6781 0.7166 -0.1633
vn 0.6164 -0.4714 -0.6307
vn 0.5489 -0.7239 -0.4180
vn 0.2739 -0.1489 -0.9502
vn 0.2695 -0.5757 -0.7720
vn 0.6374 -0.6884 0.3461
vn 0.9418 0.2793 -0.1872
vn 0.9203 -0.1958 0.3387
vn 0.9867 -0.1193 0.1106
vn 0.8279 -0.0894 -0.5538
vn 0.8337 -0.2868 -0.4719
vn 0.6411 -0.5991 -0.4797
vn 0.5105 -0.8590 0.0386
vn -0.3688 -0.4709 -0.8014
vn -0.4705 -0.7160 -0.5158
vn -0.0868 -0.9507 -0.2976
vn 0.1910 -0.9816 -0.0036
vn 0.5549 -0.8115 -0.1832
vn -0.5421 -0.8041 0.2438
vn -0.7590 0.5447 0.3567
vn -0.6841 -0.7237 -0.0911
vn 0.1104 -0.1638 0.9803
vn -0.8028 -0.5457 0.2402
vn -0.9522 -0.2976 0.0688
vn -0.9212 0.1085 -0.3736
vn -0.9735 -0.0324 -0.2263
vn -0.7794 0.1866 0.5981
vn -0.7273 -0.1281 0.6742
vn -0.8978 -0.2056 0.3893
vn 0.8936 -0.2865 0.3455
vn 0.8124 0.3623 0.4569
vn 0.4208 -0.4587 0.7827
vn 0.6416 -0.6824 0.3502
vn -0.3934 -0.7740 0.4963
vn 0.1544 -0.4881 0.8590
vn -0.5431 -0.2527 0.8007
vn -0.4865 0.5661 0.6655
vn -0.4013 0.8941 0.1986
vn -0.5830 0.7498 0.3128
vn -0.4382 -0.8197 -0.3688
vn -0.3404 -0.9032 -0.2616
vn 0.3318 -0.9274 -0.1724
vn 0.2517 -0.8494 -0.4639
vn -0.0284 -0.7956 0.6051
vn 0.4965 0.3513 0.7938
vn 0.6890 0.7148 0.1198
vn 0.7072 0.6647 0.2410
vn 0.5122 0.0575 -0.8569
vn 0.6603 0.5630 0.4970
vn 0.0284 0.9550 -0.2951
vn -0.2214 -0.9696 0.1041
vn 0.0092 -0.8948 -0.4463
vn -0.7013 0.5679 -0.4309
vn -0.7111 0.2666 -0.6506
vn -0.7759 0.6050 -0.1787
vn 0.9897 0.1278 0.0644
vn -0.8469 0.5316 -0.0110
vn -0.6459 0.7281 -0.2296
vn -0.0774 -0.8007 0.5940
vn 0.3417 0.8470 -0.4071
vn 0.4505 0.6324 0.6302
vn -0.3336 -0.6922 -0.6400
vn 0.4789 0.4565 -0.7498
vn 0.5978 0.7601 0.2547
vn 0.5664 0.1273 0.8142
vn 0.4498 0.8871 -0.1037
vn 0.3866 0.6896 0.6124
vn 0.7825 0.1221 0.6105
vn 0.3798 0.9190 0.1056
vn 0.5216 0.8419 -0.1384
vn 0.4207 0.2273 -0.8783
vn 0.2608 -0.8391 -0.4774
vn -0.3015 0.9392 0.1641
vn -0.2359 0.9680 -0.0857
vn -0.3064 0.5200 0.7973
vn -0.1434 -0.1360 0.9803
vn 0.3100 0.4009 0.8621
vn 0.0381 0.9074 0.4186
vn 0.7366 -0.1106 0.6672
vn 0.8249 -0.5324 0.1899
vn 0.6607 -0.7348 -0.1533
vn -0.1093 0.0052 -0.9940
vn -0.1501 0.1210 -0.9812
vn 0.4969 0.7394 -0.4543
vn 0.7761 0.2288 -0.5877
vn 0.8323 -0.0536 -0.5517
vn 0.8093 0.5803 0.0910
vn 0.8985 0.2544 -0.3576
vn 0.8679 -0.0232 0.4961
vn -0.3521 -0.5334 -0.7691
vn -0.3102 -0.9131 -0.2645
vn -0.8894 0.2426 0.3875
vn -0.6904 0.6684 0.2767
vn -0.8914 -0.1019 -0.4417
vn -0.9174 0.1311 0.3758
vn -0.7495 -0.5094 -0.4229
vn -0.9142 0.1408 -0.3799
vn -0.9978 -0.0660 0.0043
vn -0.8389 -0.5177 -0.1680
vn -0.8144 -0.3393 -0.4707
vn -0.6296 -0.6035 -0.4892
vn -0.2199 -0.9755 0.0067
vn -0.1130 0.9033 0.4138
vn -0.4742 0.8724 -0.1187
vn -0.3706 0.9287 -0.0134
vn -0.2399 -0.8423 -0.4827
vn 0.0370 -0.5088 -0.8601
vn 0.0821 0.5186 -0.8511
vn 0.0496 0.7959 -0.6034
vn -0.4744 0.8441 -0.2500
vn 0.6922 0.1468 0.7066
vn 0.4809 0.8342 -0.2700
vn 0.0810 -0.6720 -0.7361
vn 0.2657 0.9322 -0.2459
vn 0.2034 -0.9756 -0.0822
vn -0.3383 -0.8358 0.4324
vn -0.6561 -0.5050 -0.5608
vn -0.0132 0.7601 -0.6497
vn -0.7178 0.6920 -0.0765
vn 0.5039 0.5055 0.7004
s 1
usemtl Material.005
f 50//1 2//1 1//1
f 6//2 7//2 46//2
f 6//3 8//3 7//3
f 9//4 16//4 10//4
f 11//5 12//5 8//5
f 16//6 15//6 14//6
f 13//7 16//7 14//7
f 9//8 15//8 16//8
f 17//9 18//9 9//9
f 21//10 22//10 23//10
f 23//11 24//11 26//11
f 28//12 21//12 27//12
f 21//13 28//13 29//13
f 20//14 29//14 30//14
f 18//15 30//15 69//15
f 31//16 32//17 14//18
f 33//19 32//19 35//19
f 34//20 35//20 39//20
f 44//21 38//21 37//21
f 34//22 40//22 33//22
f 13//23 33//23 40//23
f 12//24 13//24 40//24
f 41//25 40//25 39//25
f 44//26 7//26 43//26
f 8//27 43//27 7//27
f 53//28 52//28 50//28
f 51//29 50//29 52//29
f 51//30 52//30 17//30
f 52//31 54//31 19//31
f 22//32 55//32 23//32
f 55//33 24//33 23//33
f 53//34 56//34 49//34
f 49//35 56//35 57//35
f 58//36 6//36 46//36
f 2//37 60//37 59//37
f 60//38 6//38 58//38
f 59//39 60//39 58//39
f 1//40 59//40 56//40
f 58//41 56//41 59//41
f 56//42 58//42 57//42
f 57//43 58//43 46//43
f 55//44 49//44 24//44
f 24//45 48//45 25//45
f 57//46 47//46 48//46
f 46//47 47//47 57//47
f 25//48 45//48 44//48
f 37//49 63//49 62//49
f 32//50 66//50 67//50
f 62//51 74//51 73//51
f 75//52 74//52 62//52
f 62//53 63//53 75//53
f 76//54 74//54 75//54
f 71//55 76//55 67//55
f 70//56 71//56 68//56
f 65//57 64//57 35//57
f 64//58 63//58 35//58
f 64//59 75//59 63//59
f 42//60 43//60 41//60
f 12//61 40//61 41//61
f 42//62 39//62 38//62
f 44//63 42//63 38//63
f 36//64 63//64 37//64
f 39//65 36//65 38//65
f 35//66 63//66 36//66
f 32//67 65//67 35//67
f 31//16 66//68 32//17
f 31//69 14//69 15//69
f 27//70 26//70 72//70
f 73//71 61//71 62//71
f 61//72 25//72 44//72
f 26//73 25//73 61//73
f 45//74 46//74 7//74
f 8//75 5//75 4//75
f 5//76 2//76 3//76
f 4//77 3//77 10//77
f 1//78 56//78 53//78
f 10//79 11//79 4//79
f 17//80 19//80 18//80
f 25//81 46//81 45//81
f 23//82 26//82 27//82
f 30//83 29//83 70//83
f 29//84 28//84 70//84
f 66//85 68//85 67//85
f 43//86 12//86 41//86
f 70//87 69//87 30//87
f 68//88 66//88 69//88
f 38//89 36//89 37//89
f 51//90 9//90 3//90
f 10//91 13//91 11//91
f 72//92 26//92 73//92
f 50//93 1//93 53//93
f 5//94 3//94 4//94
f 6//95 5//95 8//95
f 10//96 3//96 9//96
f 10//97 16//97 13//97
f 8//98 12//98 43//98
f 19//99 20//99 18//99
f 19//100 54//100 20//100
f 21//101 54//101 22//101
f 24//102 25//102 26//102
f 18//103 20//103 30//103
f 18//104 69//104 31//104
f 33//105 35//105 34//105
f 36//106 39//106 35//106
f 39//107 40//107 34//107
f 13//108 14//108 33//108
f 41//109 39//109 42//109
f 44//110 43//110 42//110
f 44//111 45//111 7//111
f 55//112 53//112 49//112
f 53//113 55//113 52//113
f 17//114 52//114 19//114
f 22//115 54//115 52//115
f 22//116 52//116 55//116
f 2//117 5//117 60//117
f 2//118 59//118 1//118
f 60//119 5//119 6//119
f 49//120 48//120 24//120
f 48//121 47//121 25//121
f 65//122 67//122 64//122
f 65//123 32//123 67//123
f 70//124 28//124 71//124
f 67//125 75//125 64//125
f 71//126 72//126 76//126
f 67//127 68//127 71//127
f 67//128 76//128 75//128
f 76//129 73//129 74//129
f 73//130 76//130 72//130
f 71//131 27//131 72//131
f 37//132 62//132 61//132
f 33//133 14//133 32//133
f 15//134 9//134 31//134
f 69//135 66//135 31//135
f 26//136 61//136 73//136
f 21//137 23//137 27//137
f 29//138 54//138 21//138
f 20//139 54//139 29//139
f 9//140 18//140 31//140
f 8//141 4//141 11//141
f 3//142 2//142 50//142
f 49//143 57//143 48//143
f 3//144 50//144 51//144
f 61//145 44//145 37//145
f 25//146 47//146 46//146
f 28//147 27//147 71//147
f 9//148 51//148 17//148
f 70//149 68//149 69//149
f 11//150 13//150 12//150
