# Blender 4.4.3
# www.blender.org
mtllib Cloud 4.mtl
o Cloud_4
v -2.532210 0.245518 -2.333256
v -2.318598 -0.247486 -1.989789
v -2.251044 1.050191 -0.199014
v -2.783309 -0.324658 -0.179526
v -2.867572 0.437673 -0.098419
v -3.482560 0.107926 1.052472
v -1.518911 0.360075 -3.849649
v -0.557445 -0.006448 -4.530016
v -1.978642 1.170800 -2.573898
v -1.297579 1.046266 -3.438024
v -0.946739 1.271091 -2.976132
v -1.119631 1.240600 -2.362951
v -2.273516 0.420470 -3.299804
v -2.278282 -0.316299 -3.260189
v -2.176154 -0.742258 -2.987542
v -2.356793 0.778838 -2.501997
v -0.432104 0.933733 -4.363556
v -0.072686 -0.198215 -4.558003
v -0.087404 0.523759 -4.595087
v 0.706975 0.166929 -4.439401
v -0.076387 1.275917 -3.866263
v 0.098637 1.303830 -3.422027
v -1.338791 0.874041 -1.452344
v -2.049083 0.470713 -1.375725
v -2.148986 -0.367789 -1.318067
v -1.894849 1.412575 0.964859
v -0.916985 1.162765 -0.496198
v -0.704883 0.800967 -1.590590
v 0.412357 0.518611 -2.187350
v 0.301001 0.277616 -1.617580
v -1.178886 1.101201 0.419024
v 0.310274 0.561072 0.216222
v -2.253780 -1.768893 -0.118838
v -2.316174 -1.962585 0.418079
v -0.286657 -0.652971 -4.290174
v -0.281894 -1.307732 -3.271315
v -0.827403 -1.536812 -2.610294
v -0.038296 -1.831257 -2.717788
v -1.970400 -0.712894 -1.862488
v -1.502146 -1.167690 -1.371575
v -1.194116 -1.361052 -2.110277
v -0.756363 -2.330217 -1.351661
v -1.940983 -2.313270 0.369489
v -1.236966 -2.232484 -0.564028
v -0.788945 -2.443990 -0.048450
v -0.092882 -2.700431 -1.026920
v -3.325728 0.738676 1.817876
v -2.510555 1.367692 0.675062
v -2.870197 1.445825 1.387988
v -3.381637 0.915236 1.025793
v -3.165663 -0.379869 1.740990
v -2.781127 -0.781892 0.660696
v -2.000616 1.315721 2.201223
v -2.389694 1.030682 2.480272
v -2.706846 0.371427 2.548676
v -2.421267 -0.093867 2.610317
v -2.385196 -0.327522 3.048425
v -2.664959 0.202600 3.648089
v -2.312160 0.782661 3.766782
v -2.720217 0.462987 4.450041
v -3.055138 -0.359073 4.305202
v -2.416318 0.363021 5.091437
v -2.828486 -0.341388 5.035929
v -0.826599 0.537952 1.389873
v -1.640968 1.266647 1.760180
v -2.266131 1.010295 3.168167
v -1.009046 1.587363 2.684077
v -1.834977 -0.867080 1.947214
v -0.727521 0.421006 0.993568
v 0.539100 0.238698 1.123066
v 0.140252 0.242999 1.426215
v -0.577951 1.353486 2.800730
v 0.007616 0.554166 2.347087
v 0.390903 -0.005771 2.899817
v -1.744395 0.922715 4.274515
v -1.733261 1.459185 3.344526
v -0.842537 1.336656 3.463798
v -1.781930 0.374883 5.282255
v -2.230760 -0.362385 5.524874
v -1.816218 -0.736862 5.521486
v -1.184674 -0.331334 5.391324
v -0.030681 0.771379 3.948582
v 0.501254 0.358055 3.790509
v 0.064233 0.312413 4.787399
v -2.380834 -1.014535 1.269296
v -2.751393 -0.983601 3.935779
v -2.210020 -1.441468 4.011625
v -2.685091 -1.095442 4.786736
v -1.826605 -2.145168 1.095104
v -1.463115 -1.551772 1.778405
v -0.693000 -1.861549 1.485085
v -1.092150 -2.385437 0.656135
v -1.761476 -0.780201 2.851002
v -1.017007 -1.336730 3.010585
v 0.188467 -1.455727 1.252673
v 0.212588 -1.487241 2.167240
v -0.040695 -1.404018 3.054974
v -1.310717 -1.320999 3.569335
v -0.688536 -1.543213 4.351671
v -2.049428 -1.451981 4.909890
v -0.355978 -1.472174 3.195537
v 0.439186 -1.294142 3.959193
v 0.285928 -1.244307 4.607045
v -0.207399 -0.989992 4.966735
v 0.151572 -0.304109 5.035900
v 1.772240 0.404030 -4.247725
v 1.867934 1.061160 -3.562630
v 0.160910 1.169810 -2.889246
v 1.592679 1.107255 -2.668396
v 2.364338 0.378757 -3.968933
v 1.769742 -0.303777 -4.275830
v 2.319197 0.831499 -2.976770
v 2.648181 0.285256 -3.200366
v 2.646704 -0.185977 -3.200230
v 2.192037 0.249452 -1.941382
v 1.325760 0.554227 -1.877607
v 1.817630 0.498691 -1.912532
v 0.731637 0.404299 -0.579496
v 2.014253 0.540738 -0.902446
v 1.478837 0.417099 -0.242028
v 1.054950 0.530266 0.621640
v 2.426010 -0.244834 -1.907390
v 2.544032 0.524778 -1.184692
v 3.360668 0.711183 -1.016485
v 3.025812 -0.470660 -1.551809
v 2.302373 0.713945 0.496120
v 3.180918 0.978593 -0.515274
v 3.754053 0.352776 -1.169998
v 3.922587 -0.206780 -1.188326
v 4.076037 0.544412 -0.500871
v 3.210220 0.804536 0.349086
v 3.815422 -0.102929 0.672045
v 3.821087 -0.872682 0.398644
v 4.166991 0.217002 0.253367
v 0.798511 -0.730037 -4.058125
v 1.744338 -1.054224 -3.556257
v 2.251426 -0.727667 -3.672899
v 1.022932 -1.282114 -2.737066
v 0.592560 -1.728434 -2.492477
v 2.201974 -0.826998 -2.382897
v 2.132209 -1.530039 -1.531277
v 1.057421 -1.902393 -1.460010
v 1.177605 -1.860100 -0.899094
v 1.366490 -1.584007 -0.206041
v 0.486897 -2.391485 -0.332147
v 2.499555 -0.768454 -1.832774
v 2.689358 -1.186385 -1.230928
v 2.513924 -1.333784 -0.723731
v 2.926933 -1.331534 0.187545
v 3.781776 -0.862631 -1.035830
v 3.415856 -1.332108 -0.435058
v 3.928566 -1.134000 -0.316844
v 4.320467 -0.473047 -0.353835
v 0.610301 -0.212561 1.834637
v 0.841536 -0.378781 1.729700
v 1.716771 0.631385 1.029947
v 1.738482 0.269810 1.662789
v 1.914493 -0.810475 1.889734
v 2.251275 0.096002 1.647750
v 2.874456 0.360794 0.928771
v 3.189236 -0.407171 1.024557
v 0.862675 -0.339999 4.023599
v 0.709898 -0.193409 4.554615
v 0.870054 -1.704307 0.453473
v 0.877333 -1.114339 1.493160
v 0.619929 -0.978678 1.866873
v 1.961730 -1.665504 0.940167
v 1.880855 -1.444454 1.459768
v 0.508681 -0.786429 2.912149
v 2.714179 -0.834131 1.398012
v 2.881393 -1.147663 0.881300
vn -0.8410 0.0633 -0.5373
vn -0.8737 -0.0450 -0.4845
vn -0.8753 -0.0455 -0.4813
vn -0.8756 -0.0456 -0.4809
vn -0.6399 0.5571 -0.5293
vn -0.5900 -0.0403 -0.8064
vn -0.5881 -0.0436 -0.8076
vn -0.5884 -0.0430 -0.8074
vn -0.2064 0.9323 -0.2970
vn -0.4576 0.5613 -0.6896
vn -0.5905 -0.0395 -0.8061
vn 0.1717 -0.0470 -0.9840
vn 0.0701 0.9693 0.2356
vn -0.4665 -0.4727 -0.7476
vn -0.5153 0.6918 -0.5058
vn 0.2859 0.7514 0.5947
vn -0.5761 0.5490 -0.6055
vn -0.1915 0.3528 0.9159
vn -0.8097 -0.5782 0.1009
vn -0.8851 -0.0622 0.4612
vn -0.4060 0.7992 0.4431
vn 0.5170 0.8314 0.2039
vn -0.1377 0.9569 -0.2558
vn 0.3464 0.8378 0.4221
vn 0.4479 0.8712 -0.2012
vn 0.4194 0.9068 0.0434
vn -0.4767 0.7535 -0.4529
vn -0.6741 0.6102 -0.4162
vn -0.9286 -0.3677 0.0498
vn -0.9201 -0.3451 -0.1854
vn -0.3152 -0.7990 -0.5120
vn -0.3562 -0.7521 -0.5546
vn -0.3144 -0.7863 -0.5319
vn -0.7643 -0.6279 0.1473
vn -0.6531 -0.7535 -0.0751
vn -0.6362 -0.4737 -0.6090
vn -0.3662 -0.8227 -0.4347
vn -0.8224 -0.5311 -0.2039
vn -0.5341 -0.5913 -0.6042
vn -0.8316 -0.3239 -0.4511
vn -0.5284 -0.8407 0.1186
vn -0.8891 0.0964 -0.4475
vn -0.9346 -0.1557 0.3198
vn -0.7965 -0.6016 -0.0596
vn -0.6192 -0.2830 0.7324
vn -0.6655 -0.3190 0.6748
vn -0.7685 0.6108 0.1904
vn -0.6109 0.3667 0.7016
vn -0.8589 0.4972 0.1230
vn -0.8813 0.0645 -0.4682
vn -0.8967 0.3991 -0.1914
vn -0.7895 0.4272 0.4407
vn -0.1512 0.9613 -0.2303
vn 0.1044 0.9451 0.3096
vn 0.1624 0.9567 -0.2417
vn 0.1424 0.9898 0.0060
vn 0.2564 0.7681 -0.5867
vn 0.5105 0.6758 -0.5317
vn -0.6674 0.6485 0.3661
vn 0.0676 0.2079 0.9758
vn -0.2658 0.4435 0.8560
vn 0.3338 0.8423 0.4231
vn 0.2291 0.3916 0.8912
vn 0.2533 0.3533 0.9005
vn -0.3152 0.8387 0.4442
vn -0.8808 0.4415 0.1713
vn -0.5994 0.2920 0.7453
vn -0.9263 -0.3587 -0.1150
vn 0.7873 0.6133 -0.0644
vn 0.4271 0.8834 0.1928
vn -0.8271 -0.4057 0.3890
vn -0.4762 -0.8759 -0.0780
vn -0.9176 -0.2707 0.2912
vn -0.7772 -0.4489 0.4409
vn -0.6243 -0.4892 0.6091
vn -0.6392 -0.7209 0.2678
vn 0.3293 -0.7846 0.5253
vn 0.3258 -0.7860 0.5254
vn 0.3294 -0.7846 0.5253
vn 0.8177 -0.5444 0.1872
vn -0.2715 -0.9264 0.2610
vn -0.2732 -0.9260 0.2605
vn -0.2653 -0.9277 0.2628
vn 0.4086 -0.9117 -0.0422
vn -0.0441 -0.7426 0.6683
vn -0.0668 -0.9978 0.0003
vn -0.4416 -0.4956 0.7479
vn 0.2582 -0.9567 0.1347
vn 0.0686 -0.7678 0.6370
vn -0.1999 -0.9728 -0.1173
vn 0.2986 -0.1632 0.9403
vn 0.1456 -0.6700 0.7279
vn 0.1823 -0.7977 0.5749
vn -0.5781 -0.5237 -0.6258
vn -0.4842 -0.6665 -0.5669
vn -0.6001 -0.3516 0.7185
vn -0.5412 -0.7991 -0.2620
vn 0.1513 -0.0019 -0.9885
vn 0.1351 0.9908 -0.0095
vn 0.4269 0.0344 -0.9036
vn 0.8632 0.3874 0.3238
vn 0.9402 -0.0028 0.3406
vn 0.9379 -0.0030 -0.3468
vn 0.1852 0.6961 -0.6936
vn 0.3454 0.6527 -0.6743
vn 0.1076 0.9922 -0.0623
vn 0.0883 0.9923 -0.0867
vn -0.0736 0.9894 0.1255
vn 0.0571 0.9848 -0.1638
vn 0.0764 0.4623 -0.8834
vn 0.5724 0.5130 -0.6397
vn 0.7976 0.3434 -0.4960
vn -0.0653 0.9778 0.1991
vn -0.0952 0.8637 -0.4949
vn 0.4091 0.8540 0.3214
vn 0.9727 0.2312 -0.0169
vn 0.4981 0.7402 -0.4517
vn 0.8361 0.2675 -0.4789
vn -0.0755 0.7174 0.6926
vn 0.5219 0.7336 0.4353
vn 0.3418 -0.6832 -0.6453
vn -0.1227 -0.9229 -0.3648
vn 0.5336 -0.8445 -0.0446
vn 0.5559 -0.7417 -0.3753
vn 0.3274 -0.9449 0.0011
vn 0.3212 -0.9066 0.2736
vn 0.7072 -0.6659 0.2375
vn 0.6317 -0.5290 -0.5666
vn 0.4394 -0.7101 -0.5502
vn 0.1718 -0.9839 -0.0501
vn 0.1785 -0.9808 -0.0785
vn 0.5453 -0.8365 -0.0545
vn 0.3594 -0.9315 0.0565
vn 0.8284 -0.4745 0.2977
vn 0.3790 -0.8759 0.2985
vn 0.3073 -0.9370 -0.1660
vn -0.1464 0.9892 -0.0076
vn -0.3513 0.5629 0.7481
vn -0.2899 0.9264 0.2404
vn 0.1032 0.2206 0.9699
vn 0.8660 0.4867 0.1148
vn 0.3727 0.2637 0.8897
vn 0.7867 -0.1539 0.5978
vn -0.2601 -0.3071 0.9155
vn -0.1533 -0.5491 0.8216
vn -0.1325 -0.9193 0.3705
vn 0.9375 -0.3105 0.1569
vn 0.4359 -0.5209 0.7339
vn 0.5161 -0.6480 0.5602
vn 0.8763 -0.3363 0.3450
vn 0.2094 0.7291 -0.6515
vn 0.1843 0.5963 -0.7813
vn 0.3077 -0.6200 -0.7218
vn 0.2927 -0.8542 -0.4297
vn 0.4461 -0.8277 -0.3403
vn 0.5461 -0.8334 -0.0851
vn -0.1616 0.9163 0.3665
vn 0.7415 0.6607 -0.1165
vn 0.6838 -0.6733 -0.2811
vn -0.5461 0.7222 -0.4245
vn -0.1628 0.9648 -0.2063
vn 0.8180 -0.1872 0.5439
vn -0.0982 -0.9943 0.0404
vn -0.8109 -0.5621 0.1630
vn -0.8713 -0.1469 -0.4682
vn -0.6207 -0.7119 -0.3286
vn -0.7367 -0.6648 0.1238
vn -0.3605 -0.7495 0.5552
vn 0.0869 -0.6030 -0.7930
vn 0.8133 -0.5816 -0.0136
vn 0.8558 -0.2134 -0.4712
vn 0.4940 -0.0543 -0.8678
vn 0.8848 -0.4472 0.1307
vn 0.9738 0.1496 0.1715
vn 0.5775 0.0690 0.8135
vn 0.1371 -0.5498 -0.8240
vn -0.9467 0.2453 -0.2090
vn -0.9656 -0.0077 -0.2598
vn -0.8734 -0.0450 -0.4849
vn -0.0871 0.9959 0.0250
vn -0.3616 0.2091 -0.9086
vn -0.0783 -0.0527 -0.9955
vn -0.2163 -0.4179 -0.8824
vn -0.2637 0.9309 -0.2528
vn 0.0851 0.9937 0.0734
vn -0.0496 0.9978 -0.0431
vn -0.5080 0.2154 -0.8340
vn -0.2995 0.8725 -0.3861
vn -0.7053 0.6162 -0.3504
vn -0.1579 0.9286 0.3358
vn -0.7930 0.5452 0.2719
vn -0.9552 0.1320 0.2648
vn 0.0813 0.9443 -0.3189
vn -0.1330 0.9635 -0.2323
vn 0.4527 0.8574 0.2450
vn 0.3912 0.8799 -0.2697
vn 0.3560 0.9200 0.1638
vn 0.1915 0.8937 0.4058
vn 0.0429 0.9510 -0.3061
vn -0.9543 -0.2854 -0.0884
vn -0.9220 -0.3175 -0.2217
vn -0.1905 -0.9552 -0.2263
vn -0.5271 -0.7149 -0.4594
vn -0.2134 -0.8319 -0.5123
vn -0.3912 -0.9196 -0.0373
vn 0.0654 -0.9917 0.1106
vn 0.1109 -0.9392 0.3251
vn -0.4253 -0.8927 -0.1488
vn -0.6688 -0.6712 -0.3198
vn -0.7352 -0.5914 -0.3313
vn -0.7662 -0.4985 -0.4056
vn -0.6662 -0.7060 -0.2404
vn -0.5396 0.7630 -0.3558
vn -0.9871 0.1266 0.0979
vn -0.8101 -0.5159 -0.2786
vn -0.2948 0.8430 0.4501
vn -0.5592 0.6629 0.4979
vn -0.7908 -0.1539 0.5924
vn -0.8096 0.5397 -0.2310
vn -0.9067 0.3212 0.2735
vn 0.0983 0.9839 0.1492
vn 0.4194 0.9072 0.0326
vn 0.6968 0.7006 0.1536
vn -0.5293 0.8399 0.1200
vn -0.6544 0.7539 0.0584
vn -0.2330 0.9701 -0.0672
vn 0.2635 0.9050 0.3339
vn 0.4131 0.7350 -0.5377
vn 0.6814 0.7176 -0.1443
vn 0.8186 0.5732 0.0355
vn -0.4614 0.8405 0.2841
vn 0.0521 0.8648 0.4995
vn -0.3906 0.9011 0.1883
vn 0.1894 0.2010 0.9611
vn 0.1206 0.8234 0.5545
vn -0.0749 0.9793 0.1881
vn 0.1569 0.8652 0.4762
vn 0.5609 0.3766 0.7373
vn -0.0171 0.9929 -0.1174
vn -0.9148 0.2770 -0.2940
vn 0.0928 0.9535 0.2868
vn 0.4712 0.8567 0.2098
vn 0.8969 0.3593 -0.2579
vn 0.5932 0.7995 -0.0943
vn -0.5948 -0.7993 0.0857
vn -0.8965 -0.4429 0.0116
vn -0.6508 -0.7516 0.1075
vn -0.6133 -0.4051 0.6781
vn -0.1647 -0.9549 0.2472
vn 0.0335 -0.8521 0.5224
vn -0.6083 -0.7148 0.3450
vn -0.8602 -0.4962 0.1177
vn 0.4633 -0.8327 0.3032
vn -0.2638 -0.9280 0.2632
vn 0.2692 -0.9489 0.1647
vn 0.2751 -0.9477 0.1619
vn 0.2678 -0.9492 0.1654
vn 0.2766 -0.9474 0.1612
vn 0.7495 -0.6042 0.2705
vn -0.1504 -0.8329 -0.5327
vn -0.0040 -0.9628 -0.2703
vn 0.2136 -0.9769 0.0054
vn 0.2142 -0.9768 0.0047
vn 0.2150 -0.9766 0.0039
vn 0.2164 -0.9763 0.0023
vn 0.4461 -0.3179 0.8366
vn 0.2546 -0.2280 0.9398
vn -0.3668 -0.8029 0.4700
vn -0.4255 -0.4975 0.7560
vn -0.1820 -0.9809 -0.0680
vn 0.1686 0.0385 -0.9849
vn 0.0048 0.9699 0.2434
vn 0.3796 0.9226 0.0693
vn 0.1263 0.9857 -0.1117
vn 0.7354 0.6496 -0.1926
vn 0.4811 0.7377 0.4738
vn 0.7378 0.5834 -0.3396
vn -0.1574 0.9202 0.3584
vn -0.0868 0.9934 0.0750
vn -0.2627 0.9648 -0.0088
vn 0.5412 0.8292 -0.1399
vn -0.1246 0.9496 -0.2876
vn 0.0642 0.3725 -0.9258
vn -0.1951 0.8880 -0.4164
vn -0.2921 0.9546 -0.0581
vn -0.3373 0.9402 -0.0470
vn 0.5282 0.8357 0.1504
vn 0.9098 0.1634 -0.3816
vn 0.4195 0.8548 -0.3056
vn 0.3386 0.1325 -0.9316
vn 0.1317 0.7909 0.5976
vn -0.2065 0.8332 0.5130
vn 0.8860 0.4311 0.1709
vn 0.2064 -0.5974 -0.7749
vn 0.1751 -0.7341 -0.6560
vn 0.1836 -0.8955 -0.4054
vn 0.3477 -0.9365 0.0457
vn 0.2707 -0.8630 -0.4265
vn 0.4821 -0.8511 0.2077
vn 0.6135 -0.5447 -0.5717
vn 0.7744 -0.5176 -0.3638
vn 0.1425 -0.9595 -0.2431
vn 0.5761 -0.8150 -0.0620
vn 0.2610 -0.8935 0.3655
vn 0.7975 -0.4924 -0.3487
vn 0.4089 -0.8231 -0.3941
vn 0.2942 -0.5027 -0.8129
vn 0.0012 -1.0000 0.0019
vn 0.1739 -0.8245 -0.5384
vn 0.6468 0.6717 0.3613
vn -0.2412 0.8390 0.4877
vn 0.2974 0.8337 0.4652
vn 0.3023 0.8341 0.4613
vn 0.3027 0.8342 0.4610
vn 0.1768 0.8640 0.4714
vn 0.2962 0.8336 0.4661
vn 0.6411 0.3481 0.6839
vn 0.9273 0.1344 -0.3493
vn 0.8899 0.3730 -0.2626
vn -0.2601 -0.8390 0.4779
vn 0.7626 -0.4133 0.4976
vn 0.4679 -0.7847 0.4066
vn 0.9094 -0.3948 -0.1311
vn 0.8812 -0.4073 0.2398
vn 0.5075 -0.3622 0.7818
vn 0.1821 -0.0235 -0.9830
vn 0.0558 -0.8398 -0.5400
vn 0.3672 0.8017 0.4717
vn 0.8009 0.5967 0.0491
vn 0.6530 0.6931 0.3053
vn 0.6385 0.6962 0.3281
vn 0.2513 -0.8426 0.4764
vn 0.2512 -0.8425 0.4765
vn 0.2506 -0.8421 0.4776
vn 0.3298 -0.7844 0.5253
vn 0.2503 -0.8419 0.4780
vn 0.7675 -0.6397 -0.0423
vn 0.6611 -0.2311 0.7138
vn 0.3449 0.7287 0.5917
vn 0.0210 0.7880 0.6154
vn 0.4266 0.5818 0.6925
vn 0.4459 0.4901 0.7490
vn 0.4869 -0.8359 0.2535
vn 0.3917 -0.8827 0.2597
vn -0.4542 -0.5550 -0.6969
vn 0.6592 -0.2564 -0.7069
vn 0.4317 -0.2912 -0.8537
vn 0.8624 -0.2125 0.4595
vn 0.8246 -0.2900 -0.4857
vn 0.8758 0.0547 -0.4796
vn -0.0677 0.1945 0.9786
vn 0.6477 0.6454 0.4048
vn 0.5242 0.0324 0.8510
vn 0.5689 -0.2715 0.7763
s 1
f 25//1 5//1 24//1
f 5//2 4//3 6//4
f 50//5 3//5 5//5
f 7//6 8//7 14//8
f 9//9 11//9 10//9
f 13//10 10//10 7//10
f 7//6 14//8 13//11
f 20//12 18//12 19//12
f 11//13 108//13 22//13
f 35//14 14//14 8//14
f 9//15 10//15 13//15
f 29//16 108//16 12//16
f 10//17 17//17 7//17
f 1//18 9//18 16//18
f 39//19 25//19 2//19
f 2//20 24//20 1//20
f 24//21 23//21 9//21
f 26//22 31//22 27//22
f 26//23 27//23 3//23
f 12//24 30//24 29//24
f 28//25 27//25 30//25
f 27//26 32//26 118//26
f 23//27 24//27 3//27
f 5//28 3//28 24//28
f 15//29 2//29 1//29
f 33//30 52//30 4//30
f 36//31 15//31 35//31
f 37//32 36//32 38//32
f 37//33 15//33 36//33
f 39//34 40//34 25//34
f 40//35 39//35 41//35
f 33//36 25//36 40//36
f 46//37 37//37 38//37
f 42//38 40//38 41//38
f 40//39 44//39 33//39
f 25//40 33//40 4//40
f 37//41 39//41 15//41
f 6//42 50//42 5//42
f 6//43 51//43 47//43
f 52//44 51//44 6//44
f 55//45 56//45 66//45
f 56//46 55//46 51//46
f 50//47 47//47 49//47
f 55//48 54//48 47//48
f 58//49 59//49 66//49
f 57//50 61//50 58//50
f 61//51 60//51 58//51
f 63//52 62//52 60//52
f 53//53 67//53 65//53
f 69//54 70//54 32//54
f 64//55 70//55 69//55
f 49//56 53//56 65//56
f 67//57 71//57 64//57
f 72//58 73//58 67//58
f 66//59 75//59 76//59
f 80//60 81//60 78//60
f 79//61 78//61 62//61
f 77//62 84//62 82//62
f 105//63 84//63 81//63
f 84//64 78//64 81//64
f 60//65 78//65 75//65
f 66//66 54//66 55//66
f 79//67 62//67 63//67
f 57//68 58//68 56//68
f 82//69 73//69 72//69
f 77//70 72//70 67//70
f 52//71 34//71 85//71
f 86//72 100//72 88//72
f 61//73 88//73 63//73
f 34//74 89//74 85//74
f 85//75 90//75 68//75
f 43//76 89//76 34//76
f 95//77 92//78 145//79
f 169//80 96//80 166//80
f 94//81 90//82 91//83
f 91//84 95//84 96//84
f 89//85 91//85 90//85
f 100//86 87//86 99//86
f 100//87 80//87 79//87
f 103//88 99//88 102//88
f 103//89 104//89 99//89
f 101//90 99//90 98//90
f 104//91 81//91 80//91
f 104//92 80//92 100//92
f 99//93 104//93 100//93
f 93//94 86//94 57//94
f 87//95 86//95 93//95
f 88//96 79//96 63//96
f 98//97 93//97 94//97
f 20//98 111//98 18//98
f 22//99 109//99 107//99
f 110//100 111//100 106//100
f 115//101 113//101 112//101
f 114//102 113//102 115//102
f 114//103 110//103 113//103
f 107//104 106//104 21//104
f 107//105 110//105 106//105
f 116//106 119//106 117//106
f 32//107 121//107 120//107
f 120//108 119//108 118//108
f 32//109 120//109 118//109
f 123//110 124//110 128//110
f 123//111 125//111 122//111
f 123//112 122//112 115//112
f 126//113 131//113 127//113
f 127//114 124//114 123//114
f 127//115 134//115 130//115
f 134//116 153//116 130//116
f 128//117 124//117 130//117
f 129//118 128//118 130//118
f 108//119 29//119 109//119
f 117//120 115//120 109//120
f 138//121 139//121 38//121
f 138//122 135//122 136//122
f 137//123 140//123 136//123
f 138//124 142//124 139//124
f 143//125 142//125 141//125
f 144//126 143//126 148//126
f 164//127 145//127 143//127
f 147//128 141//128 146//128
f 140//129 141//129 138//129
f 149//130 164//130 144//130
f 149//131 144//131 148//131
f 147//132 148//132 141//132
f 148//133 143//133 141//133
f 152//134 153//134 133//134
f 149//135 151//135 133//135
f 150//136 148//136 147//136
f 156//137 126//137 121//137
f 155//138 157//138 70//138
f 70//139 156//139 121//139
f 157//140 158//140 159//140
f 163//141 162//141 83//141
f 161//142 132//142 160//142
f 165//143 155//143 166//143
f 165//144 158//144 155//144
f 168//145 158//145 165//145
f 168//146 164//146 167//146
f 169//147 166//147 155//147
f 168//148 170//148 158//148
f 171//149 170//149 168//149
f 103//150 162//150 163//150
f 17//151 21//151 106//151
f 106//152 19//152 17//152
f 138//153 38//153 36//153
f 139//154 46//154 38//154
f 139//155 142//155 46//155
f 145//156 46//156 142//156
f 32//157 70//157 121//157
f 73//158 154//158 71//158
f 169//159 102//159 97//159
f 50//160 48//160 3//160
f 121//161 126//161 120//161
f 132//162 133//162 134//162
f 45//163 92//163 43//163
f 15//164 39//164 2//164
f 57//165 86//165 61//165
f 93//166 57//166 56//166
f 68//167 93//167 56//167
f 51//168 68//168 56//168
f 111//169 135//169 18//169
f 140//170 137//170 114//170
f 114//171 137//171 110//171
f 125//172 146//172 122//172
f 122//173 140//173 114//173
f 74//174 169//174 154//174
f 170//175 161//175 159//175
f 18//176 135//176 35//176
f 16//177 13//177 1//177
f 13//178 14//178 1//178
f 25//179 4//3 5//2
f 9//180 12//180 11//180
f 19//181 8//181 17//181
f 8//182 19//182 18//182
f 35//183 8//183 18//183
f 21//184 10//184 11//184
f 11//185 12//185 108//185
f 21//186 11//186 22//186
f 17//187 8//187 7//187
f 17//188 10//188 21//188
f 9//189 13//189 16//189
f 9//190 23//190 12//190
f 1//191 24//191 9//191
f 2//192 25//192 24//192
f 3//193 48//193 26//193
f 3//194 27//194 23//194
f 12//195 28//195 30//195
f 27//196 118//196 30//196
f 27//197 31//197 32//197
f 23//198 28//198 12//198
f 28//199 23//199 27//199
f 15//200 1//200 14//200
f 33//201 34//201 52//201
f 45//202 43//202 44//202
f 44//203 43//203 33//203
f 46//204 42//204 37//204
f 46//205 45//205 44//205
f 145//206 92//206 45//206
f 46//207 145//207 45//207
f 46//208 44//208 42//208
f 33//209 43//209 34//209
f 37//210 42//210 41//210
f 42//211 44//211 40//211
f 37//212 41//212 39//212
f 48//213 50//213 49//213
f 50//214 6//214 47//214
f 52//215 6//215 4//215
f 49//216 54//216 53//216
f 47//217 54//217 49//217
f 47//218 51//218 55//218
f 58//219 60//219 59//219
f 61//220 63//220 60//220
f 26//221 49//221 65//221
f 26//222 65//222 31//222
f 31//223 65//223 64//223
f 53//224 54//224 66//224
f 53//225 66//225 76//225
f 53//226 76//226 67//226
f 64//227 71//227 70//227
f 65//228 67//228 64//228
f 67//229 73//229 71//229
f 64//230 69//230 31//230
f 66//231 59//231 75//231
f 76//232 75//232 77//232
f 59//233 60//233 75//233
f 80//234 78//234 79//234
f 75//235 84//235 77//235
f 60//236 62//236 78//236
f 75//237 78//237 84//237
f 84//238 105//238 163//238
f 48//239 49//239 26//239
f 66//240 56//240 58//240
f 76//241 77//241 67//241
f 72//242 77//242 82//242
f 83//243 74//243 73//243
f 73//244 82//244 83//244
f 52//245 85//245 51//245
f 61//246 86//246 88//246
f 86//247 87//247 100//247
f 85//248 89//248 90//248
f 43//249 92//249 89//249
f 92//250 91//250 89//250
f 90//251 94//251 93//251
f 68//252 90//252 93//252
f 95//253 91//253 92//253
f 91//83 101//254 94//81
f 97//255 91//256 96//257
f 91//256 97//255 101//258
f 97//259 96//259 169//259
f 98//260 87//260 93//260
f 99//261 87//261 98//261
f 97//262 102//263 101//264
f 102//263 99//265 101//264
f 103//266 105//266 104//266
f 104//267 105//267 81//267
f 85//268 68//268 51//268
f 88//269 100//269 79//269
f 94//270 101//270 98//270
f 20//271 106//271 111//271
f 22//272 108//272 109//272
f 109//273 112//273 107//273
f 21//274 22//274 107//274
f 107//275 113//275 110//275
f 109//276 115//276 112//276
f 112//277 113//277 107//277
f 30//278 116//278 29//278
f 116//279 118//279 119//279
f 30//280 118//280 116//280
f 119//281 115//281 117//281
f 115//282 119//282 123//282
f 123//283 128//283 125//283
f 123//284 119//284 127//284
f 119//285 120//285 126//285
f 119//286 126//286 127//286
f 127//287 131//287 134//287
f 153//288 129//288 130//288
f 127//289 130//289 124//289
f 125//290 128//290 129//290
f 109//291 116//291 117//291
f 29//292 116//292 109//292
f 115//293 122//293 114//293
f 135//294 137//294 136//294
f 111//295 137//295 135//295
f 135//296 138//296 36//296
f 140//297 138//297 136//297
f 138//298 141//298 142//298
f 144//299 164//299 143//299
f 125//300 147//300 146//300
f 140//301 146//301 141//301
f 149//302 167//302 164//302
f 143//303 145//303 142//303
f 152//304 133//304 151//304
f 150//305 153//305 152//305
f 150//306 152//306 151//306
f 147//307 125//307 150//307
f 151//308 149//308 148//308
f 150//309 151//309 148//309
f 70//310 154//310 155//310
f 70//311 157//311 156//311
f 156//312 159//313 126//314
f 159//315 160//315 126//315
f 156//312 157//316 159//313
f 159//317 161//317 160//317
f 162//318 169//318 74//318
f 83//319 162//319 74//319
f 168//320 165//320 164//320
f 161//321 170//321 171//321
f 171//322 168//322 167//322
f 162//323 102//323 169//323
f 162//324 103//324 102//324
f 133//325 161//325 171//325
f 106//326 20//326 19//326
f 135//327 36//327 35//327
f 71//328 154//328 70//328
f 74//329 154//329 73//329
f 82//330 84//330 163//330
f 82//331 163//331 83//331
f 164//332 165//333 95//334
f 164//335 95//77 145//79
f 165//333 166//336 95//334
f 166//337 96//337 95//337
f 103//338 163//338 105//338
f 31//339 69//339 32//339
f 126//340 160//340 131//340
f 131//341 160//341 134//341
f 134//342 160//342 132//342
f 149//343 171//343 167//343
f 133//344 171//344 149//344
f 14//345 35//345 15//345
f 111//346 110//346 137//346
f 125//347 129//347 150//347
f 134//348 133//348 153//348
f 153//349 150//349 129//349
f 122//350 146//350 140//350
f 158//351 157//351 155//351
f 169//352 155//352 154//352
f 158//353 170//353 159//353
f 161//354 133//354 132//354
