# Blender 4.4.3
# www.blender.org
mtllib Cloud 1.mtl
o Cloud_1
v -20.169685 -4.301166 20.813374
v -16.338556 -2.309386 27.615578
v 0.879171 0.057442 42.433048
v -9.474822 0.734482 29.829638
v -6.128908 -6.015212 34.559830
v -4.404418 1.387757 34.129726
v -10.284889 -6.801977 28.685493
v -4.380456 -11.618813 30.780979
v -19.496298 -0.055359 23.497456
v -16.655756 -8.203444 22.239479
v -14.347153 -4.003445 10.465707
v -18.681034 0.196337 16.669029
v -11.414104 -9.735301 18.515610
v -13.265784 -8.841329 14.118938
v -8.382058 -9.155809 25.054560
v -5.313098 -12.915511 12.305372
v -9.595977 -11.717660 7.681343
v -9.738467 -5.469131 2.296509
v -4.265387 -8.124965 0.742162
v -10.154764 -0.996574 4.571025
v -14.704664 3.314013 26.919477
v -5.957822 3.617980 27.103104
v -17.210714 4.891326 21.724234
v -11.481564 7.238708 20.817480
v -15.360201 4.868136 16.873512
v -4.103448 4.534494 20.788826
v -10.758958 1.858444 10.598083
v -7.044556 4.040470 12.671289
v -5.316924 5.104077 4.042179
v -26.757309 -7.471651 -8.386869
v -25.813873 -2.619506 -6.541140
v -28.744404 -8.257173 -13.910089
v -29.640772 -3.308250 -10.413433
v -26.201504 -5.943023 -24.811361
v -30.425676 -1.348777 -14.174063
v -25.192602 0.252214 -22.592201
v -16.559652 -7.456174 -3.441714
v -15.796133 -2.753921 -0.043876
v -13.563074 -13.447707 -23.187298
v -23.568525 -10.726532 -10.544459
v -22.069443 -12.285567 -21.129181
v -13.822992 -9.910457 -12.429626
v -11.257007 0.252105 1.564583
v -14.599426 -9.498833 -6.236297
v -4.816457 -9.111840 -17.354343
v -17.699276 -11.382400 -30.220469
v -23.222414 -10.258448 -28.719509
v -22.103779 -2.526226 -31.246119
v -15.094972 -0.680397 -31.916315
v -7.602876 -7.070052 -28.591883
v -12.552028 -4.643643 -32.728031
v -8.633258 -0.682078 -38.121029
v -6.558573 -5.432176 -35.459927
v 2.962149 -4.265197 -39.417686
v -26.064060 2.859658 -9.882627
v -24.353382 4.717690 -13.834797
v -21.374535 0.254314 -4.693439
v -15.291569 5.714322 -4.798390
v -9.235815 6.528775 -11.273896
v -16.133247 4.992192 -20.996855
v -8.996541 6.691353 -4.098195
v -2.028952 13.472475 -7.228842
v -6.360104 10.743310 -18.666920
v 0.144877 10.608191 -15.044024
v -6.977144 9.347305 -30.802685
v -15.241742 3.458003 -28.606359
v -10.508995 7.230793 -34.339558
v -3.688478 3.806264 -39.416634
v 2.502965 -5.339320 42.785706
v 7.870272 -2.844524 44.726933
v 6.602020 -7.961147 41.799339
v 10.669616 -13.244439 30.565300
v 15.658838 -3.122857 40.392570
v 23.679295 -2.229348 37.149284
v 17.021578 -11.835003 27.178303
v 20.935307 -8.245810 36.631702
v 23.383537 -8.133019 31.325457
v 8.272121 -14.755496 24.319799
v 11.964184 -13.187028 21.252964
v 1.330905 -10.290524 17.363039
v 9.299956 -7.847828 14.996609
v -2.064973 -12.435915 8.914691
v 0.619666 -8.555827 2.769910
v 6.750015 -5.952040 2.897389
v 13.194824 -2.394539 18.710110
v 20.584175 -7.430055 25.272156
v 23.122358 -2.751807 25.913204
v 18.209167 0.307954 23.394741
v 9.973081 -4.190089 8.342174
v 15.096785 2.453722 6.768965
v 16.478319 -8.238826 2.043213
v 14.689143 -3.861395 5.348701
v 21.868666 -3.438646 1.223972
v 25.333691 -0.186465 31.182076
v 5.911685 1.495285 44.081039
v 2.498351 4.377810 40.719856
v 5.407880 6.586246 37.397831
v 1.332826 4.961409 29.401054
v 4.696502 7.155696 19.771008
v 9.611684 3.921541 27.473003
v 8.684875 4.065239 41.697483
v 20.010275 4.882976 33.758682
v 20.248962 1.799134 37.617851
v 11.740707 5.165492 33.448528
v 20.032839 4.269422 27.079294
v 3.898151 7.769914 11.094350
v 8.239016 11.602998 5.645581
v 12.960962 2.140767 22.921688
v 9.160563 4.413990 12.789194
v 11.120241 0.342366 11.807842
v 13.314431 9.029553 5.792879
v 21.558113 2.381529 -0.587701
v -2.032823 -11.479878 -8.267010
v 0.958046 -9.685304 -13.270953
v 6.429935 -6.000545 -7.640044
v 10.488861 -6.973832 -13.983876
v 15.249563 -6.355254 -18.586802
v 14.666330 -10.461704 -3.481368
v 20.778162 -8.298952 -4.560687
v 17.890274 -3.580850 -17.543207
v 19.075657 1.021370 -19.069000
v -1.613446 -6.657806 -25.995455
v 6.804056 -8.865415 -21.767519
v 10.237891 -9.247969 -30.292095
v 3.488055 -7.243169 -36.061581
v 8.457640 -3.191509 -38.012192
v 13.465056 -10.485433 -25.682550
v 17.629580 -6.689041 -31.533894
v 18.986969 -7.607264 -24.361578
v 21.067747 -2.854433 -26.015137
v 18.701157 -1.073596 -31.893103
v 23.075821 -0.167204 -5.245201
v 8.207812 10.348123 -11.447374
v 7.635701 12.253606 -1.561139
v 2.711875 13.361731 -10.175986
v 16.475323 7.304749 -3.356915
v 16.848242 8.739288 -14.670723
v 16.028839 5.005040 -20.451740
v 0.233846 8.431199 -26.684248
v 7.419457 5.574551 -22.187641
v 0.637363 8.799246 -34.068588
v 10.498554 6.362184 -30.574415
v 5.025649 6.074390 -37.753212
v 6.393292 1.626160 -39.660339
v 18.387512 4.282230 -28.443939
vn -0.2571 -0.1180 0.9592
vn -0.8164 0.0001 0.5775
vn -0.5269 -0.5571 0.6419
vn -0.6750 -0.1560 0.7211
vn -0.6198 -0.6928 -0.3687
vn 0.0027 -0.8890 0.4579
vn -0.4708 -0.5821 -0.6630
vn -0.0083 -0.8854 -0.4648
vn -0.4212 -0.8929 0.1588
vn -0.8058 -0.4609 -0.3719
vn -0.1677 -0.9721 0.1639
vn -0.3181 -0.9463 -0.0584
vn -0.8575 -0.1652 -0.4873
vn -0.7158 -0.4492 0.5347
vn -0.2470 -0.8671 0.4326
vn -0.7078 0.5043 0.4946
vn -0.9162 0.3893 -0.0950
vn 0.3380 0.9240 -0.1787
vn -0.5998 0.4552 -0.6581
vn -0.2914 0.8672 0.4038
vn -0.3955 0.9053 -0.1552
vn -0.0624 0.8813 -0.4684
vn -0.6104 0.3892 -0.6899
vn -0.9336 -0.2375 -0.2682
vn -0.3041 -0.7151 0.6294
vn -0.5191 0.2835 0.8063
vn -0.4909 -0.4565 0.7421
vn -0.4883 -0.4576 0.7430
vn -0.4881 -0.4577 0.7431
vn 0.1131 -0.9805 0.1604
vn -0.2089 -0.8535 0.4774
vn -0.2316 -0.8007 0.5526
vn -0.0447 -0.9700 -0.2391
vn 0.2498 -0.9181 0.3079
vn -0.4912 -0.4564 0.7419
vn 0.0982 -0.9921 0.0782
vn -0.1481 -0.9878 0.0471
vn -0.8319 -0.5546 -0.0217
vn -0.1260 0.1208 -0.9846
vn -0.3017 -0.2564 -0.9183
vn -0.1948 -0.2079 -0.9586
vn -0.8262 -0.0634 -0.5598
vn -0.2601 -0.5559 -0.7895
vn 0.3576 -0.5531 -0.7524
vn -0.5668 -0.7623 0.3123
vn -0.7097 -0.6370 -0.3008
vn -0.8345 0.3012 -0.4615
vn -0.4505 0.5159 0.7286
vn -0.1048 0.9911 -0.0823
vn -0.6725 0.6076 0.4225
vn -0.2151 0.8821 0.4192
vn -0.3615 0.8942 0.2639
vn -0.1515 0.9883 -0.0173
vn -0.6958 0.7182 0.0069
vn -0.2317 0.6026 -0.7637
vn -0.6044 0.7643 -0.2249
vn -0.6816 0.1777 -0.7099
vn -0.1163 0.8991 -0.4220
vn -0.0920 0.7639 -0.6388
vn -0.4763 0.2846 -0.8319
vn -0.4770 0.8006 -0.3625
vn -0.2213 0.9506 -0.2176
vn -0.4925 0.8671 -0.0747
vn -0.3250 -0.0360 0.9450
vn -0.3351 -0.7422 0.5804
vn -0.0946 -0.4766 0.8740
vn 0.3144 -0.3297 0.8902
vn 0.1502 -0.8726 0.4648
vn 0.0720 -0.8052 -0.5886
vn 0.2986 -0.9421 0.1528
vn 0.3689 -0.8502 -0.3757
vn 0.6307 -0.6754 -0.3821
vn 0.6352 -0.6757 -0.3742
vn 0.6299 -0.6754 -0.3835
vn 0.7696 -0.4992 0.3982
vn -0.0774 -0.6208 0.7802
vn 0.7576 -0.6013 -0.2539
vn 0.9557 -0.0171 -0.2940
vn 0.9319 -0.2337 -0.2773
vn 0.3374 -0.9385 -0.0738
vn -0.7069 0.4733 0.5256
vn -0.0728 0.7193 0.6908
vn -0.3925 0.4624 0.7951
vn -0.0406 0.8481 0.5282
vn 0.0751 0.9706 -0.2288
vn 0.0746 0.9706 -0.2290
vn 0.0745 0.9706 -0.2290
vn 0.3474 0.7429 0.5722
vn -0.0399 0.9810 -0.1900
vn 0.0374 0.9951 -0.0913
vn 0.0285 0.9894 0.1425
vn 0.3593 0.8983 0.2529
vn -0.2743 0.9571 0.0930
vn 0.5352 0.8446 0.0105
vn 0.8889 0.4493 -0.0890
vn 0.2925 0.6588 -0.6932
vn 0.9129 0.3021 -0.2746
vn 0.3292 0.6865 0.6484
vn 0.7662 0.2236 0.6024
vn 0.6904 0.2858 0.6646
vn 0.5197 0.8544 -0.0032
vn 0.7266 0.5627 0.3941
vn 0.1833 0.9427 0.2788
vn -0.0503 0.6925 -0.7197
vn 0.5422 -0.8400 0.0228
vn 0.2813 -0.9051 0.3189
vn 0.2552 -0.9633 0.0826
vn 0.2813 -0.9455 0.1638
vn -0.1733 -0.8927 0.4160
vn 0.6380 -0.6446 0.4213
vn 0.8870 -0.3341 -0.3187
vn 0.5445 -0.6949 0.4697
vn -0.4202 -0.8979 -0.1311
vn -0.4835 -0.8752 0.0187
vn 0.2484 -0.8913 -0.3792
vn -0.2433 -0.9659 -0.0889
vn 0.8876 -0.1960 -0.4168
vn 0.8627 -0.4547 -0.2215
vn 0.5300 -0.1545 -0.8338
vn 0.1567 -0.7592 -0.6317
vn 0.5302 -0.6900 0.4927
vn 0.0750 -0.8699 0.4875
vn 0.0757 0.9935 0.0845
vn 0.0764 0.9936 0.0835
vn 0.0759 0.9935 0.0843
vn 0.8338 0.5513 -0.0300
vn 0.0181 0.9132 -0.4072
vn 0.2281 0.9649 0.1299
vn -0.2211 0.8942 -0.3892
vn 0.2192 0.9738 0.0605
vn 0.7548 0.6347 0.1654
vn 0.5447 0.4764 -0.6902
vn 0.5434 0.4686 -0.6965
vn 0.5444 0.4746 -0.6917
vn 0.2578 0.9661 -0.0113
vn 0.0437 0.9931 0.1093
vn 0.5430 0.4664 -0.6983
vn -0.5376 -0.5803 0.6118
vn -0.3177 -0.9098 -0.2670
vn 0.1270 -0.8628 -0.4893
vn -0.3150 0.9475 0.0550
vn -0.3150 0.9475 0.0551
vn -0.3148 0.9475 0.0564
vn -0.3152 0.9475 0.0537
vn -0.2789 0.9586 0.0572
vn -0.2053 -0.9327 0.2965
vn -0.0208 -0.9937 -0.1102
vn -0.1734 -0.7500 -0.6383
vn -0.1408 -0.9580 -0.2499
vn -0.0956 -0.9477 -0.3046
vn 0.0950 0.9940 0.0547
vn 0.7207 0.2889 0.6302
vn 0.4508 0.8916 0.0427
vn -0.3875 0.2233 0.8944
vn -0.8055 0.5002 -0.3177
vn -0.6966 0.3501 0.6262
vn -0.6640 -0.2845 -0.6915
vn -0.3114 0.0009 0.9503
vn 0.3496 0.1910 0.9172
vn 0.3577 0.1827 0.9158
vn 0.3511 0.1895 0.9170
vn 0.3586 0.1817 0.9156
vn 0.7488 0.4153 -0.5165
vn 0.2795 -0.2014 -0.9388
vn 0.9227 0.2454 -0.2972
vn 0.5219 -0.0673 -0.8504
vn 0.9615 0.1272 0.2437
vn 0.9322 -0.1278 0.3387
vn -0.5253 0.7494 0.4031
vn -0.8067 0.2198 0.5485
vn -0.6551 -0.7428 0.1383
vn -0.6489 0.1939 0.7357
vn -0.6414 -0.5564 0.5283
vn -0.9692 0.2217 -0.1075
vn -0.4541 -0.8909 0.0101
vn -0.0339 -0.9940 0.1038
vn -0.0611 -0.9785 -0.1969
vn -0.8767 -0.3254 -0.3544
vn -0.8426 0.1797 -0.5076
vn -0.8448 -0.4297 -0.3189
vn -0.8274 -0.2005 0.5247
vn -0.0395 0.7115 0.7016
vn -0.4109 0.8388 0.3571
vn -0.7720 0.5618 -0.2972
vn -0.5083 0.8612 0.0044
vn -0.2406 0.8518 -0.4654
vn -0.0406 0.8500 0.5253
vn 0.3356 0.9132 0.2311
vn -0.9692 -0.2328 0.0810
vn -0.8398 -0.4064 0.3599
vn -0.6927 -0.1348 0.7085
vn -0.1350 -0.8427 0.5212
vn -0.4222 -0.2494 0.8715
vn -0.4636 -0.8837 0.0645
vn -0.0545 -0.9489 0.3107
vn -0.0955 -0.9404 0.3265
vn -0.3497 0.0270 0.9365
vn -0.1759 -0.9677 -0.1807
vn -0.2503 -0.9442 -0.2141
vn -0.8698 0.2857 -0.4022
vn 0.1594 -0.9636 -0.2146
vn 0.5703 -0.7716 -0.2816
vn -0.2414 -0.9350 -0.2597
vn -0.4008 -0.5748 -0.7134
vn 0.4097 -0.7816 -0.4704
vn -0.7073 0.7065 0.0260
vn -0.6693 0.6859 -0.2856
vn -0.4720 0.5393 0.6974
vn -0.1209 0.9926 0.0118
vn -0.1847 0.6848 0.7050
vn -0.5456 0.7412 0.3911
vn -0.4982 0.7601 -0.4172
vn -0.5347 0.8066 0.2518
vn -0.4986 0.7576 -0.4212
vn -0.5657 0.8213 0.0735
vn -0.8229 0.3368 -0.4576
vn -0.0930 -0.9135 0.3960
vn -0.0996 -0.9577 0.2699
vn 0.3985 -0.5279 0.7500
vn 0.3868 -0.2527 0.8869
vn 0.2775 -0.9527 0.1240
vn 0.3614 -0.9207 0.1472
vn 0.6361 -0.6757 -0.3726
vn 0.3448 -0.8982 0.2728
vn -0.1645 -0.7838 -0.5989
vn 0.4684 -0.8524 -0.2323
vn 0.5703 0.2803 -0.7721
vn 0.6080 -0.4572 -0.6491
vn 0.5855 0.1270 -0.8007
vn 0.6556 -0.2585 -0.7095
vn 0.5338 -0.2182 0.8170
vn 0.4744 -0.3988 0.7848
vn 0.1922 -0.9613 0.1973
vn 0.3136 -0.9463 0.0792
vn 0.8545 -0.4869 -0.1812
vn 0.9551 -0.2310 0.1857
vn 0.8310 -0.4112 0.3747
vn 0.8192 -0.3864 -0.4237
vn -0.4851 0.8716 0.0701
vn 0.0679 0.9704 -0.2318
vn 0.4297 0.3196 0.8445
vn -0.4983 0.8567 0.1332
vn 0.2293 0.7007 0.6756
vn 0.7184 0.5644 0.4066
vn 0.6713 0.7383 -0.0655
vn 0.3368 0.9342 -0.1176
vn 0.5080 0.8605 0.0371
vn 0.5984 0.3804 -0.7052
vn 0.5362 -0.8389 0.0934
vn 0.3615 -0.9000 0.2436
vn 0.2243 -0.8947 -0.3863
vn -0.2457 -0.9692 -0.0169
vn 0.3030 -0.6888 -0.6586
vn 0.3280 -0.7050 -0.6287
vn 0.2380 -0.8834 -0.4038
vn 0.4902 -0.8480 -0.2013
vn 0.9624 -0.2682 0.0439
vn 0.9146 -0.2828 -0.2890
vn 0.9048 -0.2866 0.3148
vn 0.3441 -0.8465 0.4062
vn 0.4608 0.8761 -0.1422
vn 0.4500 0.8814 -0.1438
vn 0.4516 0.8806 -0.1436
vn 0.0765 0.9936 0.0833
vn 0.2838 0.7627 -0.5811
vn 0.2115 0.8873 -0.4099
vn 0.6669 0.7396 0.0909
vn 0.6577 0.7443 0.1161
vn 0.1653 0.8176 -0.5516
vn 0.8942 0.3866 -0.2255
vn 0.7878 0.4605 -0.4091
vn 0.4614 0.8757 -0.1421
vn 0.2610 0.9475 0.1848
vn 0.0668 0.4104 -0.9094
vn 0.3140 0.9085 -0.2758
vn 0.3161 0.9073 -0.2774
vn 0.3213 0.9042 -0.2812
vn 0.3234 0.9031 -0.2827
vn 0.4499 0.8785 -0.1609
vn -0.3207 -0.9307 -0.1762
vn -0.2225 0.9645 0.1421
vn -0.2743 0.8975 0.3455
vn 0.1035 -0.9543 -0.2804
vn -0.0822 -0.9374 0.3384
vn -0.1832 -0.9752 -0.1245
vn 0.1933 0.9736 -0.1218
vn -0.0736 0.7580 -0.6481
vn 0.1214 0.9759 -0.1816
vn -0.9421 -0.2174 0.2551
vn 0.3911 -0.9203 -0.0076
vn -0.3068 0.8761 0.3719
vn 0.4892 0.8722 0.0046
vn -0.6808 0.2815 0.6762
vn -0.7503 0.5652 -0.3430
vn -0.8089 0.4350 0.3955
vn -0.4981 0.3212 0.8054
vn -0.5641 0.4110 0.7161
vn 0.4711 0.3070 0.8269
vn 0.4956 -0.2209 0.8400
vn -0.0294 -0.0241 -0.9993
vn 0.9275 0.3688 0.0602
vn -0.6662 0.5700 0.4810
vn 0.7309 0.2381 0.6396
vn -0.1472 -0.1212 -0.9817
s 1
f 7//1 4//1 2//1
f 4//2 7//2 5//2
f 10//3 7//3 2//3
f 3//4 5//4 69//4
f 1//5 11//5 10//5
f 16//6 80//6 13//6
f 18//7 19//7 17//7
f 17//8 19//8 82//8
f 14//9 17//9 16//9
f 11//10 18//10 14//10
f 10//11 13//11 15//11
f 10//12 14//12 13//12
f 12//13 11//13 1//13
f 1//14 10//14 2//14
f 10//15 15//15 7//15
f 21//16 23//16 9//16
f 9//17 23//17 12//17
f 24//18 26//18 28//18
f 25//19 27//19 12//19
f 21//20 24//20 23//20
f 24//21 25//21 23//21
f 24//22 27//22 25//22
f 27//23 11//23 12//23
f 35//24 34//24 32//24
f 30//25 40//25 37//25
f 31//26 38//26 57//26
f 37//27 38//28 31//29
f 41//30 42//30 40//30
f 44//31 19//31 37//31
f 37//32 19//32 18//32
f 45//33 113//33 42//33
f 39//34 45//34 42//34
f 38//28 37//27 18//35
f 40//36 42//36 44//36
f 44//37 42//37 113//37
f 34//38 47//38 41//38
f 49//39 51//39 48//39
f 46//40 47//40 48//40
f 51//41 46//41 48//41
f 34//42 48//42 47//42
f 52//43 54//43 53//43
f 51//44 50//44 46//44
f 32//45 40//45 30//45
f 34//46 41//46 32//46
f 36//47 34//47 35//47
f 43//48 58//48 57//48
f 60//49 56//49 59//49
f 61//50 43//50 29//50
f 64//51 63//51 59//51
f 58//52 56//52 55//52
f 61//53 59//53 58//53
f 62//54 59//54 61//54
f 66//55 49//55 48//55
f 65//56 66//56 60//56
f 49//57 67//57 52//57
f 65//58 141//58 67//58
f 141//59 68//59 67//59
f 68//60 52//60 67//60
f 56//61 66//61 36//61
f 60//62 66//62 56//62
f 65//63 60//63 63//63
f 69//64 70//64 3//64
f 8//65 71//65 69//65
f 71//66 70//66 69//66
f 76//67 73//67 71//67
f 72//68 76//68 71//68
f 80//69 81//69 78//69
f 82//70 81//70 16//70
f 83//71 84//71 82//71
f 86//72 75//73 79//74
f 89//75 90//75 110//75
f 91//76 92//76 84//76
f 89//77 81//77 84//77
f 110//78 85//78 89//78
f 77//79 87//79 94//79
f 78//80 79//80 75//80
f 3//81 96//81 6//81
f 95//82 101//82 96//82
f 95//83 96//83 3//83
f 101//84 97//84 96//84
f 104//85 100//86 97//87
f 101//88 103//88 102//88
f 100//89 104//89 105//89
f 102//90 105//90 104//90
f 102//91 104//91 101//91
f 104//92 97//92 101//92
f 106//93 26//93 99//93
f 106//94 99//94 109//94
f 110//95 109//95 85//95
f 85//96 108//96 88//96
f 109//97 108//97 85//97
f 111//98 107//98 109//98
f 110//99 111//99 109//99
f 90//100 111//100 110//100
f 109//101 99//101 108//101
f 94//102 102//102 74//102
f 100//103 99//103 98//103
f 88//104 100//104 105//104
f 114//105 115//105 113//105
f 114//106 116//106 115//106
f 114//107 123//107 117//107
f 114//108 117//108 116//108
f 84//109 118//109 91//109
f 93//110 91//110 119//110
f 120//111 121//111 119//111
f 116//112 117//112 120//112
f 115//113 116//113 118//113
f 115//114 118//114 84//114
f 118//115 120//115 119//115
f 124//116 127//116 122//116
f 131//117 130//117 128//117
f 128//118 130//118 129//118
f 131//119 128//119 126//119
f 126//120 128//120 124//120
f 129//121 120//121 117//121
f 123//122 127//122 117//122
f 135//123 62//124 134//125
f 137//126 112//126 132//126
f 137//127 140//127 133//127
f 137//128 133//128 136//128
f 62//129 135//129 64//129
f 141//130 139//130 142//130
f 121//131 145//131 138//131
f 145//132 131//133 143//134
f 142//135 138//135 145//135
f 138//136 142//136 140//136
f 131//133 144//137 143//134
f 8//138 69//138 5//138
f 15//139 80//139 78//139
f 19//140 83//140 82//140
f 106//141 28//142 26//143
f 106//141 29//144 28//142
f 99//145 26//145 22//145
f 19//146 113//146 83//146
f 45//147 123//147 114//147
f 54//148 125//148 53//148
f 53//149 124//149 50//149
f 45//150 122//150 123//150
f 141//151 65//151 139//151
f 112//152 111//152 90//152
f 111//153 134//153 107//153
f 4//154 21//154 2//154
f 27//155 20//155 11//155
f 55//156 33//156 31//156
f 49//157 52//157 51//157
f 70//158 95//158 3//158
f 74//159 103//160 73//161
f 73//161 103//160 101//162
f 94//163 87//163 105//163
f 144//164 126//164 54//164
f 131//165 145//165 130//165
f 131//166 126//166 144//166
f 132//167 112//167 93//167
f 130//168 121//168 120//168
f 62//169 29//169 106//169
f 5//170 3//170 6//170
f 7//171 15//171 8//171
f 5//172 6//172 4//172
f 8//173 5//173 7//173
f 1//174 9//174 12//174
f 13//175 14//175 16//175
f 13//176 80//176 15//176
f 16//177 17//177 82//177
f 14//178 18//178 17//178
f 11//179 20//179 18//179
f 10//180 11//180 14//180
f 1//181 2//181 9//181
f 4//182 22//182 21//182
f 22//183 4//183 6//183
f 23//184 25//184 12//184
f 28//185 29//185 27//185
f 24//186 28//186 27//186
f 22//187 24//187 21//187
f 22//188 26//188 24//188
f 33//189 35//189 32//189
f 32//190 30//190 33//190
f 30//191 31//191 33//191
f 37//192 40//192 44//192
f 30//193 37//193 31//193
f 40//194 32//194 41//194
f 42//195 41//195 39//195
f 19//196 44//196 113//196
f 38//197 18//197 43//197
f 41//198 46//198 39//198
f 47//199 46//199 41//199
f 34//200 36//200 48//200
f 50//201 122//201 45//201
f 39//202 50//202 45//202
f 51//203 53//203 50//203
f 52//204 53//204 51//204
f 39//205 46//205 50//205
f 55//206 56//206 35//206
f 35//207 56//207 36//207
f 57//208 58//208 55//208
f 58//209 59//209 56//209
f 61//210 58//210 43//210
f 29//211 62//211 61//211
f 62//212 64//212 59//212
f 63//213 60//213 59//213
f 66//214 48//214 36//214
f 65//215 67//215 66//215
f 66//216 67//216 49//216
f 8//217 72//217 71//217
f 8//218 78//218 72//218
f 71//219 73//219 70//219
f 76//220 74//220 73//220
f 72//221 78//221 75//221
f 72//222 77//222 76//222
f 75//73 86//72 77//223
f 72//224 75//224 77//224
f 78//225 81//225 79//225
f 81//226 82//226 84//226
f 87//227 85//227 88//227
f 81//228 86//228 79//228
f 85//229 87//229 81//229
f 87//230 86//230 81//230
f 92//231 90//231 89//231
f 91//232 93//232 92//232
f 84//233 92//233 89//233
f 80//234 16//234 81//234
f 89//235 85//235 81//235
f 77//236 94//236 74//236
f 77//237 74//237 76//237
f 86//238 87//238 77//238
f 97//239 98//239 6//239
f 97//87 100//86 98//240
f 70//241 101//241 95//241
f 97//242 6//242 96//242
f 106//243 109//243 107//243
f 103//244 74//244 102//244
f 94//245 105//245 102//245
f 88//246 108//246 100//246
f 100//247 108//247 99//247
f 87//248 88//248 105//248
f 83//249 113//249 115//249
f 118//250 119//250 91//250
f 116//251 120//251 118//251
f 122//252 127//252 123//252
f 125//253 54//253 126//253
f 125//254 126//254 124//254
f 124//255 128//255 127//255
f 127//256 128//256 129//256
f 132//257 93//257 119//257
f 119//258 121//258 132//258
f 129//259 130//259 120//259
f 127//260 129//260 117//260
f 133//261 135//262 134//263
f 134//125 62//124 107//264
f 133//265 64//265 135//265
f 133//266 140//266 64//266
f 112//267 136//267 111//267
f 112//268 137//268 136//268
f 138//269 140//269 137//269
f 121//270 137//270 132//270
f 138//271 137//271 121//271
f 133//261 134//263 136//272
f 140//273 142//273 139//273
f 143//274 144//274 68//274
f 145//275 143//276 142//277
f 142//277 143//276 141//278
f 140//279 139//279 64//279
f 15//280 78//280 8//280
f 98//281 99//281 22//281
f 98//282 22//282 6//282
f 113//283 45//283 114//283
f 122//284 50//284 124//284
f 53//285 125//285 124//285
f 139//286 65//286 63//286
f 143//287 68//287 141//287
f 64//288 139//288 63//288
f 20//289 43//289 18//289
f 83//290 115//290 84//290
f 107//291 62//291 106//291
f 111//292 136//292 134//292
f 2//293 21//293 9//293
f 20//294 27//294 29//294
f 33//295 55//295 35//295
f 38//296 43//296 57//296
f 31//297 57//297 55//297
f 70//298 73//298 101//298
f 92//299 93//299 90//299
f 68//300 144//300 54//300
f 145//301 121//301 130//301
f 20//302 29//302 43//302
f 93//303 112//303 90//303
f 68//304 54//304 52//304
