# Blender 4.4.3
# www.blender.org
mtllib earth3.mtl
o 锥体.001
v 0.668863 -0.142730 0.268168
v 0.568290 -0.142730 0.291487
v 0.465200 -0.142730 0.286527
v 0.367597 -0.142730 0.263380
v 0.280118 -0.142730 0.222908
v 0.206464 -0.142730 0.166779
v 0.149195 -0.142730 0.097345
v 0.109669 -0.142730 0.017505
v 0.088129 -0.142730 -0.069438
v 0.083891 -0.142730 -0.159920
v 0.095602 -0.142730 -0.250232
v 0.121535 -0.142730 -0.336675
v 0.159854 -0.142730 -0.415695
v 0.208816 -0.142730 -0.484058
v 0.266874 -0.142730 -0.539026
v 0.332690 -0.142730 -0.578514
v 0.402225 -0.142730 -0.611295
v 0.476618 -0.142730 -0.628164
v 0.554853 -0.142730 -0.627613
v 0.635116 -0.142730 -0.610214
v 0.714624 -0.142730 -0.578207
v 0.815283 -0.142730 -0.647330
v 0.902358 -0.142730 -0.579395
v 0.979060 -0.142730 -0.496685
v 1.040578 -0.142730 -0.401526
v 1.082397 -0.142730 -0.296483
v 1.100758 -0.142730 -0.184494
v 1.093096 -0.142730 -0.069001
v 1.058401 -0.142730 0.045998
v 0.996694 -0.142730 0.154237
v 0.848436 -0.142730 0.169055
v 0.763823 -0.142730 0.226191
v 0.535543 0.587812 -0.171564
v -0.159236 -0.138437 0.735772
v -0.379321 -0.138437 0.727131
v -0.586807 -0.138437 0.663091
v -0.768744 -0.138437 0.566724
v -0.913700 -0.138437 0.432512
v -1.015595 -0.138437 0.272892
v -0.934940 -0.138437 0.218228
v -0.956997 -0.138437 0.057808
v -0.942169 -0.138437 -0.101388
v -0.895874 -0.138437 -0.254151
v -0.824739 -0.138437 -0.395522
v -0.735645 -0.138437 -0.520603
v -0.633768 -0.138437 -0.631291
v -0.523419 -0.138437 -0.726119
v -0.432203 -0.138437 -0.767984
v -0.322089 -0.138437 -0.806390
v -0.210194 -0.138437 -0.830102
v -0.096461 -0.138437 -0.822263
v 0.017667 -0.138437 -0.792095
v 0.153527 -0.138437 -0.869521
v 0.283442 -0.138437 -0.779889
v 0.407296 -0.138437 -0.678453
v 0.523537 -0.138437 -0.553395
v 0.624421 -0.138437 -0.408634
v 0.701208 -0.138437 -0.248356
v 0.745329 -0.138437 -0.076730
v 0.749474 -0.138437 0.101639
v 0.708625 -0.138437 0.281299
v 0.620797 -0.138437 0.455189
v 0.483500 -0.138437 0.599373
v 0.306668 -0.138437 0.720604
v 0.059077 -0.138437 0.703338
v -0.165199 1.145032 -0.057652
vn 0.1913 0.5316 0.8251
vn -0.0406 0.5336 0.8447
vn -0.1950 0.5345 0.8224
vn -0.3542 0.5372 0.7655
vn -0.5102 0.5399 0.6695
vn -0.6491 0.5404 0.5354
vn -0.7558 0.5374 0.3742
vn -0.8220 0.5319 0.2036
vn -0.8496 0.5259 0.0398
vn -0.8462 0.5214 -0.1097
vn -0.8185 0.5194 -0.2456
vn -0.7686 0.5198 -0.3727
vn -0.6932 0.5224 -0.4965
vn -0.5848 0.5258 -0.6177
vn -0.4372 0.5273 -0.7286
vn -0.3621 0.5283 -0.7680
vn -0.1873 0.5314 -0.8261
vn 0.0060 0.5297 -0.8482
vn 0.1804 0.5243 -0.8322
vn 0.3191 0.5195 -0.7927
vn -0.5391 0.3049 -0.7851
vn 0.4923 0.5995 -0.6310
vn 0.5872 0.5989 -0.5446
vn 0.6714 0.6007 -0.4340
vn 0.7402 0.6044 -0.2947
vn 0.7833 0.6083 -0.1284
vn 0.7903 0.6105 0.0524
vn 0.7581 0.6107 0.2287
vn 0.6886 0.6097 0.3926
vn 0.0887 0.4519 0.8877
vn -0.0000 -1.0000 -0.0000
vn 0.4743 0.5307 0.7024
vn 0.3430 0.5296 0.7758
vn -0.0334 0.5254 0.8502
vn -0.2491 0.5351 0.8072
vn -0.3924 0.5450 0.7409
vn -0.5627 0.5603 0.6078
vn -0.6915 0.5718 0.4414
vn -0.5541 0.1566 -0.8176
vn -0.8407 0.5290 0.1156
vn -0.8516 0.5182 -0.0793
vn -0.8245 0.5077 -0.2499
vn -0.7736 0.5000 -0.3893
vn -0.7072 0.4960 -0.5038
vn -0.6389 0.4961 -0.5880
vn -0.5645 0.4997 -0.6569
vn -0.3593 0.5080 -0.7828
vn -0.2835 0.5088 -0.8128
vn -0.1781 0.5120 -0.8403
vn 0.0590 0.5132 -0.8562
vn 0.2201 0.5079 -0.8328
vn -0.4554 0.3924 -0.7991
vn 0.4736 0.5518 -0.6864
vn 0.5296 0.5490 -0.6466
vn 0.6124 0.5485 -0.5693
vn 0.6844 0.5515 -0.4770
vn 0.7482 0.5583 -0.3584
vn 0.7969 0.5684 -0.2049
vn 0.8153 0.5787 -0.0189
vn 0.7904 0.5856 0.1797
vn 0.7221 0.5879 0.3647
vn 0.5880 0.5838 0.5599
vn 0.4615 0.5778 0.6731
vn -0.0602 0.5013 0.8632
vn 0.1253 0.5221 0.8436
vt 0.250000 0.490000
vt 0.250000 0.250000
vt 0.296822 0.485388
vt 0.341844 0.471731
vt 0.383337 0.449553
vt 0.419706 0.419706
vt 0.449553 0.383337
vt 0.471731 0.341844
vt 0.485388 0.296822
vt 0.490000 0.250000
vt 0.485388 0.203178
vt 0.471731 0.158156
vt 0.449553 0.116663
vt 0.419706 0.080294
vt 0.383337 0.050447
vt 0.341844 0.028269
vt 0.296822 0.014612
vt 0.250000 0.010000
vt 0.203178 0.014612
vt 0.158156 0.028269
vt 0.116663 0.050447
vt 0.080294 0.080294
vt 0.050447 0.116663
vt 0.028269 0.158156
vt 0.014612 0.203178
vt 0.010000 0.250000
vt 0.014612 0.296822
vt 0.028269 0.341844
vt 0.050447 0.383337
vt 0.080294 0.419706
vt 0.116663 0.449553
vt 0.158156 0.471731
vt 0.750000 0.490000
vt 0.796822 0.485388
vt 0.841844 0.471731
vt 0.883337 0.449553
vt 0.919706 0.419706
vt 0.949553 0.383337
vt 0.971731 0.341844
vt 0.985388 0.296822
vt 0.990000 0.250000
vt 0.985388 0.203178
vt 0.971731 0.158156
vt 0.949553 0.116663
vt 0.919706 0.080294
vt 0.883337 0.050447
vt 0.841844 0.028269
vt 0.796822 0.014612
vt 0.750000 0.010000
vt 0.703178 0.014612
vt 0.658156 0.028269
vt 0.616663 0.050447
vt 0.580294 0.080294
vt 0.550447 0.116663
vt 0.528269 0.158156
vt 0.514612 0.203178
vt 0.510000 0.250000
vt 0.514612 0.296822
vt 0.528269 0.341844
vt 0.550447 0.383337
vt 0.580294 0.419706
vt 0.616663 0.449553
vt 0.658156 0.471731
vt 0.703178 0.485388
vt 0.203178 0.485388
s 1
usemtl 材质.002
f 1/1/1 33/2/1 2/3/1
f 2/3/2 33/2/2 3/4/2
f 3/4/3 33/2/3 4/5/3
f 4/5/4 33/2/4 5/6/4
f 5/6/5 33/2/5 6/7/5
f 6/7/6 33/2/6 7/8/6
f 7/8/7 33/2/7 8/9/7
f 8/9/8 33/2/8 9/10/8
f 9/10/9 33/2/9 10/11/9
f 10/11/10 33/2/10 11/12/10
f 11/12/11 33/2/11 12/13/11
f 12/13/12 33/2/12 13/14/12
f 13/14/13 33/2/13 14/15/13
f 14/15/14 33/2/14 15/16/14
f 15/16/15 33/2/15 16/17/15
f 16/17/16 33/2/16 17/18/16
f 17/18/17 33/2/17 18/19/17
f 18/19/18 33/2/18 19/20/18
f 19/20/19 33/2/19 20/21/19
f 20/21/20 33/2/20 21/22/20
f 21/22/21 33/2/21 22/23/21
f 22/23/22 33/2/22 23/24/22
f 23/24/23 33/2/23 24/25/23
f 24/25/24 33/2/24 25/26/24
f 25/26/25 33/2/25 26/27/25
f 26/27/26 33/2/26 27/28/26
f 27/28/27 33/2/27 28/29/27
f 28/29/28 33/2/28 29/30/28
f 29/30/29 33/2/29 30/31/29
f 30/31/30 33/2/30 31/32/30
f 1/33/31 2/34/31 3/35/31 4/36/31 5/37/31 6/38/31 7/39/31 8/40/31 9/41/31 10/42/31 11/43/31 12/44/31 13/45/31 14/46/31 15/47/31 16/48/31 17/49/31 18/50/31 19/51/31 20/52/31 21/53/31 22/54/31 23/55/31 24/56/31 25/57/31 26/58/31 27/59/31 28/60/31 29/61/31 30/62/31 31/63/31 32/64/31
f 31/32/32 33/2/32 32/65/32
f 32/65/33 33/2/33 1/1/33
usemtl 材质.003
f 34/1/34 66/2/34 35/3/34
f 35/3/35 66/2/35 36/4/35
f 36/4/36 66/2/36 37/5/36
f 37/5/37 66/2/37 38/6/37
f 38/6/38 66/2/38 39/7/38
f 39/7/39 66/2/39 40/8/39
f 40/8/40 66/2/40 41/9/40
f 41/9/41 66/2/41 42/10/41
f 42/10/42 66/2/42 43/11/42
f 43/11/43 66/2/43 44/12/43
f 44/12/44 66/2/44 45/13/44
f 45/13/45 66/2/45 46/14/45
f 46/14/46 66/2/46 47/15/46
f 47/15/47 66/2/47 48/16/47
f 48/16/48 66/2/48 49/17/48
f 49/17/49 66/2/49 50/18/49
f 50/18/50 66/2/50 51/19/50
f 51/19/51 66/2/51 52/20/51
f 52/20/52 66/2/52 53/21/52
f 53/21/53 66/2/53 54/22/53
f 54/22/54 66/2/54 55/23/54
f 55/23/55 66/2/55 56/24/55
f 56/24/56 66/2/56 57/25/56
f 57/25/57 66/2/57 58/26/57
f 58/26/58 66/2/58 59/27/58
f 59/27/59 66/2/59 60/28/59
f 60/28/60 66/2/60 61/29/60
f 61/29/61 66/2/61 62/30/61
f 62/30/62 66/2/62 63/31/62
f 63/31/63 66/2/63 64/32/63
f 34/33/31 35/34/31 36/35/31 37/36/31 38/37/31 39/38/31 40/39/31 41/40/31 42/41/31 43/42/31 44/43/31 45/44/31 46/45/31 47/46/31 48/47/31 49/48/31 50/49/31 51/50/31 52/51/31 53/52/31 54/53/31 55/54/31 56/55/31 57/56/31 58/57/31 59/58/31 60/59/31 61/60/31 62/61/31 63/62/31 64/63/31 65/64/31
f 64/32/64 66/2/64 65/65/64
f 65/65/65 66/2/65 34/1/65
