# Blender 4.4.3
# www.blender.org
mtllib Hanging Ivy 1.mtl
o Hanging_Ivy_1
v -0.049108 -0.394800 0.065326
v 0.296176 -0.192947 0.071186
v -0.243309 -0.059705 -0.034659
v 0.101975 0.142149 -0.028798
v 0.142988 -0.626398 0.091863
v 0.093801 -0.424545 -0.249949
v 0.075197 -0.291302 0.299505
v 0.026010 -0.089449 -0.042307
v 0.051397 -1.055124 -0.061217
v -0.204559 -0.853271 0.170605
v 0.261471 -0.720028 -0.121050
v 0.005514 -0.518175 0.110773
v -0.055585 -1.528940 0.054079
v 0.279961 -1.327086 0.135713
v -0.223050 -1.193844 -0.086157
v 0.112497 -0.991991 -0.004524
v 0.044414 -2.002071 -0.062782
v -0.192089 -1.800218 0.188856
v 0.249001 -1.666975 -0.139300
v 0.012498 -1.465122 0.112338
v -0.051850 -2.528729 0.063150
v 0.290642 -2.326876 0.107361
v -0.233730 -2.193634 -0.057806
v 0.108761 -1.991780 -0.013595
v 0.047751 -3.005554 0.111663
v 0.167980 -2.803701 -0.212066
v -0.111068 -2.670458 0.261621
v 0.009160 -2.468605 -0.062108
v 0.101443 -3.550257 0.010209
v -0.167046 -3.381459 -0.096132
v 0.223958 -3.270036 0.145687
v -0.044532 -3.101239 0.039346
v 0.239899 -2.636632 -0.290407
v 0.018373 -2.467834 -0.105147
v 0.417409 -2.356411 -0.333468
v 0.195883 -2.187613 -0.148208
v -0.222979 -2.181858 -0.135472
v -0.230625 -2.266620 0.188016
v -0.227202 -1.858286 -0.050788
v -0.234848 -1.943048 0.272700
v 0.089404 -1.831635 -0.155320
v 0.406666 -1.916396 -0.091694
v 0.172073 -1.508063 -0.136476
v 0.489334 -1.592825 -0.072850
v -0.022236 -1.083607 0.007796
v -0.247020 -1.227099 -0.194119
v 0.212544 -1.293961 -0.104085
v -0.012240 -1.437453 -0.306001
v -0.254265 -0.830783 0.205339
v -0.088475 -0.569120 0.331570
v -0.457667 -0.622464 0.040663
v -0.291878 -0.360801 0.166893
v 0.013000 -0.004989 0.074350
v -0.263264 -0.107256 -0.084102
v 0.196452 -0.085573 -0.193492
v -0.079813 -0.187840 -0.351944
v 0.046679 -0.655958 -0.121440
v -0.302506 -0.432490 0.034230
v 0.288312 -0.284979 -0.111980
v -0.060873 -0.061511 0.043689
v -0.158478 -0.912356 -0.058189
v 0.050799 -0.688888 0.261758
v -0.187610 -0.541377 -0.298246
v 0.021668 -0.317909 0.021701
v 0.005042 -1.386992 0.052552
v 0.153395 -1.163523 -0.299804
v -0.177743 -1.016013 0.210874
v -0.029390 -0.792544 -0.141482
v 0.058440 -1.911545 -0.113186
v -0.316428 -1.688076 -0.038100
v 0.292080 -1.540566 -0.050830
v -0.082788 -1.317097 0.024255
v 0.012781 -2.435340 0.050855
v 0.132344 -2.211872 -0.312281
v -0.156692 -2.064361 0.223351
v -0.037130 -1.840893 -0.139786
v 0.050448 -3.018395 -0.120539
v -0.313879 -2.794927 -0.004656
v 0.289531 -2.647416 -0.084275
v -0.074796 -2.423948 0.031609
v -0.072186 -3.546279 -0.122615
v -0.041354 -3.322811 0.258453
v 0.017005 -3.175301 -0.347383
v 0.047838 -2.951832 0.033684
v -0.078590 -4.149311 0.004301
v 0.240555 -3.962438 -0.014621
v -0.264903 -3.839083 -0.074310
v 0.054242 -3.652210 -0.093232
v -0.076861 -3.137851 0.370706
v 0.058731 -2.950979 0.081178
v -0.234820 -2.827624 0.496964
v -0.099228 -2.640751 0.207436
v 0.315081 -2.634379 -0.001317
v 0.171402 -2.728218 -0.329469
v 0.279697 -2.276159 -0.088261
v 0.136018 -2.369997 -0.416413
v 0.010936 -2.246653 0.164753
v -0.337160 -2.340491 0.249352
v -0.080827 -1.888433 0.184524
v -0.428922 -1.982271 0.269123
v 0.046633 -1.418524 -0.051144
v 0.366643 -1.577382 0.046279
v -0.136589 -1.651404 0.170960
v 0.183421 -1.810261 0.268384
v 0.187016 -1.138627 -0.357910
v -0.038390 -0.848945 -0.406996
v 0.468149 -0.908000 -0.287848
v 0.242743 -0.618318 -0.336933
v -0.019860 -0.224405 -0.101435
v 0.331467 -0.337622 -0.071708
v -0.078612 -0.313618 0.253139
v 0.272716 -0.426836 0.282866
v -0.049108 -0.394800 0.065326
v 0.296176 -0.192947 0.071186
v -0.243309 -0.059705 -0.034659
v 0.101975 0.142149 -0.028798
v 0.142988 -0.626398 0.091863
v 0.093801 -0.424545 -0.249949
v 0.075197 -0.291302 0.299505
v 0.026010 -0.089449 -0.042307
v 0.051397 -1.055124 -0.061217
v -0.204559 -0.853271 0.170605
v 0.261471 -0.720028 -0.121050
v 0.005514 -0.518175 0.110773
v -0.055585 -1.528940 0.054079
v 0.279961 -1.327086 0.135713
v -0.223050 -1.193844 -0.086157
v 0.112497 -0.991991 -0.004524
v 0.044414 -2.002071 -0.062782
v -0.192089 -1.800218 0.188856
v 0.249001 -1.666975 -0.139300
v 0.012498 -1.465122 0.112338
v -0.051850 -2.528729 0.063150
v 0.290642 -2.326876 0.107361
v -0.233730 -2.193634 -0.057806
v 0.108761 -1.991780 -0.013595
v 0.047751 -3.005554 0.111663
v 0.167980 -2.803701 -0.212066
v -0.111068 -2.670458 0.261621
v 0.009160 -2.468605 -0.062108
v 0.101443 -3.550257 0.010209
v -0.167046 -3.381459 -0.096132
v 0.223958 -3.270036 0.145687
v -0.044532 -3.101239 0.039346
v 0.239899 -2.636632 -0.290407
v 0.018373 -2.467834 -0.105147
v 0.417409 -2.356411 -0.333468
v 0.195883 -2.187613 -0.148208
v -0.222979 -2.181858 -0.135472
v -0.230625 -2.266620 0.188016
v -0.227202 -1.858286 -0.050788
v -0.234848 -1.943048 0.272700
v 0.089404 -1.831635 -0.155320
v 0.406666 -1.916396 -0.091694
v 0.172073 -1.508063 -0.136476
v 0.489334 -1.592825 -0.072850
v -0.022236 -1.083607 0.007796
v -0.247020 -1.227099 -0.194119
v 0.212544 -1.293961 -0.104085
v -0.012240 -1.437453 -0.306001
v -0.254265 -0.830783 0.205339
v -0.088475 -0.569120 0.331570
v -0.457667 -0.622464 0.040663
v -0.291878 -0.360801 0.166893
v 0.013000 -0.004989 0.074350
v -0.263264 -0.107256 -0.084102
v 0.196452 -0.085573 -0.193492
v -0.079813 -0.187840 -0.351944
v 0.046679 -0.655958 -0.121440
v -0.302506 -0.432490 0.034230
v 0.288312 -0.284979 -0.111980
v -0.060873 -0.061511 0.043689
v -0.158478 -0.912356 -0.058189
v 0.050799 -0.688888 0.261758
v -0.187610 -0.541377 -0.298246
v 0.021668 -0.317909 0.021701
v 0.005042 -1.386992 0.052552
v 0.153395 -1.163523 -0.299804
v -0.177743 -1.016013 0.210874
v -0.029390 -0.792544 -0.141482
v 0.058440 -1.911545 -0.113186
v -0.316428 -1.688076 -0.038100
v 0.292080 -1.540566 -0.050830
v -0.082788 -1.317097 0.024255
v 0.012781 -2.435340 0.050855
v 0.132344 -2.211872 -0.312281
v -0.156692 -2.064361 0.223351
v -0.037130 -1.840893 -0.139786
v 0.050448 -3.018395 -0.120539
v -0.313879 -2.794927 -0.004656
v 0.289531 -2.647416 -0.084275
v -0.074796 -2.423948 0.031609
v -0.072186 -3.546279 -0.122615
v -0.041354 -3.322811 0.258453
v 0.017005 -3.175301 -0.347383
v 0.047838 -2.951832 0.033684
v -0.078590 -4.149311 0.004301
v 0.240555 -3.962438 -0.014621
v -0.264903 -3.839083 -0.074310
v 0.054242 -3.652210 -0.093232
v -0.076861 -3.137851 0.370706
v 0.058731 -2.950979 0.081178
v -0.234820 -2.827624 0.496964
v -0.099228 -2.640751 0.207436
v 0.315081 -2.634379 -0.001317
v 0.171402 -2.728218 -0.329469
v 0.279697 -2.276159 -0.088261
v 0.136018 -2.369997 -0.416413
v 0.010936 -2.246653 0.164753
v -0.337160 -2.340491 0.249352
v -0.080827 -1.888433 0.184524
v -0.428922 -1.982271 0.269123
v 0.046633 -1.418524 -0.051144
v 0.366643 -1.577382 0.046279
v -0.136589 -1.651404 0.170960
v 0.183421 -1.810261 0.268384
v 0.187016 -1.138627 -0.357910
v -0.038390 -0.848945 -0.406996
v 0.468149 -0.908000 -0.287848
v 0.242743 -0.618318 -0.336933
v -0.019860 -0.224405 -0.101435
v 0.331467 -0.337622 -0.071708
v -0.078612 -0.313618 0.253139
v 0.272716 -0.426836 0.282866
vn -0.1384 0.2087 0.9681
vn 0.9778 0.2087 -0.0175
vn -0.5610 0.2087 -0.8011
vn -0.3479 0.2087 0.9140
vn -0.6236 0.2087 -0.7534
vn -0.2452 0.2087 0.9468
vn 0.8672 0.2087 0.4522
vn 0.4707 0.2087 -0.8573
vn -0.5289 0.2087 -0.8226
vn -0.9997 -0.0064 -0.0253
vn -0.1983 -0.0064 0.9801
vn -0.2361 -0.6485 0.7237
vn -0.6201 0.0145 0.7844
vn 0.1307 -0.9211 0.3666
vn -0.2837 0.2087 -0.9359
vn -0.8788 0.2087 0.4291
vn 0.8470 0.2087 0.4889
vn -0.0710 0.2087 -0.9754
vn 0.8835 0.2087 0.4193
vn -0.1779 0.2087 -0.9617
vn -0.9770 0.2087 -0.0433
vn -0.0643 0.2087 0.9759
vn 0.8270 0.2087 0.5220
vn 0.9167 -0.0064 -0.3995
vn -0.2345 -0.0064 -0.9721
vn -0.0918 -0.6485 -0.7557
vn 0.2306 0.0145 -0.9730
vn -0.2734 -0.9211 -0.2771
vn 0.1384 -0.2087 -0.9681
vn -0.9778 -0.2087 0.0175
vn 0.5610 -0.2087 0.8011
vn 0.3479 -0.2087 -0.9140
vn 0.6236 -0.2087 0.7534
vn 0.2452 -0.2087 -0.9468
vn -0.8672 -0.2087 -0.4522
vn -0.4707 -0.2087 0.8573
vn 0.5289 -0.2087 0.8226
vn 0.9997 0.0064 0.0253
vn 0.1983 0.0064 -0.9801
vn 0.2361 0.6485 -0.7237
vn 0.6201 -0.0145 -0.7844
vn -0.1307 0.9211 -0.3666
vn 0.2837 -0.2087 0.9359
vn 0.8788 -0.2087 -0.4291
vn -0.8470 -0.2087 -0.4889
vn 0.0710 -0.2087 0.9754
vn -0.8835 -0.2087 -0.4193
vn 0.1779 -0.2087 0.9617
vn 0.9770 -0.2087 0.0433
vn 0.0643 -0.2087 -0.9759
vn -0.8270 -0.2087 -0.5220
vn -0.9167 0.0064 0.3995
vn 0.2345 0.0064 0.9721
vn 0.0918 0.6485 0.7557
vn -0.2306 -0.0145 0.9730
vn 0.2734 0.9211 0.2771
vt 0.000000 0.000000
vt 1.000000 0.000000
vt 1.000000 1.000000
vt 0.000000 1.000000
s 1
usemtl Material.006
f 1/1/1 2/2/1 4/3/1 3/4/1
f 5/1/2 6/2/2 8/3/2 7/4/2
f 9/1/3 10/2/3 12/3/3 11/4/3
f 13/1/4 14/2/4 16/3/4 15/4/4
f 17/1/5 18/2/5 20/3/5 19/4/5
f 21/1/6 22/2/6 24/3/6 23/4/6
f 25/1/7 26/2/7 28/3/7 27/4/7
f 29/1/8 30/2/8 32/3/8 31/4/8
f 33/1/9 34/2/9 36/3/9 35/4/9
f 37/1/10 38/2/10 40/3/10 39/4/10
f 41/1/11 42/2/11 44/3/11 43/4/11
f 45/1/12 46/2/12 48/3/12 47/4/12
f 49/1/13 50/2/13 52/3/13 51/4/13
f 53/1/14 54/2/14 56/3/14 55/4/14
f 57/1/15 58/2/15 60/3/15 59/4/15
f 61/1/16 62/2/16 64/3/16 63/4/16
f 65/1/17 66/2/17 68/3/17 67/4/17
f 69/1/18 70/2/18 72/3/18 71/4/18
f 73/1/19 74/2/19 76/3/19 75/4/19
f 77/1/20 78/2/20 80/3/20 79/4/20
f 81/1/21 82/2/21 84/3/21 83/4/21
f 85/1/22 86/2/22 88/3/22 87/4/22
f 89/1/23 90/2/23 92/3/23 91/4/23
f 93/1/24 94/2/24 96/3/24 95/4/24
f 97/1/25 98/2/25 100/3/25 99/4/25
f 101/1/26 102/2/26 104/3/26 103/4/26
f 105/1/27 106/2/27 108/3/27 107/4/27
f 109/1/28 110/2/28 112/3/28 111/4/28
f 113/1/29 115/4/29 116/3/29 114/2/29
f 117/1/30 119/4/30 120/3/30 118/2/30
f 121/1/31 123/4/31 124/3/31 122/2/31
f 125/1/32 127/4/32 128/3/32 126/2/32
f 129/1/33 131/4/33 132/3/33 130/2/33
f 133/1/34 135/4/34 136/3/34 134/2/34
f 137/1/35 139/4/35 140/3/35 138/2/35
f 141/1/36 143/4/36 144/3/36 142/2/36
f 145/1/37 147/4/37 148/3/37 146/2/37
f 149/1/38 151/4/38 152/3/38 150/2/38
f 153/1/39 155/4/39 156/3/39 154/2/39
f 157/1/40 159/4/40 160/3/40 158/2/40
f 161/1/41 163/4/41 164/3/41 162/2/41
f 165/1/42 167/4/42 168/3/42 166/2/42
f 169/1/43 171/4/43 172/3/43 170/2/43
f 173/1/44 175/4/44 176/3/44 174/2/44
f 177/1/45 179/4/45 180/3/45 178/2/45
f 181/1/46 183/4/46 184/3/46 182/2/46
f 185/1/47 187/4/47 188/3/47 186/2/47
f 189/1/48 191/4/48 192/3/48 190/2/48
f 193/1/49 195/4/49 196/3/49 194/2/49
f 197/1/50 199/4/50 200/3/50 198/2/50
f 201/1/51 203/4/51 204/3/51 202/2/51
f 205/1/52 207/4/52 208/3/52 206/2/52
f 209/1/53 211/4/53 212/3/53 210/2/53
f 213/1/54 215/4/54 216/3/54 214/2/54
f 217/1/55 219/4/55 220/3/55 218/2/55
f 221/1/56 223/4/56 224/3/56 222/2/56
