# Blender 4.4.3
# www.blender.org
mtllib health.mtl
o Heart
v -0.180137 -0.954009 0.126767
v -1.032347 0.590151 0.304531
v -0.180137 -0.954009 -0.126766
v -1.032347 0.590151 -0.304532
v 0.180135 -0.954009 0.126767
v 1.032347 0.590151 0.304531
v 0.180135 -0.954009 -0.126766
v 1.032347 0.590151 -0.304532
v 0.062749 -0.996973 -0.128195
v -0.000001 -0.996973 -0.128195
v -0.062752 -0.996973 -0.128195
v -0.531095 0.728338 -0.337615
v -0.000000 0.551762 -0.337615
v 0.531095 0.728338 -0.337615
v -0.062752 -0.996973 0.128195
v -0.000001 -0.996973 0.128195
v 0.062749 -0.996973 0.128195
v 0.531095 0.728338 0.337615
v -0.000000 0.551762 0.337615
v -0.531095 0.728338 0.337615
v -1.052877 0.043001 0.329251
v -1.052877 0.043001 -0.329251
v 1.052877 0.043001 -0.329251
v 1.052877 0.043001 0.329251
v 0.541304 0.051218 0.395101
v -0.000000 0.008511 0.395101
v -0.541304 0.051218 0.395101
v -0.541304 0.051217 -0.395101
v -0.000000 0.008511 -0.395101
v 0.541304 0.051217 -0.395101
v -0.145693 -1.033259 0.000000
v -1.179860 0.693927 -0.000000
v 0.145691 -1.033259 0.000000
v 1.179860 0.693927 -0.000000
v 0.574178 0.989348 -0.000000
v -0.000000 0.617240 -0.000000
v -0.574178 0.989348 -0.000000
v -0.000001 -1.129873 0.000000
v 1.280421 0.056351 -0.000000
v -1.280420 0.056351 -0.000000
v -0.669884 -0.518135 -0.245756
v 0.669882 -0.518135 -0.245756
v 0.669882 -0.518135 0.245756
v 0.350032 -0.509008 0.294907
v -0.000001 -0.512606 0.294907
v -0.350034 -0.509008 0.294907
v -0.350034 -0.509008 -0.294907
v -0.000001 -0.512606 -0.294907
v 0.350032 -0.509008 -0.294907
v -0.669884 -0.518135 0.245756
v -0.812691 -0.549117 0.000000
v 0.812689 -0.549117 0.000000
v -0.148540 -1.012158 0.071877
v -1.078488 0.357080 0.333068
v -1.128791 0.660829 -0.189742
v -0.376823 -0.784586 -0.179034
v -0.104253 -0.989601 -0.128063
v 0.824085 0.691504 -0.331955
v 0.376821 -0.784586 -0.179034
v 0.148537 -1.012158 -0.071877
v 1.128791 0.660829 0.189742
v 0.376821 -0.784586 0.179035
v 0.104250 -0.989601 0.128063
v -0.824085 0.691504 0.331955
v 0.104250 -0.989601 -0.128063
v 0.031374 -0.996973 -0.128195
v -0.031377 -0.996973 -0.128195
v -0.824085 0.691504 -0.331955
v -0.255539 0.638948 -0.337615
v 0.255539 0.638948 -0.337615
v -0.104253 -0.989601 0.128063
v -0.031377 -0.996973 0.128195
v 0.031374 -0.996973 0.128195
v 0.824085 0.691504 0.331955
v 0.255539 0.638948 0.337615
v -0.255539 0.638948 0.337615
v 0.553873 0.926212 0.193257
v -0.000000 0.596296 0.193257
v -0.553873 0.926212 0.193257
v -0.007845 -1.104793 0.059066
v -0.000001 -1.104793 0.059066
v 0.007842 -1.104793 0.059066
v 0.192786 -0.778965 0.212201
v -0.000001 -0.779415 0.212201
v -0.192788 -0.778965 0.212201
v -0.192788 -0.778965 -0.212201
v -0.000001 -0.779415 -0.212201
v 0.192786 -0.778965 -0.212201
v -0.911970 -0.245566 0.298280
v -1.078488 0.357079 -0.333068
v 1.078488 0.357079 -0.333068
v 1.078488 0.357079 0.333068
v 0.542344 0.404732 0.398058
v -0.000000 0.308192 0.398058
v -0.542345 0.404732 0.398058
v -0.542345 0.404731 -0.398058
v -0.000000 0.308191 -0.398058
v 0.542344 0.404731 -0.398058
v 0.268742 0.026544 -0.395101
v -0.268743 0.026544 -0.395101
v -0.813969 0.050779 -0.386870
v -0.268743 0.026544 0.395101
v 0.268742 0.026544 0.395101
v 0.813968 0.050779 0.386870
v -0.813969 0.050779 0.386870
v 1.218707 0.049327 0.189319
v 0.813968 0.050779 -0.386870
v -1.218707 0.049327 -0.189319
v -0.148540 -1.012158 -0.071877
v -1.128790 0.660829 0.189742
v 0.148537 -1.012158 0.071877
v 1.128791 0.660829 -0.189742
v 0.553873 0.926212 -0.193257
v -0.000000 0.596296 -0.193257
v -0.553873 0.926212 -0.193257
v -0.007845 -1.104793 -0.059066
v -0.000001 -1.104793 -0.059066
v 0.007842 -1.104793 -0.059066
v 1.218707 0.049327 -0.189319
v -1.218707 0.049327 0.189319
v -0.447606 -0.827821 0.000000
v 0.447604 -0.827821 0.000000
v -0.018213 -1.117796 0.000000
v -0.273789 0.851729 -0.000000
v 0.273789 0.851729 -0.000000
v 0.905107 0.920630 -0.000000
v -0.905107 0.920630 -0.000000
v 0.018210 -1.117796 0.000000
v 1.308697 0.386472 -0.000000
v -1.308696 0.386472 -0.000000
v -0.911970 -0.245566 -0.298280
v 0.911969 -0.245566 -0.298280
v 0.911969 -0.245566 0.298280
v 0.475423 -0.243873 0.357936
v -0.000000 -0.257758 0.357936
v -0.475424 -0.243873 0.357936
v -0.475424 -0.243873 -0.357936
v -0.000000 -0.257758 -0.357936
v 0.475423 -0.243873 -0.357936
v -0.376823 -0.784586 0.179035
v -1.106772 -0.254443 0.000000
v 1.106771 -0.254443 0.000000
v 0.773721 -0.537499 -0.141310
v -0.773723 -0.537499 0.141310
v -0.773723 -0.537499 -0.141310
v 0.521276 -0.509249 -0.288763
v 0.773721 -0.537499 0.141310
v -0.521277 -0.509249 0.288764
v 0.521276 -0.509249 0.288764
v 0.175016 -0.511257 0.294907
v -0.175017 -0.511257 0.294907
v -0.521277 -0.509249 -0.288763
v -0.175017 -0.511257 -0.294907
v 0.175016 -0.511257 -0.294907
v -1.246253 0.370349 -0.193697
v 0.829644 0.391216 -0.389928
v 1.246253 0.370349 0.193697
v -0.829644 0.391216 0.389928
v 0.028456 -1.093280 0.060489
v -0.870818 0.866040 0.192272
v 0.870818 0.866040 0.192272
v 0.264393 0.800592 0.193257
v -0.264393 0.800592 0.193257
v -0.028459 -1.093280 0.060489
v -0.003923 -1.104793 0.059066
v 0.003921 -1.104793 0.059066
v 0.829644 0.391216 0.389928
v 0.265386 0.350596 0.398058
v -0.265386 0.350596 0.398058
v -0.829644 0.391216 -0.389928
v -0.265386 0.350596 -0.398058
v 0.265386 0.350596 -0.398058
v 0.237472 -0.252299 -0.357936
v -0.237473 -0.252299 -0.357936
v -0.708992 -0.241875 -0.350478
v -0.237473 -0.252299 0.357936
v 0.237472 -0.252299 0.357936
v 0.708991 -0.241874 0.350479
v -0.708992 -0.241874 0.350479
v 1.053662 -0.251366 0.171511
v 0.708991 -0.241875 -0.350478
v -1.053663 -0.251366 -0.171511
v -1.053663 -0.251366 0.171511
v 1.053662 -0.251366 -0.171511
v 0.003921 -1.104793 -0.059066
v -0.003923 -1.104793 -0.059066
v -0.028459 -1.093280 -0.060489
v -0.264393 0.800592 -0.193257
v 0.264393 0.800592 -0.193257
v 0.870818 0.866040 -0.192273
v -0.870818 0.866040 -0.192273
v 0.028456 -1.093280 -0.060489
v 1.246253 0.370349 -0.193697
v -1.246253 0.370349 0.193697
v 0.428109 -0.812227 -0.102977
v -0.428111 -0.812227 0.102977
v -0.428111 -0.812227 -0.102977
v 0.289070 -0.778760 -0.208280
v 0.428109 -0.812227 0.102977
v -0.289072 -0.778760 0.208281
v 0.289070 -0.778760 0.208281
v 0.096392 -0.779246 0.212201
v -0.096395 -0.779246 0.212201
v -0.289072 -0.778760 -0.208280
v -0.096395 -0.779246 -0.212201
v 0.096392 -0.779246 -0.212201
vn -0.9599 -0.2803 -0.0000
vn -0.9877 0.1566 -0.0000
vn -0.8329 0.1185 -0.5405
vn -0.8117 -0.2584 -0.5237
vn -0.8036 0.5952 -0.0000
vn -0.6764 0.5082 -0.5331
vn -0.4268 0.3254 -0.8438
vn -0.4612 0.0780 -0.8839
vn -0.4612 -0.1823 -0.8683
vn 0.0181 -0.0687 -0.9975
vn 0.0040 0.0983 -0.9951
vn 0.1335 0.0857 -0.9873
vn 0.1394 -0.0969 -0.9855
vn -0.0502 0.4408 -0.8962
vn 0.1946 0.4028 -0.8944
vn 0.4268 0.3254 -0.8438
vn 0.4612 0.0780 -0.8839
vn 0.4612 -0.1823 -0.8683
vn 0.9599 -0.2803 -0.0000
vn 0.9877 0.1566 -0.0000
vn 0.8329 0.1185 0.5405
vn 0.8117 -0.2584 0.5237
vn 0.8036 0.5952 -0.0000
vn 0.6764 0.5082 0.5331
vn 0.4268 0.3254 0.8438
vn 0.4612 0.0780 0.8839
vn 0.4612 -0.1823 0.8683
vn -0.0181 -0.0687 0.9975
vn -0.0040 0.0983 0.9951
vn -0.1335 0.0857 0.9873
vn -0.1394 -0.0969 0.9855
vn 0.0502 0.4408 0.8962
vn -0.1946 0.4028 0.8944
vn -0.4268 0.3254 0.8438
vn -0.4612 0.0780 0.8839
vn -0.4612 -0.1823 0.8683
vn -0.0000 -1.0000 -0.0000
vn 0.5264 -0.8502 -0.0000
vn 0.3856 -0.7637 0.5177
vn 0.1902 -0.7867 0.5872
vn 0.5553 -0.8316 -0.0000
vn 0.4847 -0.7738 0.4078
vn 0.3604 -0.6410 0.6777
vn 0.2225 -0.5737 0.7883
vn 0.0649 -0.4863 0.8714
vn 0.0875 0.9962 -0.0000
vn -0.4311 0.9023 -0.0000
vn -0.3397 0.7600 0.5540
vn 0.0981 0.8378 0.5371
vn -0.6764 0.5082 0.5331
vn 0.4311 0.9023 -0.0000
vn 0.3397 0.7600 0.5540
vn -0.0875 0.9962 -0.0000
vn -0.0981 0.8378 0.5371
vn -0.0502 0.4408 0.8962
vn 0.1946 0.4028 0.8944
vn -0.5124 0.8588 -0.0000
vn -0.4389 0.7869 0.4338
vn -0.0000 1.0000 -0.0000
vn -0.0000 0.9127 0.4087
vn -0.0000 0.5028 0.8644
vn -0.2120 0.4814 0.8505
vn 0.5124 0.8588 -0.0000
vn 0.4389 0.7869 0.4338
vn 0.2120 0.4814 0.8505
vn -0.5553 -0.8316 -0.0000
vn -0.5264 -0.8502 -0.0000
vn -0.3856 -0.7637 0.5177
vn -0.4847 -0.7738 0.4078
vn -0.1902 -0.7867 0.5872
vn -0.0649 -0.4863 0.8714
vn -0.2225 -0.5737 0.7883
vn -0.3604 -0.6410 0.6777
vn -0.0000 -0.7641 0.6451
vn -0.0000 -0.4522 0.8919
vn -0.0003 -0.4522 0.8919
vn 0.0003 -0.4522 0.8919
vn 0.1335 0.0857 0.9873
vn 0.1394 -0.0969 0.9855
vn 0.0040 0.0983 0.9951
vn 0.0181 -0.0687 0.9975
vn -0.0256 0.0986 0.9948
vn 0.0044 -0.0713 0.9974
vn -0.0000 0.0947 0.9955
vn -0.0000 -0.0753 0.9972
vn 0.0256 0.0986 0.9948
vn -0.0044 -0.0713 0.9974
vn -0.1335 0.0857 -0.9873
vn -0.1394 -0.0969 -0.9855
vn -0.1946 0.4028 -0.8944
vn 0.0502 0.4408 -0.8962
vn -0.0040 0.0983 -0.9951
vn -0.0181 -0.0687 -0.9975
vn 0.0256 0.0986 -0.9948
vn -0.0044 -0.0713 -0.9974
vn 0.2120 0.4814 -0.8505
vn -0.0000 0.5028 -0.8644
vn -0.0000 0.0947 -0.9955
vn -0.0000 -0.0753 -0.9972
vn -0.0256 0.0986 -0.9948
vn 0.0044 -0.0713 -0.9974
vn -0.2120 0.4814 -0.8505
vn -0.0000 -0.2675 -0.9636
vn -0.0000 -0.1881 -0.9822
vn 0.0062 -0.1855 -0.9826
vn 0.0036 -0.2666 -0.9638
vn 0.0210 -0.1868 -0.9822
vn 0.0203 -0.2733 -0.9617
vn -0.0203 -0.2733 -0.9617
vn -0.0210 -0.1868 -0.9822
vn -0.0062 -0.1855 -0.9826
vn -0.0036 -0.2666 -0.9638
vn -0.3747 -0.5332 -0.7585
vn -0.4198 -0.4012 -0.8141
vn -0.1402 -0.2485 -0.9584
vn -0.1369 -0.3547 -0.9249
vn -0.0000 -0.2675 0.9636
vn -0.0000 -0.1881 0.9822
vn -0.0062 -0.1855 0.9826
vn -0.0036 -0.2666 0.9638
vn -0.0210 -0.1868 0.9822
vn -0.0203 -0.2733 0.9617
vn 0.0203 -0.2733 0.9617
vn 0.0210 -0.1868 0.9822
vn 0.0062 -0.1855 0.9826
vn 0.0036 -0.2666 0.9638
vn 0.3747 -0.5332 0.7585
vn 0.4198 -0.4012 0.8141
vn 0.1402 -0.2485 0.9584
vn 0.1369 -0.3547 0.9249
vn -0.1402 -0.2485 0.9584
vn -0.1369 -0.3547 0.9249
vn -0.4198 -0.4012 0.8141
vn -0.3747 -0.5332 0.7585
vn 0.6618 -0.7497 -0.0000
vn 0.8043 -0.5942 -0.0000
vn 0.6968 -0.5423 0.4695
vn 0.5848 -0.6909 0.4251
vn 0.1402 -0.2485 -0.9584
vn 0.1369 -0.3547 -0.9249
vn 0.4198 -0.4012 -0.8141
vn 0.3747 -0.5332 -0.7585
vn -0.6618 -0.7497 -0.0000
vn -0.8043 -0.5942 -0.0000
vn -0.6968 -0.5423 -0.4695
vn -0.5848 -0.6909 -0.4251
vn -0.6968 -0.5423 0.4695
vn -0.5848 -0.6909 0.4251
vn -0.8117 -0.2584 0.5237
vn 0.6968 -0.5423 -0.4695
vn 0.5848 -0.6909 -0.4251
vn 0.8117 -0.2584 -0.5237
vn -0.0000 -0.4522 -0.8919
vn 0.0003 -0.4522 -0.8919
vn -0.0000 -0.7641 -0.6451
vn 0.0649 -0.4863 -0.8714
vn 0.1902 -0.7867 -0.5872
vn -0.0649 -0.4863 -0.8714
vn -0.0003 -0.4522 -0.8919
vn -0.1902 -0.7867 -0.5872
vn -0.3604 -0.6410 -0.6777
vn -0.2225 -0.5737 -0.7883
vn -0.3856 -0.7637 -0.5177
vn -0.4847 -0.7738 -0.4078
vn 0.4389 0.7869 -0.4338
vn -0.0000 0.9127 -0.4087
vn 0.0981 0.8378 -0.5371
vn -0.4389 0.7869 -0.4338
vn -0.0981 0.8378 -0.5371
vn 0.3397 0.7600 -0.5540
vn 0.6764 0.5082 -0.5331
vn -0.3397 0.7600 -0.5540
vn 0.2225 -0.5737 -0.7883
vn 0.3856 -0.7637 -0.5177
vn 0.3604 -0.6410 -0.6777
vn 0.4847 -0.7738 -0.4078
vn 0.8329 0.1185 -0.5405
vn -0.8329 0.1185 0.5405
vn 0.3585 -0.6000 -0.7152
vn 0.5270 -0.7512 -0.3976
vn 0.5862 -0.8102 -0.0000
vn -0.3585 -0.6000 0.7152
vn -0.5270 -0.7512 0.3976
vn -0.5862 -0.8102 -0.0000
vn -0.5270 -0.7512 -0.3976
vn -0.3585 -0.6000 -0.7152
vn 0.0231 -0.3400 -0.9401
vn 0.1421 -0.4255 -0.8937
vn 0.5270 -0.7512 0.3976
vn 0.3585 -0.6000 0.7152
vn -0.0231 -0.3400 0.9401
vn -0.1421 -0.4255 0.8937
vn 0.1421 -0.4255 0.8937
vn 0.0231 -0.3400 0.9401
vn 0.0014 -0.3280 0.9447
vn -0.0000 -0.3282 0.9446
vn -0.0014 -0.3280 0.9447
vn -0.1421 -0.4255 -0.8937
vn -0.0231 -0.3400 -0.9401
vn -0.0014 -0.3280 -0.9447
vn -0.0000 -0.3282 -0.9446
vn 0.0014 -0.3280 -0.9447
vt 0.035334 0.260769
vt 0.035150 0.279630
vt 0.035557 0.278709
vt 0.035736 0.260368
vt 0.035989 0.297196
vt 0.036321 0.295305
vt 0.036949 0.291267
vt 0.036649 0.277951
vt 0.036816 0.260006
vt 0.047196 0.260476
vt 0.047202 0.280673
vt 0.049073 0.279901
vt 0.048971 0.260451
vt 0.047129 0.299162
vt 0.049037 0.297057
vt 0.050393 0.291267
vt 0.050693 0.277951
vt 0.050526 0.260006
vt 0.052008 0.260769
vt 0.052192 0.279630
vt 0.051786 0.278709
vt 0.051606 0.260368
vt 0.051353 0.297196
vt 0.051021 0.295305
vt 0.040147 0.260476
vt 0.040140 0.280673
vt 0.038269 0.279901
vt 0.038371 0.260451
vt 0.040213 0.299162
vt 0.038305 0.297057
vt 0.043671 0.192996
vt 0.043790 0.193686
vt 0.043856 0.195087
vt 0.043722 0.194429
vt 0.044620 0.198516
vt 0.044638 0.199721
vt 0.044844 0.203044
vt 0.044350 0.201010
vt 0.044080 0.200589
vt 0.039933 0.314074
vt 0.037778 0.310148
vt 0.038001 0.307029
vt 0.040065 0.310467
vt 0.049564 0.310148
vt 0.049341 0.307029
vt 0.047410 0.314074
vt 0.047277 0.310467
vt 0.045454 0.306212
vt 0.045393 0.303290
vt 0.043671 0.292815
vt 0.043671 0.291618
vt 0.043671 0.289074
vt 0.045335 0.294055
vt 0.041888 0.306212
vt 0.041950 0.303290
vt 0.042007 0.294055
vt 0.042722 0.198516
vt 0.043552 0.193686
vt 0.043486 0.195087
vt 0.042704 0.199721
vt 0.043620 0.194429
vt 0.043262 0.200589
vt 0.042992 0.201010
vt 0.042498 0.203044
vt 0.043646 0.194429
vt 0.043671 0.194429
vt 0.043671 0.200589
vt 0.043467 0.200589
vt 0.043697 0.194429
vt 0.043875 0.200589
vt 0.045399 0.277580
vt 0.045421 0.259066
vt 0.043671 0.275157
vt 0.043671 0.258036
vt 0.041943 0.277580
vt 0.041921 0.259066
vt 0.045399 0.277580
vt 0.043671 0.228262
vt 0.043671 0.242823
vt 0.045217 0.243135
vt 0.044811 0.228340
vt 0.046767 0.243616
vt 0.045950 0.228468
vt 0.041392 0.228468
vt 0.040576 0.243616
vt 0.042125 0.243135
vt 0.042532 0.228340
vt 0.039309 0.227947
vt 0.037733 0.243519
vt 0.039055 0.243730
vt 0.040277 0.228454
vt 0.043671 0.228262
vt 0.043671 0.242823
vt 0.041392 0.228468
vt 0.045950 0.228468
vt 0.048033 0.227947
vt 0.049609 0.243519
vt 0.048287 0.243730
vt 0.047065 0.228454
vt 0.039055 0.243730
vt 0.040277 0.228454
vt 0.037733 0.243519
vt 0.048963 0.226176
vt 0.050877 0.243012
vt 0.050532 0.243188
vt 0.048709 0.226840
vt 0.048287 0.243730
vt 0.047065 0.228454
vt 0.038380 0.226176
vt 0.036465 0.243012
vt 0.036811 0.243188
vt 0.038633 0.226840
vt 0.043875 0.200589
vt 0.043467 0.200589
vt 0.045393 0.303290
vt 0.044638 0.199721
vt 0.046125 0.212723
vt 0.046459 0.211144
vt 0.046585 0.210253
vt 0.041218 0.212723
vt 0.040884 0.211144
vt 0.040757 0.210253
vt 0.044926 0.213044
vt 0.045553 0.213056
vt 0.042416 0.213044
vt 0.041789 0.213056
vt 0.044299 0.213028
vt 0.043671 0.213019
vt 0.043043 0.213028
vt 0.043043 0.213028
vt 0.043671 0.213019
vt 0.044299 0.213028
s 1
usemtl BaseMaterial
f 40/1/1 130/2/2 155/3/3 108/4/4
f 130/2/2 32/5/5 55/6/6 155/3/3
f 155/3/3 55/6/6 4/7/7 90/8/8
f 108/4/4 155/3/3 90/8/8 22/9/9
f 30/10/10 98/11/11 156/12/12 107/13/13
f 98/11/11 14/14/14 58/15/15 156/12/12
f 156/12/12 58/15/15 8/16/16 91/17/17
f 107/13/13 156/12/12 91/17/17 23/18/18
f 39/19/19 129/20/20 157/21/21 106/22/22
f 129/20/20 34/23/23 61/24/24 157/21/21
f 157/21/21 61/24/24 6/16/25 92/17/26
f 106/22/22 157/21/21 92/17/26 24/18/27
f 27/25/28 95/26/29 158/27/30 105/28/31
f 95/26/29 20/29/32 64/30/33 158/27/30
f 158/27/30 64/30/33 2/7/34 54/8/35
f 105/28/31 158/27/30 54/8/35 21/9/36
f 38/31/37 128/32/38 159/33/39 82/34/40
f 128/32/38 33/35/41 111/36/42 159/33/39
f 159/33/39 111/36/42 5/37/43 63/38/44
f 82/34/40 159/33/39 63/38/44 17/39/45
f 37/40/46 127/41/47 160/42/48 79/43/49
f 127/41/47 32/5/5 110/6/50 160/42/48
f 160/42/48 110/6/50 2/7/34 64/30/33
f 79/43/49 160/42/48 64/30/33 20/29/32
f 34/23/23 126/44/51 161/45/52 61/24/24
f 126/44/51 35/46/53 77/47/54 161/45/52
f 161/45/52 77/47/54 18/14/55 74/15/56
f 61/24/24 161/45/52 74/15/56 6/16/25
f 35/46/53 125/48/57 162/49/58 77/47/54
f 125/48/57 36/50/59 78/51/60 162/49/58
f 162/49/58 78/51/60 19/52/61 75/53/62
f 77/47/54 162/49/58 75/53/62 18/14/55
f 36/50/59 124/54/63 163/55/64 78/51/60
f 124/54/63 37/40/46 79/43/49 163/55/64
f 163/55/64 79/43/49 20/29/32 76/56/65
f 78/51/60 163/55/64 76/56/65 19/52/61
f 31/57/66 123/58/67 164/59/68 53/60/69
f 123/58/67 38/31/37 80/61/70 164/59/68
f 164/59/68 80/61/70 15/62/71 71/63/72
f 53/60/69 164/59/68 71/63/72 1/64/73
f 38/31/37 165/65/74 80/61/70
f 38/31/37 81/66/74 165/65/74
f 165/65/74 81/66/74 16/67/75 72/68/76
f 80/61/70 165/65/74 72/68/76 15/62/71
f 38/31/37 166/69/74 81/66/74
f 38/31/37 82/34/40 166/69/74
f 166/69/74 82/34/40 17/39/45 73/70/77
f 81/66/74 166/69/74 73/70/77 16/67/75
f 24/18/27 92/17/26 167/12/78 104/13/79
f 92/17/26 6/16/25 74/15/56 167/12/78
f 167/12/78 74/15/56 18/14/55 93/11/80
f 104/13/79 167/12/78 93/11/80 25/10/81
f 25/10/81 93/11/80 168/71/82 103/72/83
f 93/11/80 18/14/55 75/53/62 168/71/82
f 168/71/82 75/53/62 19/52/61 94/73/84
f 103/72/83 168/71/82 94/73/84 26/74/85
f 26/74/85 94/73/84 169/75/86 102/76/87
f 94/73/84 19/52/61 76/56/65 169/75/86
f 169/75/86 76/56/65 20/29/32 95/26/29
f 102/76/87 169/75/86 95/26/29 27/25/28
f 22/9/9 90/8/8 170/27/88 101/28/89
f 90/8/8 4/7/7 68/30/90 170/27/88
f 170/27/88 68/30/90 12/29/91 96/26/92
f 101/28/89 170/27/88 96/26/92 28/25/93
f 28/25/93 96/26/92 171/75/94 100/76/95
f 96/26/92 12/29/91 69/56/96 171/75/94
f 171/75/94 69/56/96 13/52/97 97/73/98
f 100/76/95 171/75/94 97/73/98 29/74/99
f 29/74/99 97/73/98 172/77/100 99/72/101
f 97/73/98 13/52/97 70/53/102 172/77/100
f 172/77/100 70/53/102 14/14/14 98/11/11
f 99/72/101 172/77/100 98/11/11 30/10/10
f 48/78/103 138/79/104 173/80/105 154/81/106
f 138/79/104 29/74/99 99/72/101 173/80/105
f 173/80/105 99/72/101 30/10/10 139/82/107
f 154/81/106 173/80/105 139/82/107 49/83/108
f 47/84/109 137/85/110 174/86/111 153/87/112
f 137/85/110 28/25/93 100/76/95 174/86/111
f 174/86/111 100/76/95 29/74/99 138/79/104
f 153/87/112 174/86/111 138/79/104 48/78/103
f 41/88/113 131/89/114 175/90/115 152/91/116
f 131/89/114 22/9/9 101/28/89 175/90/115
f 175/90/115 101/28/89 28/25/93 137/85/110
f 152/91/116 175/90/115 137/85/110 47/84/109
f 45/92/117 135/93/118 176/86/119 151/87/120
f 135/93/118 26/74/85 102/76/87 176/86/119
f 176/86/119 102/76/87 27/25/28 136/85/121
f 151/87/120 176/86/119 136/85/121 46/94/122
f 44/95/123 134/82/124 177/80/125 150/81/126
f 134/82/124 25/10/81 103/72/83 177/80/125
f 177/80/125 103/72/83 26/74/85 135/93/118
f 150/81/126 177/80/125 135/93/118 45/92/117
f 43/96/127 133/97/128 178/98/129 149/99/130
f 133/97/128 24/18/27 104/13/79 178/98/129
f 178/98/129 104/13/79 25/10/81 134/82/124
f 149/99/130 178/98/129 134/82/124 44/95/123
f 46/94/122 136/85/121 179/100/131 148/101/132
f 136/85/121 27/25/28 105/28/31 179/100/131
f 179/100/131 105/28/31 21/9/36 89/102/133
f 148/101/132 179/100/131 89/102/133 50/88/134
f 52/103/135 142/104/136 180/105/137 147/106/138
f 142/104/136 39/19/19 106/22/22 180/105/137
f 180/105/137 106/22/22 24/18/27 133/97/128
f 147/106/138 180/105/137 133/97/128 43/96/127
f 49/83/108 139/82/107 181/107/139 146/108/140
f 139/82/107 30/10/10 107/13/13 181/107/139
f 181/107/139 107/13/13 23/18/18 132/97/141
f 146/108/140 181/107/139 132/97/141 42/96/142
f 51/109/143 141/110/144 182/111/145 145/112/146
f 141/110/144 40/1/1 108/4/4 182/111/145
f 182/111/145 108/4/4 22/9/9 131/89/114
f 145/112/146 182/111/145 131/89/114 41/88/113
f 50/88/134 89/102/133 183/111/147 144/112/148
f 89/102/133 21/9/36 120/4/149 183/111/147
f 183/111/147 120/4/149 40/1/1 141/110/144
f 144/112/148 183/111/147 141/110/144 51/109/143
f 42/96/142 132/97/141 184/105/150 143/106/151
f 132/97/141 23/18/18 119/22/152 184/105/150
f 184/105/150 119/22/152 39/19/19 142/104/136
f 143/106/151 184/105/150 142/104/136 52/103/135
f 10/67/153 66/113/154 185/69/155 117/66/155
f 66/113/154 9/39/156 118/34/157 185/69/155
f 185/69/155 118/34/157 38/31/37
f 117/66/155 185/69/155 38/31/37
f 11/62/158 67/114/159 186/65/155 116/61/160
f 67/114/159 10/67/153 117/66/155 186/65/155
f 186/65/155 117/66/155 38/31/37
f 116/61/160 186/65/155 38/31/37
f 3/64/161 57/63/162 187/59/163 109/60/164
f 57/63/162 11/62/158 116/61/160 187/59/163
f 187/59/163 116/61/160 38/31/37 123/58/67
f 109/60/164 187/59/163 123/58/67 31/57/66
f 13/52/97 69/56/96 188/55/165 114/51/166
f 69/56/96 12/29/91 115/43/167 188/55/165
f 188/55/165 115/43/167 37/40/46 124/54/63
f 114/51/166 188/55/165 124/54/63 36/50/59
f 14/14/14 70/53/102 189/115/168 113/47/169
f 70/53/102 13/52/97 114/51/166 189/115/168
f 189/115/168 114/51/166 36/50/59 125/48/57
f 113/47/169 189/115/168 125/48/57 35/46/53
f 8/16/16 58/15/15 190/45/170 112/24/171
f 58/15/15 14/14/14 113/47/169 190/45/170
f 190/45/170 113/47/169 35/46/53 126/44/51
f 112/24/171 190/45/170 126/44/51 34/23/23
f 12/29/91 68/30/90 191/42/172 115/43/167
f 68/30/90 4/7/7 55/6/6 191/42/172
f 191/42/172 55/6/6 32/5/5 127/41/47
f 115/43/167 191/42/172 127/41/47 37/40/46
f 9/39/156 65/38/173 192/33/174 118/34/157
f 65/38/173 7/37/175 60/116/176 192/33/174
f 192/33/174 60/116/176 33/35/41 128/32/38
f 118/34/157 192/33/174 128/32/38 38/31/37
f 23/18/18 91/17/17 193/21/177 119/22/152
f 91/17/17 8/16/16 112/24/171 193/21/177
f 193/21/177 112/24/171 34/23/23 129/20/20
f 119/22/152 193/21/177 129/20/20 39/19/19
f 21/9/36 54/8/35 194/3/178 120/4/149
f 54/8/35 2/7/34 110/6/50 194/3/178
f 194/3/178 110/6/50 32/5/5 130/2/2
f 120/4/149 194/3/178 130/2/2 40/1/1
f 7/37/175 59/117/179 195/118/180 60/116/176
f 59/117/179 42/96/142 143/106/151 195/118/180
f 195/118/180 143/106/151 52/103/135 122/119/181
f 60/116/176 195/118/180 122/119/181 33/35/41
f 1/64/73 140/120/182 196/121/183 53/60/69
f 140/120/182 50/88/134 144/112/148 196/121/183
f 196/121/183 144/112/148 51/109/143 121/122/184
f 53/60/69 196/121/183 121/122/184 31/57/66
f 31/57/66 121/122/184 197/121/185 109/60/164
f 121/122/184 51/109/143 145/112/146 197/121/185
f 197/121/185 145/112/146 41/88/113 56/120/186
f 109/60/164 197/121/185 56/120/186 3/64/161
f 9/39/156 88/123/187 198/124/188 65/38/173
f 88/123/187 49/83/108 146/108/140 198/124/188
f 198/124/188 146/108/140 42/96/142 59/117/179
f 65/38/173 198/124/188 59/117/179 7/37/175
f 33/35/41 122/119/181 199/118/189 111/36/42
f 122/119/181 52/103/135 147/106/138 199/118/189
f 199/118/189 147/106/138 43/96/127 62/117/190
f 111/36/42 199/118/189 62/117/190 5/37/43
f 15/62/71 85/125/191 200/126/192 71/63/72
f 85/125/191 46/94/122 148/101/132 200/126/192
f 200/126/192 148/101/132 50/88/134 140/120/182
f 71/63/72 200/126/192 140/120/182 1/64/73
f 5/37/43 62/117/190 201/124/193 63/38/44
f 62/117/190 43/96/127 149/99/130 201/124/193
f 201/124/193 149/99/130 44/95/123 83/123/194
f 63/38/44 201/124/193 83/123/194 17/39/45
f 17/39/45 83/123/194 202/127/195 73/70/77
f 83/123/194 44/95/123 150/81/126 202/127/195
f 202/127/195 150/81/126 45/92/117 84/128/196
f 73/70/77 202/127/195 84/128/196 16/67/75
f 16/67/75 84/128/196 203/129/197 72/68/76
f 84/128/196 45/92/117 151/87/120 203/129/197
f 203/129/197 151/87/120 46/94/122 85/125/191
f 72/68/76 203/129/197 85/125/191 15/62/71
f 3/64/161 56/120/186 204/126/198 57/63/162
f 56/120/186 41/88/113 152/91/116 204/126/198
f 204/126/198 152/91/116 47/84/109 86/125/199
f 57/63/162 204/126/198 86/125/199 11/62/158
f 11/62/158 86/125/199 205/130/200 67/114/159
f 86/125/199 47/84/109 153/87/112 205/130/200
f 205/130/200 153/87/112 48/78/103 87/131/201
f 67/114/159 205/130/200 87/131/201 10/67/153
f 10/67/153 87/131/201 206/132/202 66/113/154
f 87/131/201 48/78/103 154/81/106 206/132/202
f 206/132/202 154/81/106 49/83/108 88/123/187
f 66/113/154 206/132/202 88/123/187 9/39/156
