# Blender 4.4.3
# www.blender.org
mtllib Landbridge 1.mtl
o Island_Fragment_1.001
v -1.447690 0.048493 1.234844
v -1.753297 0.004404 0.064803
v -0.425493 -0.011178 1.785395
v -0.311089 -2.351435 0.316522
v -0.849939 -1.711604 0.197066
v -0.365810 -1.780109 0.817264
v -0.949516 -0.779591 0.985223
v -1.297486 0.136011 1.449811
v -0.505924 -0.659845 1.430337
v -1.165346 -0.875210 0.560670
v -1.317657 -1.153470 0.142514
v -1.533789 -0.362432 0.468725
v -0.629598 -1.171935 0.833185
v -0.081966 -1.092464 1.166588
v -1.632961 1.803859 2.062355
v -1.842915 2.262221 1.954204
v -2.310963 3.023390 1.529887
v -1.836186 2.611468 2.195661
v -1.892883 3.214125 1.900973
v -2.658508 1.466017 0.602694
v -1.701681 0.731497 1.269425
v -1.967703 1.378658 1.585315
v -2.151226 0.657438 0.502215
v -2.043282 0.874564 -0.810035
v -2.534134 1.063974 0.560192
v -2.400884 2.182510 1.104880
v -2.460384 3.225368 1.105263
v -2.788389 2.877426 0.738934
v -2.667120 1.902465 0.599659
v -2.447486 2.709001 1.454300
v -0.625326 3.225805 -1.780655
v -1.431751 0.999601 1.939860
v -1.101283 0.717859 2.069470
v -1.031053 1.192912 2.417616
v 0.050900 1.380917 2.547740
v -0.489622 0.389273 1.964714
v -0.284824 0.831580 2.175748
v -0.675056 1.209572 2.554996
v -1.380742 2.315476 2.512827
v -1.075863 1.916938 2.474375
v -1.408074 2.802097 2.750357
v -1.313162 2.988467 2.688524
v -0.552468 3.237184 2.257689
v -0.487294 1.967546 2.589963
v -0.941336 2.503802 2.800421
v -0.082803 2.944063 2.643093
v -1.686019 0.139270 -0.847889
v -0.868352 -1.766165 -0.531966
v -0.142566 -2.774060 -0.662780
v -0.873215 -1.939705 -0.248166
v -0.198935 -2.540409 -0.835636
v -0.222919 -1.389691 -1.366624
v -1.155490 -1.228819 -0.558765
v -1.493284 -0.537169 -0.763300
v -1.027499 -0.345657 -1.515198
v -1.548011 0.218704 -1.453215
v -0.173365 -1.649640 -1.038669
v -0.336723 -0.634813 -1.759137
v -0.077606 -1.089394 -1.685736
v -0.442254 -0.104591 -1.816374
v -2.409879 1.435210 -0.912027
v -1.911739 0.844805 -1.018448
v -2.242184 1.406443 -1.317454
v -1.739648 1.075680 -1.486479
v -2.500679 2.010576 -0.981493
v -2.851237 2.917817 0.173899
v -2.566415 2.908608 -0.857829
v -2.291817 1.886772 -1.441272
v -1.952450 2.814859 -1.666607
v -1.812805 1.862373 -1.894304
v -2.030264 3.210621 -1.043935
v -1.431271 0.745730 -1.746794
v -1.070433 0.907174 -2.047306
v -0.175173 0.500090 -2.148672
v -0.610864 1.381739 -2.430877
v 0.131736 1.126216 -2.541048
v -1.485790 2.404036 -2.048789
v -1.282284 1.548326 -2.139426
v -0.791910 2.328355 -2.460635
v -1.110948 2.828747 -2.036621
v -0.709242 2.828877 -2.347289
v -0.243030 2.392193 -2.719972
v -0.080430 2.672853 -2.708650
v 0.301713 -0.300824 1.714413
v 0.610157 -0.260522 1.619482
v 1.028582 -0.093406 1.384452
v 0.451519 -1.733717 0.864645
v 0.192544 -2.340215 0.310033
v 0.415051 -2.302941 0.229502
v 0.925476 -1.766284 0.217771
v 0.631584 -0.813947 1.312395
v 0.811196 -1.434935 0.765280
v 1.085169 -1.021839 0.756656
v 1.302041 -1.304104 0.102162
v 1.577118 -0.499423 0.229781
v 0.722399 1.511995 2.460033
v 0.534585 0.673658 2.078697
v 0.486264 0.962644 2.348118
v 0.921785 0.473457 1.913413
v 1.434431 1.479554 2.139296
v 0.453430 2.220093 2.634846
v 1.270857 3.188825 1.576374
v 1.202118 2.106499 2.523078
v 1.481150 2.656096 2.534736
v 1.279618 2.964313 2.603124
v 1.646413 2.181767 2.050703
v 1.959811 1.632427 1.590057
v 1.627383 0.693513 1.342860
v 1.820128 0.408637 0.698403
v 2.605906 3.120809 0.852894
v 1.581263 3.194571 -1.110839
v 2.337678 2.634324 1.394521
v 1.952208 2.937344 1.792354
v 2.320840 1.261226 1.016934
v 2.228655 0.526834 0.028733
v 2.514716 1.039977 0.468595
v 2.606113 1.474208 0.654616
v 2.477686 1.081109 -0.013918
v 2.337973 1.985772 1.208556
v 2.817736 2.874074 0.659936
v 2.497663 1.727305 -0.249668
v 2.657752 2.876205 0.158576
v 0.153279 -2.841868 -0.676849
v 0.634111 -2.267512 -0.638638
v 0.987787 -1.843279 -0.487783
v 0.274042 -1.916135 -1.122893
v 0.349164 -1.413033 -1.504885
v 0.778516 -1.895904 -0.923070
v 0.920852 -1.434734 -1.070482
v 0.412247 -0.642063 -1.551590
v 0.603616 -0.057590 -1.694014
v 1.233228 -1.301891 -0.624645
v 1.491516 -0.569461 -0.504862
v 1.447809 -0.832682 -0.107194
v 1.223389 -0.503246 -0.992180
v 1.002614 -0.036472 -1.411072
v 1.568388 -0.162295 -1.027628
v 0.148158 -0.269588 -1.775373
v 2.322178 0.570927 -0.211890
v 1.044334 2.848558 -2.011088
v 0.247253 0.338170 -2.103273
v 0.193243 0.763068 -2.421350
v 0.343449 1.442208 -2.537092
v 0.887262 0.683440 -2.215144
v 1.387841 1.369207 -1.920579
v 0.874835 2.342373 -2.469810
v 0.401146 2.995392 -1.797015
v 0.460449 2.861363 -2.303171
v 0.652358 2.145650 -2.638195
v 1.797466 1.937523 -1.818414
v 1.493179 2.367064 -2.066768
v 2.139143 0.491013 -0.802569
v 1.861408 0.718954 -1.376841
v 2.148955 1.148040 -0.971179
v 1.919294 1.505734 -1.478863
v 2.196446 2.254157 -1.438857
v 2.554841 2.847655 -0.280060
v 2.423182 2.888412 -0.905355
v 2.397884 2.161138 -1.018256
v 2.149965 2.764480 -1.437424
v 1.324240 0.506835 -1.843369
vn -0.7074 -0.5030 0.4966
vn -0.3871 -0.4053 0.8282
vn -0.7887 -0.5004 0.3571
vn -0.7943 -0.4937 0.3541
vn -0.7876 -0.5018 0.3577
vn -0.6847 -0.5545 0.4730
vn -0.7242 -0.4226 0.5450
vn -0.4641 -0.6226 0.6300
vn -0.1007 -0.4681 0.8779
vn -0.4813 -0.2309 0.8456
vn -0.7045 0.2572 0.6615
vn -0.7925 -0.3012 0.5303
vn -0.7294 -0.6628 -0.1697
vn -0.8339 0.2947 0.4667
vn -0.7864 0.6038 0.1306
vn -0.6840 0.5355 0.4954
vn -0.8846 -0.3097 0.3486
vn -0.8260 -0.1791 0.5345
vn -0.6331 -0.4542 0.6269
vn 0.1532 -0.6166 0.7722
vn 0.2842 -0.5169 0.8075
vn -0.1083 0.9317 0.3467
vn -0.1333 -0.4578 0.8790
vn -0.7540 0.5180 0.4039
vn 0.0506 0.8237 0.5648
vn -0.7205 -0.2996 0.6254
vn 0.0088 0.9999 0.0079
vn -0.7471 -0.1920 0.6364
vn -0.6850 -0.4053 0.6054
vn -0.6957 -0.5252 0.4901
vn -0.3714 -0.6153 0.6953
vn -0.7489 0.1713 0.6401
vn -0.5377 -0.5350 0.6517
vn -0.8180 -0.1026 0.5660
vn -0.6701 -0.2547 0.6972
vn -0.5786 -0.0993 0.8096
vn -0.3545 -0.0949 0.9302
vn -0.7732 -0.5350 -0.3404
vn -0.6933 -0.6974 0.1817
vn -0.5138 -0.4956 -0.7003
vn -0.5419 -0.4706 -0.6964
vn -0.6090 -0.5919 -0.5280
vn -0.3923 -0.1756 -0.9029
vn -0.5229 -0.3188 -0.7905
vn -0.9025 -0.3496 -0.2516
vn -0.7786 -0.5605 -0.2823
vn -0.9372 -0.3283 -0.1176
vn -0.5505 0.6717 -0.4957
vn -0.9114 -0.0101 -0.4113
vn -0.5324 -0.2902 -0.7952
vn -0.4388 -0.2682 -0.8576
vn -0.2709 -0.4123 -0.8698
vn -0.4215 -0.0042 -0.9068
vn -0.5127 -0.0310 -0.8580
vn -0.2814 0.7389 -0.6123
vn -0.4145 -0.1077 -0.9037
vn -0.4150 -0.1078 -0.9034
vn -0.4178 -0.1083 -0.9020
vn -0.3808 0.7829 -0.4920
vn -0.5333 0.4904 -0.6893
vn -0.4363 0.2872 -0.8527
vn -0.4699 0.2681 -0.8410
vn -0.8364 -0.1135 -0.5363
vn -0.7978 -0.3701 -0.4759
vn -0.5692 0.1113 -0.8146
vn -0.4724 -0.3467 -0.8103
vn -0.2911 0.7905 -0.5388
vn 0.3419 -0.7095 0.6162
vn 0.6327 -0.5967 0.4936
vn 0.6324 -0.5972 0.4934
vn 0.6337 -0.5952 0.4942
vn 0.7459 -0.4852 0.4564
vn 0.7434 -0.4918 0.4533
vn 0.7457 -0.4857 0.4561
vn 0.8324 -0.3524 0.4278
vn 0.3639 -0.1314 0.9221
vn 0.7433 -0.4923 0.4530
vn 0.3739 -0.3368 0.8642
vn 0.1761 -0.2686 0.9470
vn 0.3950 -0.3882 0.8326
vn 0.7338 -0.1374 0.6653
vn 0.7298 -0.1441 0.6683
vn 0.7324 -0.1407 0.6662
vn 0.1048 0.9717 0.2116
vn 0.0057 0.7993 0.6009
vn 0.7052 -0.3709 0.6042
vn 0.6412 -0.4560 0.6171
vn 0.6400 -0.4635 0.6128
vn 0.6413 -0.4554 0.6175
vn 0.0219 0.9994 0.0261
vn 0.7541 -0.3216 0.5726
vn 0.6937 -0.6510 0.3083
vn 0.9817 -0.1682 -0.0897
vn 0.8241 -0.3606 0.4369
vn 0.9764 -0.1470 -0.1582
vn 0.6590 0.7235 -0.2057
vn 0.6641 0.7193 -0.2038
vn 0.6567 0.7253 -0.2065
vn 0.8406 -0.1291 0.5261
vn 0.7802 0.2213 0.5851
vn 0.7835 0.2226 0.5801
vn 0.7833 0.2168 0.5826
vn 0.8493 -0.1452 0.5076
vn 0.7281 0.3446 0.5925
vn 0.2819 0.9378 0.2027
vn 0.2297 0.9127 0.3381
vn 0.7796 0.2237 0.5850
vn 0.7804 0.2288 0.5819
vn 0.1616 -0.1783 0.9706
vn 0.7763 -0.1777 0.6048
vn 0.7753 -0.1744 0.6070
vn 0.7764 -0.1782 0.6045
vn 0.8197 -0.1645 0.5487
vn 0.3145 -0.6034 -0.7328
vn 0.7815 -0.5412 -0.3103
vn 0.7303 -0.6648 0.1572
vn 0.5998 -0.0972 -0.7942
vn 0.4097 -0.4943 -0.7667
vn 0.6129 -0.6646 -0.4275
vn 0.8113 -0.5246 -0.2581
vn 0.5439 -0.4031 -0.7360
vn 0.3440 -0.6247 -0.7010
vn 0.6163 -0.1152 -0.7791
vn 0.5728 -0.0666 -0.8170
vn 0.5402 0.1039 -0.8351
vn 0.4307 0.4892 -0.7584
vn 0.3412 0.3581 -0.8691
vn 0.4556 0.5092 -0.7302
vn 0.3844 0.5459 -0.7445
vn 0.3760 0.5416 -0.7519
vn 0.3835 0.5455 -0.7452
vn 0.8675 -0.1265 -0.4811
vn 0.8674 -0.1262 -0.4813
vn 0.8699 -0.1343 -0.4746
vn 0.7946 -0.2651 -0.5462
vn 0.3977 0.8272 -0.3969
vn 0.3442 0.9388 -0.0113
vn 0.6796 -0.4542 -0.5760
vn 0.7216 -0.4488 -0.5271
vn 0.2909 -0.6952 -0.6573
vn 0.6806 -0.1432 -0.7185
vn 0.6615 0.0624 -0.7474
vn 0.8564 -0.2319 -0.4614
vn 0.7643 -0.2513 -0.5938
vn 0.9354 -0.2418 -0.2579
vn 0.6505 -0.3475 -0.6753
vn 0.0210 -0.5054 0.8627
vn 0.0218 -0.4387 0.8984
vn -0.0372 -0.0389 0.9985
vn -0.2971 -0.2041 -0.9328
vn 0.0414 -0.0991 -0.9942
vn -0.2008 -0.6661 -0.7183
vn -0.3851 -0.3471 -0.8551
vn 0.0880 -0.0108 -0.9961
vn -0.0098 0.9117 -0.4107
vn -0.8760 -0.4808 0.0394
vn -0.7373 -0.5848 0.3382
vn 0.2966 -0.8560 0.4233
vn 0.9475 -0.3157 -0.0513
vn 0.8407 -0.5101 0.1819
vn 0.7844 -0.6053 0.1353
vn -0.8852 -0.4417 -0.1459
vn -0.9489 -0.2777 -0.1501
vn -0.9867 -0.0206 -0.1615
vn -0.8555 -0.5178 -0.0053
vn -0.7950 -0.4929 0.3537
vn 0.7301 -0.4574 0.5077
vn 0.3682 -0.4872 -0.7918
vn 0.7652 -0.5576 -0.3218
vn -0.2151 -0.5854 0.7817
vn -0.6000 -0.5478 0.5831
vn -0.2989 -0.6929 0.6561
vn -0.6319 -0.4692 0.6169
vn -0.5971 -0.6623 0.4527
vn -0.7584 -0.3434 0.5540
vn -0.8024 -0.3238 0.5014
vn -0.7132 -0.5217 0.4682
vn -0.5858 -0.6253 0.5156
vn -0.8015 -0.2376 0.5488
vn -0.8608 0.2701 0.4314
vn -0.9855 -0.1368 0.0998
vn -0.6658 -0.3040 0.6814
vn -0.0687 -0.4169 0.9064
vn -0.0707 -0.4171 0.9061
vn -0.0762 -0.4176 0.9054
vn -0.6124 -0.4064 0.6781
vn 0.0501 0.2610 0.9640
vn -0.4756 -0.4375 0.7632
vn 0.2557 -0.1578 0.9538
vn -0.7412 -0.3983 0.5404
vn -0.3881 -0.3780 0.8405
vn -0.3609 -0.4254 0.8299
vn -0.6782 -0.3528 0.6447
vn -0.7504 0.2320 0.6189
vn -0.7886 -0.3916 0.4741
vn -0.8803 -0.4336 -0.1925
vn -0.7904 -0.0616 0.6095
vn -0.8813 -0.0141 0.4723
vn 0.0221 -0.0515 0.9984
vn -0.1929 0.0025 0.9812
vn -0.5621 -0.1684 -0.8097
vn -0.7788 -0.4835 -0.3996
vn -0.8700 -0.4695 -0.1507
vn -0.6480 -0.5385 -0.5386
vn -0.7104 -0.5999 -0.3681
vn -0.9518 -0.2853 -0.1123
vn -0.4464 -0.3849 -0.8078
vn -0.6305 -0.6197 -0.4673
vn -0.7113 -0.6020 -0.3630
vn -0.2821 -0.3766 -0.8824
vn -0.8006 -0.5615 -0.2092
vn -0.5247 0.8376 -0.1523
vn -0.9635 -0.0339 -0.2657
vn -0.7811 0.1378 -0.6090
vn -0.6833 0.0735 -0.7264
vn -0.5005 -0.3529 -0.7905
vn -0.9123 -0.1880 -0.3639
vn -0.2876 -0.4180 -0.8617
vn -0.3805 0.3602 -0.8518
vn -0.4297 0.2664 -0.8628
vn -0.0161 0.9998 -0.0101
vn -0.7398 -0.1799 -0.6484
vn 0.1403 -0.1045 0.9846
vn -0.9790 -0.1683 -0.1146
vn -0.5287 -0.4289 -0.7325
vn -0.2100 -0.1975 -0.9575
vn -0.4183 -0.1084 -0.9018
vn -0.6721 -0.2492 -0.6972
vn -0.5732 -0.4185 -0.7045
vn 0.6349 -0.5931 0.4951
vn 0.0954 -0.6424 0.7604
vn 0.6292 -0.4034 0.6644
vn 0.6255 -0.4099 0.6639
vn 0.6284 -0.4047 0.6643
vn 0.5640 -0.3839 0.7311
vn 0.8246 -0.2816 0.4907
vn 0.3159 -0.4510 0.8348
vn 0.6250 -0.4108 0.6638
vn 0.0634 -0.5596 0.8263
vn -0.0457 -0.6853 0.7268
vn -0.0439 -0.6852 0.7271
vn -0.0444 -0.6852 0.7270
vn 0.0010 0.9977 -0.0682
vn 0.0292 0.0102 0.9995
vn 0.6651 -0.4878 0.5654
vn 0.1155 -0.1965 0.9737
vn 0.7225 -0.5261 0.4486
vn 0.0175 0.9980 -0.0615
vn 0.6740 -0.5710 0.4687
vn 0.9413 -0.3232 -0.0973
vn 0.7752 -0.1738 0.6074
vn 0.6400 -0.4637 0.6127
vn 0.7294 -0.1446 0.6687
vn 0.7345 -0.1349 0.6650
vn 0.3646 -0.3841 0.8482
vn 0.9866 -0.0820 -0.1413
vn 0.7147 -0.4035 0.5713
vn 0.7511 -0.6397 0.1634
vn 0.3021 -0.6507 -0.6967
vn 0.5568 -0.4184 -0.7176
vn 0.5622 -0.3773 -0.7360
vn 0.5775 -0.1197 -0.8076
vn 0.8350 -0.2215 -0.5036
vn 0.8148 -0.4265 -0.3926
vn 0.3087 -0.3194 -0.8959
vn 0.5615 -0.0957 -0.8219
vn 0.8990 -0.4294 -0.0864
vn 0.1863 -0.5979 -0.7797
vn 0.1759 0.8222 -0.5413
vn 0.0118 0.9999 0.0077
vn 0.9444 -0.1528 -0.2911
vn 0.5083 -0.0011 -0.8612
vn 0.3669 -0.2346 -0.9002
vn 0.2551 -0.2170 -0.9423
vn 0.1402 0.9611 -0.2381
vn 0.3754 0.5413 -0.7524
vn 0.8929 0.0566 -0.4467
vn 0.8700 -0.1347 -0.4742
vn 0.9261 -0.1067 -0.3619
vn 0.9838 -0.0361 -0.1756
vn 0.0061 -0.6679 0.7442
vn 0.3208 0.8042 -0.5004
vn 0.6523 -0.1152 -0.7492
vn 0.6744 0.0519 -0.7366
vn 0.0766 0.9145 -0.3972
vn 0.5357 -0.2406 -0.8094
vn 0.4644 -0.3225 -0.8248
vn -0.3328 -0.6363 -0.6959
vn -0.0021 -0.6176 0.7865
vn -0.0267 -0.4440 0.8956
vn -0.0460 -0.6853 0.7268
vn -0.1031 -0.5138 0.8517
vn -0.0227 -0.0925 0.9955
vn 0.1824 -0.1564 -0.9707
vn 0.0311 -0.4371 -0.8989
vn -0.1770 -0.6126 -0.7703
vn 0.0860 0.8921 -0.4435
vn -0.1477 -0.6047 -0.7827
vn 0.0850 -0.1375 -0.9868
vn 0.9126 -0.4082 0.0232
vn -0.7512 -0.5707 0.3317
vn -0.9640 -0.2659 0.0060
vn 0.7192 -0.6810 0.1378
vn -0.9674 -0.2246 -0.1172
vn -0.4603 0.8823 -0.0982
vn 0.9626 -0.0389 -0.2681
vn 0.4917 0.8412 -0.2250
vn 0.1034 -0.3245 0.9402
vn 0.6663 0.7175 -0.2030
vn -0.9228 -0.2941 -0.2490
vn -0.0729 -0.4599 -0.8850
vn 0.5672 -0.5022 0.6527
vn 0.8030 -0.4286 0.4142
vn 0.8166 -0.5489 -0.1788
vn 0.4352 -0.7041 -0.5611
vn 0.8405 -0.4871 0.2374
vn -0.0781 -0.4178 0.9052
vn -0.0532 -0.9051 0.4220
s 1
usemtl Rock.001
f 6//1 5//1 4//1
f 9//2 3//2 8//2
f 1//3 12//4 10//5
f 1//6 10//6 7//6
f 10//7 12//7 11//7
f 9//8 7//8 13//8
f 84//9 3//9 9//9
f 6//10 14//10 13//10
f 18//11 19//11 17//11
f 22//12 20//12 25//12
f 23//13 25//13 24//13
f 27//14 28//14 30//14
f 30//17 28//17 26//17
f 28//18 29//18 26//18
f 8//19 33//19 32//19
f 38//20 37//20 35//20
f 36//21 37//21 38//21
f 44//23 45//23 40//23
f 42//24 18//24 41//24
f 8//26 21//26 1//26
f 15//28 39//28 16//28
f 39//29 18//29 16//29
f 21//30 32//30 22//30
f 33//31 8//31 3//31
f 17//32 30//32 18//32
f 1//33 7//33 9//33 8//33
f 26//34 20//34 22//34
f 34//35 15//35 22//35
f 34//36 40//36 15//36
f 40//37 34//37 38//37
f 50//38 48//38 51//38
f 49//39 4//39 50//39
f 59//40 52//40 55//40
f 57//41 53//41 54//41
f 55//42 57//42 54//42
f 60//43 58//43 55//43
f 57//44 48//44 53//44
f 47//45 62//45 56//45
f 61//46 63//46 24//46
f 2//47 62//47 47//47
f 67//49 68//49 65//49
f 78//50 73//50 72//50
f 75//51 73//51 78//51
f 76//52 74//52 75//52
f 70//53 77//53 78//53
f 77//54 79//54 78//54
f 82//56 75//57 79//58
f 81//60 77//60 80//60
f 83//61 82//61 79//61
f 81//62 79//62 77//62
f 72//63 56//63 62//63
f 72//64 62//64 64//64
f 77//65 70//65 69//65
f 72//66 55//66 56//66
f 89//68 87//68 88//68
f 90//69 92//70 87//71
f 93//72 92//73 94//74
f 95//75 93//75 94//75
f 87//76 92//76 14//76
f 94//74 92//73 90//77
f 100//78 96//78 98//78
f 96//79 35//79 98//79
f 100//80 98//80 99//80
f 107//81 106//82 103//83
f 104//86 103//86 106//86
f 108//87 99//88 86//89
f 112//91 104//91 106//91
f 115//92 116//92 109//92
f 118//93 117//93 116//93
f 117//94 114//94 116//94
f 120//95 117//95 121//95
f 120//99 119//99 117//99
f 110//100 112//101 120//102
f 120//103 112//103 119//103
f 104//104 113//104 105//104
f 112//101 113//107 104//108
f 96//109 101//109 35//109
f 119//110 107//111 114//112
f 117//113 119//113 114//113
f 126//114 127//114 128//114
f 128//115 125//115 124//115
f 124//116 125//116 89//116
f 127//117 130//117 129//117
f 137//118 135//118 136//118
f 135//119 137//119 133//119
f 133//120 139//120 134//120
f 127//121 129//121 128//121
f 131//122 144//122 161//122
f 145//123 161//123 144//123
f 151//124 150//124 149//124
f 151//125 149//125 146//125
f 151//126 140//126 160//126
f 146//127 149//127 83//127
f 151//128 146//128 140//128
f 140//129 146//130 148//131
f 153//132 155//133 154//134
f 155//135 156//135 154//135
f 161//138 153//138 137//138
f 137//139 153//139 152//139
f 136//140 161//140 137//140
f 155//141 153//141 161//141
f 160//142 156//142 150//142
f 156//143 159//143 154//143
f 150//144 156//144 155//144
f 159//145 121//145 154//145
f 150//146 155//146 145//146
f 14//147 91//147 9//147
f 37//148 36//148 97//148
f 44//149 101//149 46//149
f 126//150 51//150 57//150
f 60//151 138//151 58//151
f 52//152 59//152 127//152
f 74//153 76//153 142//153
f 83//154 149//154 82//154
f 2//156 54//156 12//156
f 5//157 11//157 50//157
f 89//158 88//158 123//158
f 134//159 95//159 94//159
f 139//160 95//160 134//160
f 94//161 90//161 125//161
f 24//162 2//162 23//162
f 20//163 61//163 25//163
f 20//164 29//164 61//164
f 23//165 2//165 12//165
f 1//3 23//166 12//4
f 109//167 86//167 95//167
f 131//168 138//168 141//168
f 137//169 152//169 133//169
f 38//170 34//170 33//170 36//170
f 13//171 10//171 11//171
f 9//172 13//172 14//172
f 13//173 11//173 5//173
f 7//174 10//174 13//174
f 6//175 13//175 5//175
f 1//176 21//176 23//176
f 23//177 21//177 22//177
f 23//178 22//178 25//178
f 26//179 15//179 16//179
f 30//180 17//180 27//180
f 29//181 28//181 66//181
f 32//182 34//182 22//182
f 33//183 3//184 36//185
f 33//186 34//186 32//186
f 42//187 41//187 45//187 46//187
f 15//188 40//188 39//188
f 44//189 46//189 45//189
f 30//190 26//190 16//190 18//190
f 40//191 45//191 39//191
f 39//192 45//192 41//192
f 39//193 41//193 18//193
f 18//194 42//194 19//194
f 8//195 32//195 21//195
f 53//196 48//196 50//196 11//196
f 22//197 15//197 26//197
f 20//198 26//198 29//198
f 38//199 35//199 44//199
f 38//200 44//200 40//200
f 57//201 51//201 48//201
f 50//202 51//202 49//202
f 11//203 54//203 53//203
f 54//204 56//204 55//204
f 57//205 55//205 52//205
f 2//206 47//206 54//206
f 55//207 58//207 59//207
f 62//208 24//208 63//208 64//208
f 24//209 62//209 2//209
f 55//210 73//210 74//210 60//210
f 61//211 24//211 25//211
f 66//213 67//213 65//213
f 67//214 69//214 68//214
f 68//215 69//215 70//215
f 73//216 55//216 72//216
f 63//217 61//217 65//217 68//217
f 75//218 74//218 73//218
f 69//219 80//219 77//219
f 79//220 81//220 83//220
f 78//222 72//222 64//222
f 104//223 105//223 101//223 103//223
f 29//224 65//224 61//224
f 70//225 64//225 63//225
f 82//226 76//226 75//226
f 79//58 75//57 78//227
f 68//228 70//228 63//228
f 70//229 78//229 64//229
f 90//69 87//71 89//230
f 92//231 91//231 14//231
f 92//232 93//233 91//234
f 91//235 86//235 85//235
f 93//236 95//236 86//236
f 91//237 85//237 84//237
f 93//233 86//238 91//234
f 36//239 99//239 97//239
f 97//240 99//241 98//242
f 101//244 105//244 46//244
f 108//245 109//245 114//245 107//245
f 101//246 96//246 103//246
f 86//247 109//247 108//247
f 109//249 116//249 114//249
f 134//250 94//250 132//250 133//250
f 119//110 112//251 107//111
f 112//101 110//100 113//107
f 108//87 100//252 99//88
f 107//81 112//253 106//82
f 107//81 103//83 100//254
f 96//255 100//255 103//255
f 118//256 121//256 117//256
f 108//257 107//257 100//257
f 123//258 124//258 89//258
f 124//259 126//259 128//259
f 123//260 126//260 124//260
f 135//261 130//261 131//261 136//261
f 130//262 135//262 129//262
f 133//263 132//263 129//263 135//263
f 132//264 125//264 128//264 129//264
f 138//265 131//265 130//265
f 127//266 138//266 130//266
f 132//267 94//267 125//267
f 131//268 141//268 142//268 144//268
f 139//271 152//271 121//271 118//271
f 143//272 145//272 144//272
f 142//273 76//273 143//273
f 143//274 144//274 142//274
f 146//130 83//276 148//131
f 159//277 156//277 160//277 158//277
f 154//134 152//278 153//132
f 152//279 154//279 121//279
f 121//280 159//280 158//280 157//280
f 87//281 6//281 4//281 88//281
f 155//283 161//283 145//283
f 160//284 150//284 151//284
f 145//286 149//286 150//286
f 143//287 149//287 145//287
f 126//288 57//288 52//288 127//288
f 91//289 84//289 9//289
f 6//290 87//290 14//290
f 37//291 97//240 98//242
f 37//292 98//292 35//292
f 35//293 101//293 44//293
f 59//294 58//294 138//294 127//294
f 51//295 126//295 123//295
f 49//296 51//296 123//296
f 74//298 142//298 141//298
f 76//299 82//299 149//299 143//299
f 115//300 139//300 118//300 116//300
f 4//301 5//301 50//301
f 11//302 12//302 54//302
f 125//303 90//303 89//303
f 29//304 66//304 65//304
f 122//306 120//306 121//306 157//306
f 36//308 84//308 85//308 99//308
f 56//310 54//310 47//310
f 60//311 74//311 141//311 138//311
f 85//312 86//312 99//312
f 115//313 109//313 95//313
f 133//314 152//314 139//314
f 131//315 161//315 136//315
f 139//316 115//316 95//316
f 3//184 84//317 36//185
f 88//318 4//318 49//318 123//318
usemtl Grass.001
f 27//15 66//15 28//15
f 27//16 17//16 19//16
f 43//22 19//22 42//22
f 46//25 43//25 42//25
f 102//27 27//27 19//27
f 71//48 69//48 67//48
f 31//55 80//55 69//55
f 31//59 81//59 80//59
f 71//67 31//67 69//67
f 102//84 43//84 105//84
f 43//85 46//85 105//85
f 111//90 27//90 110//90
f 122//96 110//97 120//98
f 113//105 102//105 105//105
f 110//106 102//106 113//106
f 111//136 158//136 160//136
f 158//137 111//137 157//137
f 83//155 81//155 148//155
f 66//212 71//212 67//212
f 31//221 71//221 27//221
f 102//243 19//243 43//243
f 110//248 27//248 102//248
f 111//269 147//269 31//269
f 111//270 31//270 27//270
f 147//275 140//275 148//275
f 111//282 160//282 140//282
f 147//285 111//285 140//285
f 81//297 31//297 147//297 148//297
f 27//305 71//305 66//305
f 110//307 157//307 111//307
f 122//96 157//309 110//97
