# Blender 4.4.3
# www.blender.org
mtllib Plant2.mtl
o Small_Plant_1
v -0.394924 0.182214 0.028215
v -0.002631 0.035598 -0.003566
v -0.362478 0.352000 -0.354564
v 0.029815 0.205384 -0.386345
v 0.019750 0.127550 0.276447
v -0.002496 0.024918 0.001842
v -0.248195 0.246400 0.253734
v -0.270441 0.143769 -0.020871
v 0.298022 0.082983 -0.038693
v 0.002150 0.016212 0.002586
v 0.290216 0.160307 0.252785
v -0.005656 0.093536 0.294065
v -0.293283 0.082983 -0.065570
v -0.001136 0.016212 -0.003166
v -0.186257 0.160307 -0.336800
v 0.105891 0.093536 -0.274397
v -0.057657 0.217970 -0.294941
v 0.002444 0.042583 -0.002311
v 0.233725 0.421075 -0.305776
v 0.293826 0.245688 -0.013146
v -0.394924 0.182214 0.028215
v -0.002631 0.035598 -0.003566
v -0.362478 0.352000 -0.354564
v 0.029815 0.205384 -0.386345
v 0.019750 0.127550 0.276447
v -0.002496 0.024918 0.001842
v -0.248195 0.246400 0.253734
v -0.270441 0.143769 -0.020871
v 0.298022 0.082983 -0.038693
v 0.002150 0.016212 0.002586
v 0.290216 0.160307 0.252785
v -0.005656 0.093536 0.294065
v -0.293283 0.082983 -0.065570
v -0.001136 0.016212 -0.003166
v -0.186257 0.160307 -0.336800
v 0.105891 0.093536 -0.274397
v -0.057657 0.217970 -0.294941
v 0.002444 0.042583 -0.002311
v 0.233725 0.421075 -0.305776
v 0.293826 0.245688 -0.013146
vn 0.3487 0.8454 0.4046
vn 0.4046 0.8454 -0.3487
vn -0.2466 0.9351 -0.2547
vn 0.1446 0.9351 0.3236
vn -0.4745 0.7086 0.5222
vn -0.3487 -0.8454 -0.4046
vn -0.4046 -0.8454 0.3487
vn 0.2466 -0.9351 0.2547
vn -0.1446 -0.9351 -0.3236
vn 0.4745 -0.7086 -0.5222
vt 0.000000 0.000000
vt 1.000000 0.000000
vt 1.000000 1.000000
vt 0.000000 1.000000
s 1
usemtl Material.001
f 1/1/1 2/2/1 4/3/1 3/4/1
f 5/1/2 6/2/2 8/3/2 7/4/2
f 9/1/3 10/2/3 12/3/3 11/4/3
f 13/1/4 14/2/4 16/3/4 15/4/4
f 17/1/5 18/2/5 20/3/5 19/4/5
f 21/1/6 23/4/6 24/3/6 22/2/6
f 25/1/7 27/4/7 28/3/7 26/2/7
f 29/1/8 31/4/8 32/3/8 30/2/8
f 33/1/9 35/4/9 36/3/9 34/2/9
f 37/1/10 39/4/10 40/3/10 38/2/10
