# Blender 4.4.3
# www.blender.org
mtllib Small Island Fragment 1.mtl
o Island_Fragment_1.001
v -2.171536 0.072740 1.852265
v -2.629945 0.006607 0.097204
v -0.638239 -0.016768 2.678092
v -0.466634 -3.527152 0.474783
v -1.274908 -2.567407 0.295599
v -0.548715 -2.670163 1.225896
v -1.424275 -1.169387 1.477834
v -1.946229 0.204016 2.174716
v -0.758886 -0.989767 2.145506
v -1.748019 -1.312815 0.841005
v -1.976486 -1.730205 0.213772
v -2.300684 -0.543648 0.703088
v -0.944398 -1.757903 1.249778
v -0.122949 -1.638697 1.749882
v -2.449441 2.705789 3.093533
v -2.764373 3.393331 2.931306
v -3.466445 4.535084 2.294831
v -2.754279 3.917202 3.293492
v -2.839324 4.821187 2.851459
v -3.987762 2.199026 0.904040
v -2.552521 1.097246 1.904137
v -2.951555 2.067987 2.377972
v -3.226839 0.986157 0.753323
v -3.064924 1.311846 -1.215053
v -3.801201 1.595962 0.840288
v -3.601325 3.273766 1.657320
v -3.690576 4.838051 1.657894
v -4.182583 4.316139 1.108401
v -4.000679 2.853698 0.899489
v -3.671229 4.063501 2.181451
v -0.937988 4.838707 -2.670983
v -2.147627 1.499402 2.909791
v -1.651925 1.076789 3.104206
v -1.546580 1.789367 3.626424
v 0.076350 2.071375 3.821609
v -0.734434 0.583910 2.947072
v -0.427236 1.247370 3.263622
v -1.012585 1.814358 3.832494
v -2.071114 3.473214 3.769241
v -1.613795 2.875407 3.711563
v -2.112111 4.203146 4.125535
v -1.969743 4.482700 4.032785
v -0.828702 4.855776 3.386533
v -0.730941 2.951319 3.884944
v -1.412005 3.755703 4.200632
v -0.124204 4.416095 3.964640
v -2.529029 0.208906 -1.271834
v -1.302528 -2.649247 -0.797949
v -0.213849 -4.161090 -0.994170
v -1.309822 -2.909557 -0.372249
v -0.298403 -3.810614 -1.253454
v -0.334379 -2.084537 -2.049936
v -1.733235 -1.843229 -0.838148
v -2.239926 -0.805753 -1.144949
v -1.541248 -0.518486 -2.272797
v -2.322017 0.328056 -2.179822
v -0.260047 -2.474459 -1.558003
v -0.505084 -0.952220 -2.638705
v -0.116408 -1.634091 -2.528603
v -0.663381 -0.156886 -2.724561
v -3.614819 2.152814 -1.368040
v -2.867608 1.267207 -1.527672
v -3.363276 2.109664 -1.976181
v -2.609472 1.613521 -2.229719
v -3.751018 3.015863 -1.472239
v -4.276855 4.376725 0.260849
v -3.849622 4.362912 -1.286744
v -3.437725 2.830158 -2.161909
v -2.928675 4.222288 -2.499910
v -2.719207 2.793560 -2.841456
v -3.045396 4.815932 -1.565902
v -2.146906 1.118595 -2.620191
v -1.605649 1.360761 -3.070959
v -0.262760 0.750135 -3.223008
v -0.916296 2.072608 -3.646315
v 0.197604 1.689324 -3.811572
v -2.228686 3.606054 -3.073183
v -1.923427 2.322489 -3.209139
v -1.187865 3.492533 -3.690952
v -1.666421 4.243121 -3.054932
v -1.063864 4.243316 -3.520934
v -0.364545 3.588289 -4.079957
v -0.120645 4.009280 -4.062975
v 0.452570 -0.451237 2.571620
v 0.915235 -0.390783 2.429223
v 1.542873 -0.140109 2.076677
v 0.677279 -2.600575 1.296968
v 0.288815 -3.510323 0.465049
v 0.622576 -3.454411 0.344253
v 1.388214 -2.649427 0.326656
v 0.947376 -1.220921 1.968593
v 1.216795 -2.152402 1.147920
v 1.627753 -1.532758 1.134985
v 1.953061 -1.956156 0.153243
v 2.365677 -0.749135 0.344671
v 1.083598 2.267992 3.690050
v 0.801877 1.010487 3.118045
v 0.729396 1.443965 3.522177
v 1.382678 0.710186 2.870119
v 2.151647 2.219332 3.208943
v 0.680145 3.330140 3.952269
v 1.906285 4.783237 2.364560
v 1.803177 3.159748 3.784617
v 2.221724 3.984144 3.802104
v 1.919427 4.446469 3.904686
v 2.469619 3.272651 3.076055
v 2.939717 2.448640 2.385086
v 2.441074 1.040270 2.014290
v 2.730192 0.612956 1.047604
v 3.908859 4.681214 1.279341
v 2.371894 4.791857 -1.666259
v 3.506518 3.951486 2.091782
v 2.928312 4.406015 2.688531
v 3.481260 1.891839 1.525401
v 3.342983 0.790250 0.043100
v 3.772074 1.559965 0.702892
v 3.909169 2.211312 0.981923
v 3.716530 1.621663 -0.020877
v 3.506960 2.978658 1.812834
v 4.226604 4.311110 0.989904
v 3.746495 2.590958 -0.374502
v 3.986628 4.314307 0.237864
v 0.229919 -4.262802 -1.015274
v 0.951167 -3.401268 -0.957956
v 1.481681 -2.764918 -0.731675
v 0.411063 -2.874202 -1.684339
v 0.523747 -2.119550 -2.257327
v 1.167774 -2.843856 -1.384605
v 1.381277 -2.152102 -1.605723
v 0.618370 -0.963094 -2.327384
v 0.905424 -0.086385 -2.541021
v 1.849842 -1.952836 -0.936968
v 2.237274 -0.854191 -0.757293
v 2.171714 -1.249024 -0.160791
v 1.835083 -0.754869 -1.488270
v 1.503921 -0.054708 -2.116608
v 2.352582 -0.243443 -1.541441
v 0.222237 -0.404381 -2.663060
v 3.483268 0.856390 -0.317835
v 1.566501 4.272837 -3.016632
v 0.370880 0.507256 -3.154909
v 0.289865 1.144602 -3.632025
v 0.515174 2.163312 -3.805638
v 1.330894 1.025159 -3.322716
v 2.081762 2.053811 -2.880869
v 1.312252 3.513559 -3.704715
v 0.601718 4.493088 -2.695523
v 0.690673 4.292044 -3.454756
v 0.978537 3.218475 -3.957292
v 2.696199 2.906284 -2.727621
v 2.239769 3.550597 -3.100152
v 3.208714 0.736520 -1.203853
v 2.792112 1.078432 -2.065262
v 3.223432 1.722059 -1.456769
v 2.878941 2.258601 -2.218295
v 3.294670 3.381235 -2.158286
v 3.832261 4.271482 -0.420090
v 3.634774 4.332618 -1.358033
v 3.596826 3.241706 -1.527384
v 3.224947 4.146720 -2.156135
v 1.986360 0.760252 -2.765054
vn -0.7074 -0.5030 0.4966
vn -0.3871 -0.4053 0.8282
vn -0.7887 -0.5004 0.3571
vn -0.7943 -0.4937 0.3541
vn -0.7876 -0.5018 0.3577
vn -0.6847 -0.5545 0.4730
vn -0.7242 -0.4226 0.5450
vn -0.4641 -0.6226 0.6300
vn -0.1007 -0.4681 0.8779
vn -0.4813 -0.2309 0.8456
vn -0.7045 0.2572 0.6615
vn -0.7925 -0.3012 0.5303
vn -0.7294 -0.6628 -0.1697
vn -0.8339 0.2947 0.4667
vn -0.7864 0.6038 0.1306
vn -0.6840 0.5355 0.4954
vn -0.8846 -0.3097 0.3486
vn -0.8260 -0.1791 0.5345
vn -0.6331 -0.4542 0.6269
vn 0.1532 -0.6166 0.7722
vn 0.2842 -0.5169 0.8075
vn -0.1083 0.9317 0.3467
vn -0.1333 -0.4578 0.8790
vn -0.7540 0.5180 0.4039
vn 0.0506 0.8237 0.5648
vn -0.7205 -0.2996 0.6254
vn 0.0088 0.9999 0.0079
vn -0.7471 -0.1920 0.6364
vn -0.6850 -0.4053 0.6054
vn -0.6957 -0.5252 0.4901
vn -0.3714 -0.6153 0.6953
vn -0.7489 0.1713 0.6401
vn -0.5377 -0.5350 0.6517
vn -0.8180 -0.1026 0.5660
vn -0.6701 -0.2547 0.6972
vn -0.5786 -0.0993 0.8096
vn -0.3545 -0.0949 0.9302
vn -0.7732 -0.5350 -0.3404
vn -0.6933 -0.6974 0.1817
vn -0.5138 -0.4956 -0.7003
vn -0.5419 -0.4706 -0.6964
vn -0.6090 -0.5919 -0.5280
vn -0.3923 -0.1756 -0.9029
vn -0.5229 -0.3188 -0.7905
vn -0.9025 -0.3496 -0.2516
vn -0.7786 -0.5605 -0.2823
vn -0.9372 -0.3283 -0.1176
vn -0.5505 0.6717 -0.4957
vn -0.9114 -0.0101 -0.4113
vn -0.5324 -0.2902 -0.7952
vn -0.4388 -0.2682 -0.8576
vn -0.2709 -0.4123 -0.8698
vn -0.4215 -0.0042 -0.9068
vn -0.5127 -0.0310 -0.8580
vn -0.2814 0.7389 -0.6123
vn -0.4145 -0.1077 -0.9037
vn -0.4150 -0.1078 -0.9034
vn -0.4178 -0.1083 -0.9020
vn -0.3808 0.7829 -0.4920
vn -0.5333 0.4904 -0.6893
vn -0.4363 0.2872 -0.8527
vn -0.4699 0.2681 -0.8410
vn -0.8364 -0.1135 -0.5363
vn -0.7978 -0.3701 -0.4759
vn -0.5692 0.1113 -0.8146
vn -0.4724 -0.3467 -0.8103
vn -0.2911 0.7905 -0.5388
vn 0.3419 -0.7095 0.6162
vn 0.6327 -0.5967 0.4936
vn 0.6324 -0.5972 0.4934
vn 0.6337 -0.5952 0.4942
vn 0.7459 -0.4852 0.4564
vn 0.7434 -0.4918 0.4533
vn 0.7457 -0.4857 0.4561
vn 0.8324 -0.3524 0.4278
vn 0.3639 -0.1314 0.9221
vn 0.7433 -0.4923 0.4530
vn 0.3739 -0.3368 0.8642
vn 0.1761 -0.2686 0.9470
vn 0.3950 -0.3882 0.8326
vn 0.7338 -0.1374 0.6653
vn 0.7298 -0.1441 0.6683
vn 0.7324 -0.1407 0.6662
vn 0.1048 0.9717 0.2116
vn 0.0057 0.7993 0.6009
vn 0.7052 -0.3709 0.6042
vn 0.6412 -0.4560 0.6171
vn 0.6400 -0.4635 0.6128
vn 0.6413 -0.4554 0.6175
vn 0.0219 0.9994 0.0261
vn 0.7541 -0.3216 0.5726
vn 0.6937 -0.6510 0.3083
vn 0.9817 -0.1682 -0.0897
vn 0.8241 -0.3606 0.4369
vn 0.9764 -0.1470 -0.1582
vn 0.6590 0.7235 -0.2057
vn 0.6641 0.7193 -0.2038
vn 0.6567 0.7253 -0.2065
vn 0.8406 -0.1291 0.5261
vn 0.7802 0.2213 0.5851
vn 0.7835 0.2226 0.5801
vn 0.7833 0.2168 0.5826
vn 0.8493 -0.1452 0.5076
vn 0.7281 0.3446 0.5925
vn 0.2819 0.9378 0.2027
vn 0.2297 0.9127 0.3381
vn 0.7796 0.2237 0.5850
vn 0.7804 0.2288 0.5819
vn 0.1616 -0.1783 0.9706
vn 0.7763 -0.1777 0.6048
vn 0.7753 -0.1744 0.6070
vn 0.7764 -0.1782 0.6045
vn 0.8197 -0.1645 0.5487
vn 0.3145 -0.6034 -0.7328
vn 0.7815 -0.5412 -0.3103
vn 0.7303 -0.6648 0.1572
vn 0.5998 -0.0972 -0.7942
vn 0.4097 -0.4943 -0.7667
vn 0.6129 -0.6646 -0.4275
vn 0.8113 -0.5246 -0.2581
vn 0.5439 -0.4031 -0.7360
vn 0.3440 -0.6247 -0.7010
vn 0.6163 -0.1152 -0.7791
vn 0.5728 -0.0666 -0.8170
vn 0.5402 0.1039 -0.8351
vn 0.4307 0.4892 -0.7584
vn 0.3412 0.3581 -0.8691
vn 0.4556 0.5092 -0.7302
vn 0.3844 0.5459 -0.7445
vn 0.3760 0.5416 -0.7519
vn 0.3835 0.5455 -0.7452
vn 0.8675 -0.1265 -0.4811
vn 0.8674 -0.1262 -0.4813
vn 0.8699 -0.1343 -0.4746
vn 0.7946 -0.2651 -0.5462
vn 0.3977 0.8272 -0.3969
vn 0.3442 0.9388 -0.0113
vn 0.6796 -0.4542 -0.5760
vn 0.7216 -0.4488 -0.5271
vn 0.2909 -0.6952 -0.6573
vn 0.6806 -0.1432 -0.7185
vn 0.6615 0.0624 -0.7474
vn 0.8564 -0.2319 -0.4614
vn 0.7643 -0.2513 -0.5938
vn 0.9354 -0.2418 -0.2579
vn 0.6505 -0.3475 -0.6753
vn 0.0210 -0.5054 0.8627
vn 0.0218 -0.4387 0.8984
vn -0.0372 -0.0389 0.9985
vn -0.2971 -0.2041 -0.9328
vn 0.0414 -0.0991 -0.9942
vn -0.2008 -0.6661 -0.7183
vn -0.3851 -0.3471 -0.8551
vn 0.0880 -0.0108 -0.9961
vn -0.0098 0.9117 -0.4107
vn -0.8760 -0.4808 0.0394
vn -0.7373 -0.5848 0.3382
vn 0.2966 -0.8560 0.4233
vn 0.9475 -0.3157 -0.0513
vn 0.8407 -0.5101 0.1819
vn 0.7844 -0.6053 0.1353
vn -0.8852 -0.4417 -0.1459
vn -0.9489 -0.2777 -0.1501
vn -0.9867 -0.0206 -0.1615
vn -0.8555 -0.5178 -0.0053
vn -0.7950 -0.4929 0.3537
vn 0.7301 -0.4574 0.5077
vn 0.3682 -0.4872 -0.7918
vn 0.7652 -0.5576 -0.3218
vn -0.2151 -0.5854 0.7817
vn -0.6000 -0.5478 0.5831
vn -0.2989 -0.6929 0.6561
vn -0.6319 -0.4692 0.6169
vn -0.5971 -0.6623 0.4527
vn -0.7584 -0.3434 0.5540
vn -0.8024 -0.3238 0.5014
vn -0.7132 -0.5217 0.4682
vn -0.5858 -0.6253 0.5156
vn -0.8015 -0.2376 0.5488
vn -0.8608 0.2701 0.4314
vn -0.9855 -0.1368 0.0998
vn -0.6658 -0.3040 0.6814
vn -0.0687 -0.4169 0.9064
vn -0.0707 -0.4171 0.9061
vn -0.0762 -0.4176 0.9054
vn -0.6124 -0.4064 0.6781
vn 0.0501 0.2610 0.9640
vn -0.4756 -0.4375 0.7632
vn 0.2557 -0.1578 0.9538
vn -0.7412 -0.3983 0.5404
vn -0.3881 -0.3780 0.8405
vn -0.3609 -0.4254 0.8299
vn -0.6782 -0.3528 0.6447
vn -0.7504 0.2320 0.6189
vn -0.7886 -0.3916 0.4741
vn -0.8803 -0.4336 -0.1925
vn -0.7904 -0.0616 0.6095
vn -0.8813 -0.0141 0.4723
vn 0.0221 -0.0515 0.9984
vn -0.1929 0.0025 0.9812
vn -0.5621 -0.1684 -0.8097
vn -0.7788 -0.4835 -0.3996
vn -0.8700 -0.4695 -0.1507
vn -0.6480 -0.5385 -0.5386
vn -0.7104 -0.5999 -0.3681
vn -0.9518 -0.2853 -0.1123
vn -0.4464 -0.3849 -0.8078
vn -0.6305 -0.6197 -0.4673
vn -0.7113 -0.6020 -0.3630
vn -0.2821 -0.3766 -0.8824
vn -0.8006 -0.5615 -0.2092
vn -0.5247 0.8376 -0.1523
vn -0.9635 -0.0339 -0.2657
vn -0.7811 0.1378 -0.6090
vn -0.6833 0.0735 -0.7264
vn -0.5005 -0.3529 -0.7905
vn -0.9123 -0.1880 -0.3639
vn -0.2876 -0.4180 -0.8617
vn -0.3805 0.3602 -0.8518
vn -0.4297 0.2664 -0.8628
vn -0.0161 0.9998 -0.0101
vn -0.7398 -0.1799 -0.6484
vn 0.1403 -0.1045 0.9846
vn -0.9790 -0.1683 -0.1146
vn -0.5287 -0.4289 -0.7325
vn -0.2100 -0.1975 -0.9575
vn -0.4183 -0.1084 -0.9018
vn -0.6721 -0.2492 -0.6972
vn -0.5732 -0.4185 -0.7045
vn 0.6349 -0.5931 0.4951
vn 0.0954 -0.6424 0.7604
vn 0.6292 -0.4034 0.6644
vn 0.6255 -0.4099 0.6639
vn 0.6284 -0.4047 0.6643
vn 0.5640 -0.3839 0.7311
vn 0.8246 -0.2816 0.4907
vn 0.3159 -0.4510 0.8348
vn 0.6250 -0.4108 0.6638
vn 0.0634 -0.5596 0.8263
vn -0.0457 -0.6853 0.7268
vn -0.0439 -0.6852 0.7271
vn -0.0444 -0.6852 0.7270
vn 0.0010 0.9977 -0.0682
vn 0.0292 0.0102 0.9995
vn 0.6651 -0.4878 0.5654
vn 0.1155 -0.1965 0.9737
vn 0.7225 -0.5261 0.4486
vn 0.0175 0.9980 -0.0615
vn 0.6740 -0.5710 0.4687
vn 0.9413 -0.3232 -0.0973
vn 0.7752 -0.1738 0.6074
vn 0.6400 -0.4637 0.6127
vn 0.7294 -0.1446 0.6687
vn 0.7345 -0.1349 0.6650
vn 0.3646 -0.3841 0.8482
vn 0.9866 -0.0820 -0.1413
vn 0.7147 -0.4035 0.5713
vn 0.7511 -0.6397 0.1634
vn 0.3021 -0.6507 -0.6967
vn 0.5568 -0.4184 -0.7176
vn 0.5622 -0.3773 -0.7360
vn 0.5775 -0.1197 -0.8076
vn 0.8350 -0.2215 -0.5036
vn 0.8148 -0.4265 -0.3926
vn 0.3087 -0.3194 -0.8959
vn 0.5615 -0.0957 -0.8219
vn 0.8990 -0.4294 -0.0864
vn 0.1863 -0.5979 -0.7797
vn 0.1759 0.8222 -0.5413
vn 0.0118 0.9999 0.0077
vn 0.9444 -0.1528 -0.2911
vn 0.5083 -0.0011 -0.8612
vn 0.3669 -0.2346 -0.9002
vn 0.2551 -0.2170 -0.9423
vn 0.1402 0.9611 -0.2381
vn 0.3754 0.5413 -0.7524
vn 0.8929 0.0566 -0.4467
vn 0.8700 -0.1347 -0.4742
vn 0.9261 -0.1067 -0.3619
vn 0.9838 -0.0361 -0.1756
vn 0.0061 -0.6679 0.7442
vn 0.3208 0.8042 -0.5004
vn 0.6523 -0.1152 -0.7492
vn 0.6744 0.0519 -0.7366
vn 0.0766 0.9145 -0.3972
vn 0.5357 -0.2406 -0.8094
vn 0.4644 -0.3225 -0.8248
vn -0.3328 -0.6363 -0.6959
vn -0.0021 -0.6176 0.7865
vn -0.0267 -0.4440 0.8956
vn -0.0460 -0.6853 0.7268
vn -0.1031 -0.5138 0.8517
vn -0.0227 -0.0925 0.9955
vn 0.1824 -0.1564 -0.9707
vn 0.0311 -0.4371 -0.8989
vn -0.1770 -0.6126 -0.7703
vn 0.0860 0.8921 -0.4435
vn -0.1477 -0.6047 -0.7827
vn 0.0850 -0.1375 -0.9868
vn 0.9126 -0.4082 0.0232
vn -0.7512 -0.5707 0.3317
vn -0.9640 -0.2659 0.0060
vn 0.7192 -0.6810 0.1378
vn -0.9674 -0.2246 -0.1172
vn -0.4603 0.8823 -0.0982
vn 0.9626 -0.0389 -0.2681
vn 0.4917 0.8412 -0.2250
vn 0.1034 -0.3245 0.9402
vn 0.6663 0.7175 -0.2030
vn -0.9228 -0.2941 -0.2490
vn -0.0729 -0.4599 -0.8850
vn 0.5672 -0.5022 0.6527
vn 0.8030 -0.4286 0.4142
vn 0.8166 -0.5489 -0.1788
vn 0.4352 -0.7041 -0.5611
vn 0.8405 -0.4871 0.2374
vn -0.0781 -0.4178 0.9052
vn -0.0532 -0.9051 0.4220
s 1
usemtl Rock.001
f 6//1 5//1 4//1
f 9//2 3//2 8//2
f 1//3 12//4 10//5
f 1//6 10//6 7//6
f 10//7 12//7 11//7
f 9//8 7//8 13//8
f 84//9 3//9 9//9
f 6//10 14//10 13//10
f 18//11 19//11 17//11
f 22//12 20//12 25//12
f 23//13 25//13 24//13
f 27//14 28//14 30//14
f 30//17 28//17 26//17
f 28//18 29//18 26//18
f 8//19 33//19 32//19
f 38//20 37//20 35//20
f 36//21 37//21 38//21
f 44//23 45//23 40//23
f 42//24 18//24 41//24
f 8//26 21//26 1//26
f 15//28 39//28 16//28
f 39//29 18//29 16//29
f 21//30 32//30 22//30
f 33//31 8//31 3//31
f 17//32 30//32 18//32
f 1//33 7//33 9//33 8//33
f 26//34 20//34 22//34
f 34//35 15//35 22//35
f 34//36 40//36 15//36
f 40//37 34//37 38//37
f 50//38 48//38 51//38
f 49//39 4//39 50//39
f 59//40 52//40 55//40
f 57//41 53//41 54//41
f 55//42 57//42 54//42
f 60//43 58//43 55//43
f 57//44 48//44 53//44
f 47//45 62//45 56//45
f 61//46 63//46 24//46
f 2//47 62//47 47//47
f 67//49 68//49 65//49
f 78//50 73//50 72//50
f 75//51 73//51 78//51
f 76//52 74//52 75//52
f 70//53 77//53 78//53
f 77//54 79//54 78//54
f 82//56 75//57 79//58
f 81//60 77//60 80//60
f 83//61 82//61 79//61
f 81//62 79//62 77//62
f 72//63 56//63 62//63
f 72//64 62//64 64//64
f 77//65 70//65 69//65
f 72//66 55//66 56//66
f 89//68 87//68 88//68
f 90//69 92//70 87//71
f 93//72 92//73 94//74
f 95//75 93//75 94//75
f 87//76 92//76 14//76
f 94//74 92//73 90//77
f 100//78 96//78 98//78
f 96//79 35//79 98//79
f 100//80 98//80 99//80
f 107//81 106//82 103//83
f 104//86 103//86 106//86
f 108//87 99//88 86//89
f 112//91 104//91 106//91
f 115//92 116//92 109//92
f 118//93 117//93 116//93
f 117//94 114//94 116//94
f 120//95 117//95 121//95
f 120//99 119//99 117//99
f 110//100 112//101 120//102
f 120//103 112//103 119//103
f 104//104 113//104 105//104
f 112//101 113//107 104//108
f 96//109 101//109 35//109
f 119//110 107//111 114//112
f 117//113 119//113 114//113
f 126//114 127//114 128//114
f 128//115 125//115 124//115
f 124//116 125//116 89//116
f 127//117 130//117 129//117
f 137//118 135//118 136//118
f 135//119 137//119 133//119
f 133//120 139//120 134//120
f 127//121 129//121 128//121
f 131//122 144//122 161//122
f 145//123 161//123 144//123
f 151//124 150//124 149//124
f 151//125 149//125 146//125
f 151//126 140//126 160//126
f 146//127 149//127 83//127
f 151//128 146//128 140//128
f 140//129 146//130 148//131
f 153//132 155//133 154//134
f 155//135 156//135 154//135
f 161//138 153//138 137//138
f 137//139 153//139 152//139
f 136//140 161//140 137//140
f 155//141 153//141 161//141
f 160//142 156//142 150//142
f 156//143 159//143 154//143
f 150//144 156//144 155//144
f 159//145 121//145 154//145
f 150//146 155//146 145//146
f 14//147 91//147 9//147
f 37//148 36//148 97//148
f 44//149 101//149 46//149
f 126//150 51//150 57//150
f 60//151 138//151 58//151
f 52//152 59//152 127//152
f 74//153 76//153 142//153
f 83//154 149//154 82//154
f 2//156 54//156 12//156
f 5//157 11//157 50//157
f 89//158 88//158 123//158
f 134//159 95//159 94//159
f 139//160 95//160 134//160
f 94//161 90//161 125//161
f 24//162 2//162 23//162
f 20//163 61//163 25//163
f 20//164 29//164 61//164
f 23//165 2//165 12//165
f 1//3 23//166 12//4
f 109//167 86//167 95//167
f 131//168 138//168 141//168
f 137//169 152//169 133//169
f 38//170 34//170 33//170 36//170
f 13//171 10//171 11//171
f 9//172 13//172 14//172
f 13//173 11//173 5//173
f 7//174 10//174 13//174
f 6//175 13//175 5//175
f 1//176 21//176 23//176
f 23//177 21//177 22//177
f 23//178 22//178 25//178
f 26//179 15//179 16//179
f 30//180 17//180 27//180
f 29//181 28//181 66//181
f 32//182 34//182 22//182
f 33//183 3//184 36//185
f 33//186 34//186 32//186
f 42//187 41//187 45//187 46//187
f 15//188 40//188 39//188
f 44//189 46//189 45//189
f 30//190 26//190 16//190 18//190
f 40//191 45//191 39//191
f 39//192 45//192 41//192
f 39//193 41//193 18//193
f 18//194 42//194 19//194
f 8//195 32//195 21//195
f 53//196 48//196 50//196 11//196
f 22//197 15//197 26//197
f 20//198 26//198 29//198
f 38//199 35//199 44//199
f 38//200 44//200 40//200
f 57//201 51//201 48//201
f 50//202 51//202 49//202
f 11//203 54//203 53//203
f 54//204 56//204 55//204
f 57//205 55//205 52//205
f 2//206 47//206 54//206
f 55//207 58//207 59//207
f 62//208 24//208 63//208 64//208
f 24//209 62//209 2//209
f 55//210 73//210 74//210 60//210
f 61//211 24//211 25//211
f 66//213 67//213 65//213
f 67//214 69//214 68//214
f 68//215 69//215 70//215
f 73//216 55//216 72//216
f 63//217 61//217 65//217 68//217
f 75//218 74//218 73//218
f 69//219 80//219 77//219
f 79//220 81//220 83//220
f 78//222 72//222 64//222
f 104//223 105//223 101//223 103//223
f 29//224 65//224 61//224
f 70//225 64//225 63//225
f 82//226 76//226 75//226
f 79//58 75//57 78//227
f 68//228 70//228 63//228
f 70//229 78//229 64//229
f 90//69 87//71 89//230
f 92//231 91//231 14//231
f 92//232 93//233 91//234
f 91//235 86//235 85//235
f 93//236 95//236 86//236
f 91//237 85//237 84//237
f 93//233 86//238 91//234
f 36//239 99//239 97//239
f 97//240 99//241 98//242
f 101//244 105//244 46//244
f 108//245 109//245 114//245 107//245
f 101//246 96//246 103//246
f 86//247 109//247 108//247
f 109//249 116//249 114//249
f 134//250 94//250 132//250 133//250
f 119//110 112//251 107//111
f 112//101 110//100 113//107
f 108//87 100//252 99//88
f 107//81 112//253 106//82
f 107//81 103//83 100//254
f 96//255 100//255 103//255
f 118//256 121//256 117//256
f 108//257 107//257 100//257
f 123//258 124//258 89//258
f 124//259 126//259 128//259
f 123//260 126//260 124//260
f 135//261 130//261 131//261 136//261
f 130//262 135//262 129//262
f 133//263 132//263 129//263 135//263
f 132//264 125//264 128//264 129//264
f 138//265 131//265 130//265
f 127//266 138//266 130//266
f 132//267 94//267 125//267
f 131//268 141//268 142//268 144//268
f 139//271 152//271 121//271 118//271
f 143//272 145//272 144//272
f 142//273 76//273 143//273
f 143//274 144//274 142//274
f 146//130 83//276 148//131
f 159//277 156//277 160//277 158//277
f 154//134 152//278 153//132
f 152//279 154//279 121//279
f 121//280 159//280 158//280 157//280
f 87//281 6//281 4//281 88//281
f 155//283 161//283 145//283
f 160//284 150//284 151//284
f 145//286 149//286 150//286
f 143//287 149//287 145//287
f 126//288 57//288 52//288 127//288
f 91//289 84//289 9//289
f 6//290 87//290 14//290
f 37//291 97//240 98//242
f 37//292 98//292 35//292
f 35//293 101//293 44//293
f 59//294 58//294 138//294 127//294
f 51//295 126//295 123//295
f 49//296 51//296 123//296
f 74//298 142//298 141//298
f 76//299 82//299 149//299 143//299
f 115//300 139//300 118//300 116//300
f 4//301 5//301 50//301
f 11//302 12//302 54//302
f 125//303 90//303 89//303
f 29//304 66//304 65//304
f 122//306 120//306 121//306 157//306
f 36//308 84//308 85//308 99//308
f 56//310 54//310 47//310
f 60//311 74//311 141//311 138//311
f 85//312 86//312 99//312
f 115//313 109//313 95//313
f 133//314 152//314 139//314
f 131//315 161//315 136//315
f 139//316 115//316 95//316
f 3//184 84//317 36//185
f 88//318 4//318 49//318 123//318
usemtl Grass.001
f 27//15 66//15 28//15
f 27//16 17//16 19//16
f 43//22 19//22 42//22
f 46//25 43//25 42//25
f 102//27 27//27 19//27
f 71//48 69//48 67//48
f 31//55 80//55 69//55
f 31//59 81//59 80//59
f 71//67 31//67 69//67
f 102//84 43//84 105//84
f 43//85 46//85 105//85
f 111//90 27//90 110//90
f 122//96 110//97 120//98
f 113//105 102//105 105//105
f 110//106 102//106 113//106
f 111//136 158//136 160//136
f 158//137 111//137 157//137
f 83//155 81//155 148//155
f 66//212 71//212 67//212
f 31//221 71//221 27//221
f 102//243 19//243 43//243
f 110//248 27//248 102//248
f 111//269 147//269 31//269
f 111//270 31//270 27//270
f 147//275 140//275 148//275
f 111//282 160//282 140//282
f 147//285 111//285 140//285
f 81//297 31//297 147//297 148//297
f 27//305 71//305 66//305
f 110//307 157//307 111//307
f 122//96 157//309 110//97
